<svg width="518" height="234" viewBox="0 0 518 234" fill="none" xmlns="http://www.w3.org/2000/svg">
<mask id="mask0_1_2640" style="mask-type:alpha" maskUnits="userSpaceOnUse" x="-28" y="-68" width="546" height="302">
<path d="M-28 -68H517.387V233.993H-28V-68Z" fill="white"/>
</mask>
<g mask="url(#mask0_1_2640)">
<path fill-rule="evenodd" clip-rule="evenodd" d="M513.78 -78.7904C513.465 -77.2054 511.149 -76.3688 509.844 -75.7167C508.052 -74.8211 506.228 -74.01 504.53 -72.9475C499.514 -69.811 494.831 -66.5979 489.428 -64.0879C486.969 -62.9448 484.491 -61.8371 482.072 -60.6175C479.395 -59.2682 476.893 -57.587 474.121 -56.4263C469.01 -54.2856 463.795 -52.9265 458.878 -50.3006C448.524 -44.77 439.129 -37.5267 428.495 -32.5323C423.437 -30.1558 418.973 -27.4239 414.437 -24.2089C409.73 -20.874 404.889 -18.0281 399.833 -15.2412C390.217 -9.94433 381.917 -2.67948 372.232 2.5094C362.342 7.80827 352.342 12.8283 343.329 19.5157C339.799 22.1357 336.271 24.9442 333.664 28.4813C331.436 31.502 331.049 35.4143 328.58 38.2542C320.731 47.2788 310.387 54.2588 302.924 63.6134C301.317 65.6265 299.967 67.8026 298.481 69.8962C296.894 72.1293 294.947 74.0108 293.042 75.9787C289.227 79.9224 285.927 84.2413 282.349 88.3794C274.704 97.2213 266.297 105.447 259.191 114.726C256.103 118.759 253.256 123.945 248.954 126.884C245.686 129.119 241.329 128.588 238.1 131.193C236.271 132.668 235.027 134.154 232.622 134.795C230.526 135.354 228.314 135.596 226.191 136.087C220.405 137.426 214.559 137.835 208.888 139.712C203.618 141.458 198.572 143.77 193.371 145.689C188.387 147.527 183.468 148.59 178.204 149.293C173.301 149.947 169.463 152.321 165.066 154.344C159.802 156.764 154.022 157.952 148.517 159.739C143.092 161.497 138.203 163.777 133.104 166.248C130.441 167.54 127.689 168.515 124.708 168.772C121.803 169.019 118.879 168.803 115.976 169.094C110.537 169.638 105.429 171.366 99.9149 171.394C94.1956 171.421 88.5286 172.205 82.9261 173.287C71.2252 175.544 59.8631 178.456 48.7227 182.624C38.2112 186.556 27.4639 189.952 17.0271 194.048C-4.37878 202.452 -24.0005 214.466 -42.9287 227.207C-47.5172 230.294 -52.0693 233.433 -56.6073 236.587C-57.9116 237.494 -56.6859 239.607 -55.3372 238.708C-36.1147 225.869 -16.5978 213.404 4.44323 203.546C15.1442 198.532 26.2362 195.076 37.3524 191.118C48.13 187.281 58.7039 182.814 69.9431 180.369C75.8741 179.079 81.8133 177.726 87.8149 176.779C93.7339 175.844 99.6831 176.268 105.578 175.465C107.931 175.145 110.237 174.601 112.563 174.151C115.767 173.529 118.902 173.487 122.155 173.434C127.673 173.346 132.35 171.845 137.219 169.398C147.418 164.266 158.885 162.733 169.118 157.797C171.39 156.701 173.588 155.32 176.049 154.662C178.46 154.018 180.988 153.953 183.448 153.576C188.952 152.736 194.177 150.807 199.318 148.78C204.449 146.757 209.541 144.571 214.926 143.248C217.67 142.572 220.468 142.23 223.258 141.796C226.102 141.356 228.858 140.565 231.699 140.131C233.721 139.824 235.68 139.328 237.481 138.332C239.608 137.155 240.944 135.028 243.216 134.105C244.867 133.434 246.68 133.284 248.377 132.772C250.401 132.161 252.115 131.081 253.673 129.694C257.526 126.263 260.36 121.756 263.443 117.696C267.064 112.929 271.132 108.485 275.184 104.066C279.198 99.6901 283.262 95.3536 287.111 90.8364C290.735 86.5804 294.195 82.289 298.118 78.2766C301.848 74.4625 304.309 69.8864 307.813 65.9309C311.774 61.4608 316.397 57.4386 320.715 53.2965C324.913 49.2703 329.705 45.3875 333.295 40.8251C335.612 37.881 335.995 34.0591 338.265 31.0993C340.998 27.5347 344.895 24.6928 348.57 22.114C353.437 18.6987 358.558 15.6466 363.777 12.7713C368.865 9.96867 374.151 7.48421 379.097 4.44787C383.842 1.53329 388.316 -1.7682 392.894 -4.91452C397.549 -8.11388 402.418 -10.7653 407.321 -13.564C412.332 -16.4236 416.846 -19.9627 421.596 -23.2013C426.053 -26.2436 431.142 -28.1015 435.859 -30.6979C441.032 -33.5457 445.893 -36.9827 450.923 -40.0662C455.949 -43.1497 461.099 -46.5297 466.591 -48.7746C469.105 -49.7998 471.73 -50.5402 474.262 -51.5183C477.06 -52.5985 479.546 -54.0538 482.147 -55.5111C487.047 -58.2587 492.329 -60.3032 497.228 -63.0509C501.686 -65.553 505.55 -68.9056 510.135 -71.1995C512.987 -72.6273 516.679 -74.4598 517.348 -77.8319C517.798 -80.0984 514.231 -81.0706 513.78 -78.7904Z" fill="#BB5A28" fill-opacity="0.2"/>
</g>
</svg>
