<svg width="549" height="315" viewBox="0 0 549 315" fill="none" xmlns="http://www.w3.org/2000/svg">
<mask id="mask0_1_2873" style="mask-type:alpha" maskUnits="userSpaceOnUse" x="3" y="0" width="546" height="302">
<path d="M3.37109 301.993L548.758 301.993L548.758 0.000104909L3.37107 0.000152588L3.37109 301.993Z" fill="white"/>
</mask>
<g mask="url(#mask0_1_2873)">
<path fill-rule="evenodd" clip-rule="evenodd" d="M545.151 312.783C544.836 311.198 542.52 310.361 541.215 309.709C539.423 308.814 537.599 308.003 535.901 306.94C530.885 303.804 526.202 300.59 520.799 298.081C518.34 296.937 515.862 295.83 513.443 294.61C510.766 293.261 508.264 291.58 505.492 290.419C500.381 288.278 495.166 286.919 490.249 284.293C479.895 278.763 470.5 271.519 459.866 266.525C454.808 264.148 450.344 261.417 445.808 258.201C441.101 254.867 436.26 252.021 431.204 249.234C421.588 243.937 413.288 236.672 403.603 231.483C393.713 226.184 383.713 221.164 374.7 214.477C371.17 211.857 367.642 209.048 365.035 205.511C362.807 202.491 362.42 198.578 359.951 195.738C352.103 186.714 341.758 179.734 334.295 170.379C332.688 168.366 331.338 166.19 329.852 164.096C328.265 161.863 326.318 159.982 324.413 158.014C320.598 154.07 317.298 149.751 313.72 145.613C306.075 136.771 297.669 128.546 290.562 119.266C287.474 115.234 284.627 110.047 280.325 107.109C277.057 104.874 272.7 105.404 269.471 102.8C267.642 101.325 266.398 99.8383 263.993 99.198C261.897 98.6383 259.685 98.3967 257.562 97.9057C251.776 96.5663 245.93 96.1578 240.259 94.2802C234.989 92.5342 229.943 90.2226 224.742 88.3037C219.758 86.4654 214.839 85.4029 209.575 84.6998C204.672 84.0458 200.834 81.6713 196.437 79.6484C191.173 77.2287 185.393 76.0405 179.888 74.2533C174.463 72.4955 169.574 70.2153 164.475 67.7446C161.812 66.4523 159.06 65.4781 156.079 65.2209C153.174 64.9734 150.251 65.1894 147.347 64.8987C141.908 64.3547 136.8 62.6264 131.286 62.5989C125.567 62.5714 119.9 61.7878 114.297 60.7056C102.596 58.449 91.2341 55.5364 80.0937 51.3688C69.5823 47.4368 58.835 44.0411 48.3982 39.9442C26.9923 31.5402 7.37056 19.5264 -11.5577 6.78595C-16.1461 3.69855 -20.6982 0.560058 -25.2362 -2.59412C-26.5406 -3.5015 -25.3149 -5.61472 -23.9662 -4.71521C-4.74359 8.12344 14.7733 20.589 35.8143 30.4463C46.5152 35.4604 57.6073 38.917 68.7235 42.8744C79.501 46.7121 90.075 51.1782 101.314 53.6234C107.245 54.9138 113.184 56.267 119.186 57.2136C125.105 58.1485 131.054 57.7243 136.949 58.5275C139.302 58.8477 141.608 59.3917 143.934 59.8414C147.138 60.464 150.273 60.5053 153.527 60.5583C159.044 60.6467 163.721 62.1472 168.59 64.5943C178.789 69.7263 190.256 71.2601 200.489 76.1957C202.761 77.2916 204.959 78.6723 207.42 79.3302C209.831 79.9744 212.359 80.0392 214.819 80.4163C220.323 81.2569 225.548 83.1856 230.689 85.2124C235.82 87.2353 240.912 89.4213 246.297 90.745C249.041 91.4206 251.839 91.7623 254.629 92.1964C257.473 92.6363 260.229 93.4278 263.07 93.8619C265.092 94.1682 267.051 94.6651 268.852 95.6609C270.979 96.8373 272.315 98.9643 274.587 99.8874C276.238 100.559 278.051 100.708 279.748 101.221C281.772 101.832 283.486 102.912 285.044 104.299C288.897 107.73 291.731 112.237 294.814 116.297C298.435 121.063 302.503 125.508 306.555 129.927C310.569 134.303 314.633 138.639 318.482 143.156C322.106 147.412 325.566 151.704 329.489 155.716C333.219 159.53 335.68 164.106 339.184 168.062C343.145 172.532 347.768 176.554 352.086 180.696C356.284 184.722 361.076 188.605 364.666 193.168C366.983 196.112 367.366 199.934 369.636 202.893C372.369 206.458 376.266 209.3 379.941 211.879C384.808 215.294 389.929 218.346 395.148 221.221C400.237 224.024 405.523 226.508 410.468 229.545C415.213 232.459 419.687 235.761 424.265 238.907C428.92 242.107 433.789 244.758 438.692 247.557C443.704 250.416 448.217 253.955 452.967 257.194C457.424 260.236 462.513 262.094 467.23 264.691C472.403 267.538 477.264 270.975 482.294 274.059C487.32 277.142 492.471 280.522 497.962 282.767C500.476 283.792 503.101 284.533 505.633 285.511C508.431 286.591 510.917 288.046 513.518 289.504C518.419 292.251 523.7 294.296 528.599 297.044C533.057 299.546 536.921 302.898 541.506 305.192C544.358 306.62 548.05 308.452 548.719 311.825C549.169 314.091 545.602 315.063 545.151 312.783Z" fill="#BB5A28" fill-opacity="0.2"/>
</g>
<path fill-rule="evenodd" clip-rule="evenodd" d="M304.279 328.957C303.928 330.97 301.051 330.577 300.481 328.957C298.284 322.697 297.457 316.134 294.786 309.973C292.195 303.994 288.595 298.364 284.178 293.505C275.781 284.27 264.626 278.158 252.917 273.778C229.667 265.082 203.415 262.067 182.684 247.769C160.341 232.357 149.71 206.411 130.466 188.044C112.582 170.975 89.7505 159.699 65.754 153.261C53.5229 149.979 40.9572 147.89 28.327 146.792C15.5858 145.682 2.85279 145.89 -9.91857 146.136C-13.0293 146.197 -16.146 146.085 -19.2607 146.102C-21.0429 146.112 -21.5025 143.396 -19.6901 143.013C-6.822 140.295 6.09451 139.816 19.2267 140.297C32.2481 140.774 45.2311 142.294 57.9601 145.038C82.9142 150.415 106.953 160.563 126.768 176.462C137.175 184.809 145.715 194.737 153.513 205.4C161.679 216.565 169.344 228.294 179.866 237.556C199.467 254.812 226.605 258.522 250.658 266.853C262.695 271.023 274.398 276.496 283.879 284.993C293.931 294.001 301.053 306.22 303.961 319.213C304.321 320.824 304.763 322.544 304.856 324.192C304.944 325.748 304.545 327.419 304.279 328.957Z" fill="#552912" fill-opacity="0.2"/>
<path fill-rule="evenodd" clip-rule="evenodd" d="M13.971 164.611C25.559 165.458 37.0844 167.296 48.3579 170.04C70.2557 175.37 91.341 184.768 108.467 199.272C117.491 206.916 124.809 215.984 131.29 225.733C138.316 236.301 144.846 247.341 154.787 255.629C173.604 271.319 198.977 275.925 220.97 285.78C232.437 290.918 243.468 297.853 252.004 307.001C259.879 315.44 267.334 327.442 264.522 339.258C264.165 340.754 261.883 340.684 261.483 339.258C260.088 334.256 258.915 329.069 256.744 324.31C254.635 319.689 251.672 315.448 248.222 311.685C240.745 303.527 231.251 297.319 221.242 292.485C200.108 282.284 176.16 278.044 156.605 264.671C146.251 257.591 138.568 248.24 131.633 238.045C124.928 228.188 118.553 218.27 109.918 209.866C94.5344 194.89 74.9852 185.151 54.4019 178.827C42.3966 175.138 30.0869 172.846 17.6502 171.065C4.99374 169.252 -7.85221 168.119 -20.6316 167.653C-22.4702 167.587 -22.442 165.022 -20.6316 164.892C-9.10011 164.063 2.43342 163.769 13.971 164.611Z" fill="#552912" fill-opacity="0.2"/>
<path fill-rule="evenodd" clip-rule="evenodd" d="M99.4455 242.352C95.2684 234.738 90.7304 227.172 84.5715 220.897C77.6385 213.831 68.8991 209.298 59.3654 206.458C47.8843 203.039 35.8347 201.577 23.9988 199.824C10.9552 197.893 -1.83024 197.535 -14.8113 200C-15.9564 200.218 -16.8595 198.6 -15.66 198.036C-5.23728 193.138 6.99782 192.961 18.3056 193.865C29.577 194.766 40.9654 196.465 52.0212 198.796C62.4419 200.996 72.8988 204.384 81.5394 210.645C88.9119 215.987 94.6515 222.987 99.4657 230.554C109.243 245.924 115.471 263.972 129.123 276.718C144.451 291.03 165.814 296.327 184.361 305.365C194.149 310.134 203.56 316.344 210.846 324.369C217.686 331.904 223.637 341.915 222.119 352.299C221.837 354.229 218.763 354.019 218.321 352.299C217.222 348.013 216.218 343.614 214.337 339.57C212.485 335.587 209.953 331.912 206.997 328.629C200.703 321.637 192.804 316.19 184.428 311.811C166.762 302.57 146.801 297.697 130.706 285.648C115.801 274.493 108.086 258.093 99.4455 242.352Z" fill="#552912" fill-opacity="0.2"/>
<path fill-rule="evenodd" clip-rule="evenodd" d="M-16.2929 229.132C1.42776 227.298 19.2794 225.949 36.8711 229.551C50.9226 232.426 64.6536 238.475 75.0662 248.264C80.328 253.209 84.5374 259.05 87.5795 265.523C90.918 272.627 93.432 280.173 98.7965 286.155C108.397 296.865 122.45 302.079 134.939 308.773C141.772 312.434 148.43 316.707 153.94 322.128C159.337 327.44 163.958 333.998 164.266 341.652C164.355 343.842 161.361 343.885 160.631 342.131C158.105 336.057 154.966 330.463 150.154 325.816C145.269 321.097 139.461 317.391 133.462 314.162C121.434 307.685 108.318 302.841 98.0325 293.679C92.4945 288.748 88.6923 282.759 85.6946 276.107C82.6826 269.432 79.8824 262.746 75.0239 257.098C66.3087 246.969 53.9385 240.19 41.024 236.531C22.5736 231.305 2.73413 231.566 -16.2929 232.124C-18.3069 232.183 -18.2161 229.331 -16.2929 229.132Z" fill="#552912" fill-opacity="0.2"/>
<path fill-rule="evenodd" clip-rule="evenodd" d="M-9.08788 257.345C-0.362636 252.814 10.1327 251.312 19.755 253.757C28.8089 256.059 36.3084 261.479 42.3806 268.277C48.4891 275.119 53.2972 282.922 58.7747 290.228C64.6211 298.027 71.4836 304.74 80.4024 309.151C85.652 311.748 91.1396 313.136 96.8509 314.383C102.018 315.511 107.796 316.858 110.618 321.652C111.189 322.619 110.235 324.013 109.062 323.624C104.655 322.159 100.333 320.645 95.7663 319.688C90.9259 318.673 86.1883 317.656 81.5958 315.801C72.677 312.2 65.0263 306.416 58.8594 299.21C47.9165 286.424 40.6408 269.121 24.8716 261.029C14.9872 255.958 2.57669 255.424 -7.69684 259.664C-9.2794 260.317 -10.6967 258.182 -9.08788 257.345Z" fill="#552912" fill-opacity="0.2"/>
</svg>
