<svg width="383" height="251" viewBox="0 0 383 251" fill="none" xmlns="http://www.w3.org/2000/svg">
<mask id="mask0_60_3335" style="mask-type:alpha" maskUnits="userSpaceOnUse" x="-163" y="-51" width="546" height="302">
<path d="M-163 -51H382.387V250.993H-163V-51Z" fill="white"/>
</mask>
<g mask="url(#mask0_60_3335)">
<path fill-rule="evenodd" clip-rule="evenodd" d="M378.78 -61.7904C378.465 -60.2054 376.149 -59.3688 374.844 -58.7167C373.052 -57.8211 371.228 -57.01 369.53 -55.9475C364.514 -52.811 359.831 -49.5979 354.428 -47.0879C351.969 -45.9448 349.491 -44.8371 347.072 -43.6175C344.395 -42.2682 341.893 -40.587 339.121 -39.4263C334.01 -37.2856 328.795 -35.9265 323.878 -33.3006C313.524 -27.77 304.129 -20.5267 293.495 -15.5323C288.437 -13.1558 283.973 -10.4239 279.437 -7.20885C274.73 -3.87398 269.889 -1.02815 264.833 1.75877C255.217 7.05567 246.917 14.3205 237.232 19.5094C227.342 24.8083 217.342 29.8283 208.329 36.5157C204.799 39.1357 201.271 41.9442 198.664 45.4813C196.436 48.502 196.049 52.4143 193.58 55.2542C185.731 64.2788 175.387 71.2588 167.924 80.6134C166.317 82.6265 164.967 84.8026 163.481 86.8962C161.894 89.1293 159.947 91.0108 158.042 92.9787C154.227 96.9224 150.927 101.241 147.349 105.379C139.704 114.221 131.297 122.447 124.191 131.726C121.103 135.759 118.256 140.945 113.954 143.884C110.686 146.119 106.329 145.588 103.1 148.193C101.271 149.668 100.027 151.154 97.6222 151.795C95.5255 152.354 93.314 152.596 91.1911 153.087C85.4052 154.426 79.5588 154.835 73.8878 156.712C68.618 158.458 63.5719 160.77 58.3707 162.689C53.3871 164.527 48.4681 165.59 43.2043 166.293C38.3014 166.947 34.4629 169.321 30.066 171.344C24.8022 173.764 19.0224 174.952 13.5167 176.739C8.09161 178.497 3.20282 180.777 -1.89565 183.248C-4.55878 184.54 -7.31062 185.515 -10.2923 185.772C-13.1973 186.019 -16.1205 185.803 -19.0236 186.094C-24.4628 186.638 -29.5713 188.366 -35.0851 188.394C-40.8044 188.421 -46.4714 189.205 -52.0739 190.287C-63.7748 192.544 -75.1369 195.456 -86.2773 199.624C-96.7888 203.556 -107.536 206.952 -117.973 211.048C-139.379 219.452 -159.001 231.466 -177.929 244.207C-182.517 247.294 -187.069 250.433 -191.607 253.587C-192.912 254.494 -191.686 256.607 -190.337 255.708C-171.115 242.869 -151.598 230.404 -130.557 220.546C-119.856 215.532 -108.764 212.076 -97.6476 208.118C-86.87 204.281 -76.2961 199.814 -65.0569 197.369C-59.1259 196.079 -53.1867 194.726 -47.1851 193.779C-41.2661 192.844 -35.3169 193.268 -29.4221 192.465C-27.0694 192.145 -24.7631 191.601 -22.4367 191.151C-19.2332 190.529 -16.0984 190.487 -12.8445 190.434C-7.32674 190.346 -2.64963 188.845 2.21902 186.398C12.418 181.266 23.885 179.733 34.1182 174.797C36.3902 173.701 38.5876 172.32 41.0492 171.662C43.4603 171.018 45.9884 170.953 48.4479 170.576C53.9516 169.736 59.1771 167.807 64.3179 165.78C69.4486 163.757 74.541 161.571 79.9258 160.248C82.6695 159.572 85.4677 159.23 88.2578 158.796C91.1024 158.356 93.8583 157.565 96.6989 157.131C98.7209 156.824 100.68 156.328 102.481 155.332C104.608 154.155 105.944 152.028 108.216 151.105C109.867 150.434 111.68 150.284 113.377 149.772C115.401 149.161 117.115 148.081 118.673 146.694C122.526 143.263 125.36 138.756 128.443 134.696C132.064 129.929 136.132 125.485 140.184 121.066C144.198 116.69 148.262 112.354 152.111 107.836C155.735 103.58 159.195 99.289 163.118 95.2766C166.848 91.4625 169.309 86.8864 172.813 82.9309C176.774 78.4608 181.397 74.4386 185.715 70.2965C189.913 66.2703 194.705 62.3875 198.295 57.8251C200.612 54.881 200.995 51.0591 203.265 48.0993C205.998 44.5347 209.895 41.6928 213.57 39.114C218.437 35.6987 223.558 32.6466 228.777 29.7713C233.865 26.9687 239.151 24.4842 244.097 21.4479C248.842 18.5333 253.316 15.2318 257.894 12.0855C262.549 8.88612 267.418 6.23473 272.321 3.43602C277.332 0.576439 281.846 -2.96269 286.596 -6.20132C291.053 -9.24356 296.142 -11.1015 300.859 -13.6979C306.032 -16.5457 310.893 -19.9827 315.923 -23.0662C320.949 -26.1497 326.099 -29.5297 331.591 -31.7746C334.105 -32.7998 336.73 -33.5402 339.262 -34.5183C342.06 -35.5985 344.546 -37.0538 347.147 -38.5111C352.047 -41.2587 357.329 -43.3032 362.228 -46.0509C366.686 -48.553 370.55 -51.9056 375.135 -54.1995C377.987 -55.6273 381.679 -57.4598 382.348 -60.8319C382.798 -63.0984 379.231 -64.0706 378.78 -61.7904Z" fill="#BB5A28" fill-opacity="0.2"/>
</g>
</svg>
