<svg width="636" height="400" viewBox="0 0 636 400" fill="none" xmlns="http://www.w3.org/2000/svg">
<mask id="mask0_60_3323" style="mask-type:alpha" maskUnits="userSpaceOnUse" x="-1" y="31" width="668" height="370">
<path d="M666.181 31.1216L0 31.1216L3.22484e-05 400L666.181 400L666.181 31.1216Z" fill="white"/>
</mask>
<g mask="url(#mask0_60_3323)">
<path fill-rule="evenodd" clip-rule="evenodd" d="M4.40656 17.9416C4.79071 19.8775 7.62012 20.8995 9.21338 21.696C11.4025 22.7899 13.631 23.7807 15.7045 25.0786C21.8312 28.9097 27.5516 32.8345 34.1512 35.9004C37.1554 37.2966 40.1819 38.6497 43.1369 40.1394C46.4071 41.7875 49.4631 43.8411 52.8491 45.2589C59.0915 47.8738 65.462 49.5339 71.4681 52.7413C84.1155 59.4969 95.5908 68.3444 108.581 74.445C114.759 77.3478 120.211 80.6848 125.752 84.6119C131.502 88.6854 137.414 92.1616 143.59 95.5657C155.336 102.036 165.474 110.91 177.304 117.248C189.385 123.72 201.599 129.852 212.609 138.021C216.921 141.221 221.231 144.652 224.415 148.972C227.136 152.662 227.608 157.441 230.625 160.909C240.212 171.933 252.847 180.459 261.963 191.885C263.926 194.344 265.575 197.002 267.39 199.56C269.328 202.287 271.707 204.586 274.034 206.989C278.693 211.806 282.724 217.082 287.095 222.137C296.433 232.937 306.702 242.984 315.382 254.319C319.155 259.244 322.632 265.58 327.887 269.169C331.878 271.899 337.2 271.251 341.145 274.432C343.378 276.234 344.898 278.05 347.836 278.832C350.397 279.516 353.098 279.811 355.691 280.41C362.758 282.047 369.9 282.546 376.827 284.839C383.264 286.972 389.427 289.795 395.781 292.139C401.868 294.385 407.876 295.682 414.306 296.541C420.295 297.34 424.983 300.241 430.354 302.711C436.784 305.667 443.844 307.118 450.569 309.302C457.196 311.449 463.167 314.234 469.395 317.252C472.648 318.83 476.009 320.02 479.651 320.334C483.2 320.637 486.77 320.373 490.316 320.728C496.96 321.392 503.2 323.504 509.935 323.537C516.921 323.571 523.843 324.528 530.687 325.85C544.979 328.606 558.858 332.164 572.466 337.255C585.305 342.057 598.433 346.205 611.181 351.209C637.328 361.475 661.296 376.149 684.416 391.712C690.021 395.483 695.581 399.316 701.124 403.169C702.718 404.278 701.22 406.859 699.573 405.76C676.093 390.078 652.253 374.852 626.552 362.811C613.481 356.686 599.932 352.464 586.354 347.63C573.19 342.943 560.274 337.487 546.545 334.501C539.301 332.924 532.046 331.271 524.715 330.115C517.485 328.973 510.218 329.491 503.018 328.51C500.144 328.119 497.327 327.455 494.485 326.905C490.572 326.145 486.743 326.094 482.769 326.03C476.029 325.922 470.316 324.089 464.369 321.1C451.911 314.831 437.904 312.958 425.405 306.929C422.629 305.59 419.945 303.904 416.938 303.1C413.993 302.313 410.905 302.234 407.901 301.773C401.178 300.747 394.796 298.391 388.516 295.915C382.249 293.444 376.029 290.774 369.451 289.157C366.1 288.332 362.682 287.914 359.274 287.384C355.799 286.847 352.433 285.88 348.963 285.35C346.493 284.976 344.1 284.369 341.901 283.152C339.303 281.715 337.67 279.117 334.895 277.99C332.878 277.169 330.664 276.987 328.591 276.361C326.119 275.615 324.026 274.295 322.122 272.602C317.416 268.411 313.954 262.905 310.189 257.946C305.766 252.124 300.797 246.695 295.847 241.297C290.944 235.952 285.98 230.655 281.279 225.138C276.851 219.939 272.626 214.697 267.834 209.796C263.278 205.137 260.271 199.548 255.991 194.716C251.152 189.256 245.506 184.343 240.231 179.283C235.104 174.365 229.251 169.623 224.865 164.05C222.036 160.454 221.568 155.785 218.795 152.17C215.456 147.816 210.696 144.344 206.207 141.195C200.262 137.023 194.007 133.295 187.632 129.783C181.417 126.359 174.96 123.324 168.919 119.616C163.123 116.056 157.658 112.023 152.066 108.18C146.38 104.272 140.433 101.033 134.444 97.6145C128.323 94.1215 122.809 89.7986 117.007 85.8426C111.563 82.1266 105.347 79.8571 99.585 76.6857C93.2662 73.2071 87.3291 69.0089 81.1851 65.2425C75.0461 61.4761 68.7544 57.3474 62.0466 54.6053C58.9758 53.3531 55.7695 52.4487 52.6766 51.254C49.2587 49.9345 46.2225 48.1569 43.0458 46.3768C37.0595 43.0206 30.6076 40.5233 24.6237 37.1671C19.1791 34.1108 14.4585 30.0157 8.8587 27.2137C5.37427 25.4696 0.865418 23.2313 0.0478518 19.1123C-0.501282 16.3438 3.85498 15.1563 4.40656 17.9416Z" fill="#BB5A28" fill-opacity="0.2"/>
</g>
<path fill-rule="evenodd" clip-rule="evenodd" d="M298.627 -1.81423C299.056 -4.2732 302.57 -3.7934 303.267 -1.81423C305.951 5.83136 306.961 13.8488 310.223 21.3744C313.388 28.677 317.786 35.5549 323.181 41.49C333.437 52.77 347.062 60.2357 361.365 65.5854C389.765 76.2082 421.832 79.8906 447.154 97.3553C474.446 116.18 487.43 147.873 510.938 170.309C532.782 191.158 560.67 204.931 589.982 212.795C604.922 216.803 620.27 219.356 635.698 220.697C651.261 222.052 666.814 221.798 682.414 221.498C686.214 221.424 690.021 221.561 693.826 221.539C696.002 221.527 696.564 224.845 694.35 225.313C678.632 228.633 662.855 229.218 646.814 228.631C630.909 228.048 615.05 226.191 599.502 222.839C569.021 216.271 539.658 203.875 515.454 184.455C502.742 174.26 492.311 162.133 482.786 149.109C472.81 135.47 463.448 121.144 450.596 109.83C426.653 88.7525 393.505 84.2208 364.125 74.0443C349.422 68.9512 335.127 62.2652 323.545 51.8872C311.267 40.883 302.567 25.9589 299.016 10.0872C298.576 8.12 298.036 6.01848 297.923 4.00573C297.815 2.10572 298.302 0.0641825 298.627 -1.81423Z" fill="#BB5A28" fill-opacity="0.2"/>
<path fill-rule="evenodd" clip-rule="evenodd" d="M653.233 198.93C639.079 197.897 625.001 195.651 611.23 192.3C584.483 185.789 558.727 174.31 537.808 156.593C526.786 147.256 517.847 136.18 509.93 124.271C501.348 111.362 493.372 97.8778 481.23 87.754C458.245 68.5885 427.251 62.9628 400.388 50.9247C386.381 44.6489 372.906 36.1781 362.48 25.0036C352.862 14.6951 343.755 0.0348715 347.19 -14.3975C347.626 -16.2255 350.414 -16.1391 350.901 -14.3975C352.605 -8.28723 354.039 -1.95149 356.691 3.86127C359.267 9.50609 362.886 14.6855 367.1 19.282C376.233 29.2474 387.829 36.8306 400.056 42.7345C425.87 55.1949 455.122 60.3743 479.008 76.709C491.656 85.3574 501.041 96.779 509.512 109.232C517.702 121.273 525.488 133.388 536.035 143.653C554.827 161.945 578.706 173.842 603.848 181.567C618.512 186.072 633.548 188.872 648.739 191.047C664.199 193.262 679.89 194.646 695.5 195.214C697.746 195.296 697.711 198.429 695.5 198.587C681.414 199.6 667.326 199.96 653.233 198.93Z" fill="#BB5A28" fill-opacity="0.2"/>
<path fill-rule="evenodd" clip-rule="evenodd" d="M548.828 103.972C553.93 113.273 559.473 122.514 566.996 130.178C575.465 138.81 586.14 144.347 597.785 147.816C611.809 151.992 626.527 153.777 640.985 155.92C656.917 158.278 672.535 158.714 688.391 155.704C689.789 155.437 690.893 157.414 689.427 158.103C676.696 164.086 661.751 164.302 647.939 163.198C634.171 162.097 620.26 160.022 606.756 157.174C594.027 154.487 581.254 150.349 570.7 142.701C561.695 136.176 554.684 127.626 548.803 118.383C536.86 99.608 529.253 77.5637 512.577 61.9942C493.855 44.5128 467.76 38.0427 445.105 27.0025C433.149 21.1778 421.654 13.5922 412.755 3.78988C404.399 -5.41506 397.13 -17.6427 398.984 -30.3262C399.329 -32.6844 403.084 -32.4277 403.624 -30.3262C404.966 -25.0916 406.192 -19.7178 408.49 -14.7783C410.753 -9.91317 413.845 -5.42465 417.456 -1.41354C425.143 7.12687 434.792 13.7793 445.023 19.129C466.602 30.4163 490.984 36.3682 510.644 51.086C528.85 64.7123 538.274 84.7439 548.828 103.972Z" fill="#BB5A28" fill-opacity="0.2"/>
<path fill-rule="evenodd" clip-rule="evenodd" d="M690.201 120.119C668.555 122.36 646.75 124.008 625.262 119.608C608.098 116.096 591.326 108.707 578.607 96.7504C572.18 90.7098 567.038 83.5752 563.322 75.6681C559.244 66.9909 556.174 57.774 549.621 50.4667C537.894 37.385 520.728 31.0157 505.473 22.8399C497.128 18.3682 488.994 13.148 482.264 6.52675C475.672 0.0374754 470.028 -7.97276 469.651 -17.3216C469.543 -19.9965 473.199 -20.0493 474.091 -17.907C477.176 -10.4869 481.01 -3.65457 486.889 2.02144C492.855 7.78622 499.95 12.3131 507.278 16.2571C521.969 24.1689 537.99 30.0848 550.554 41.2761C557.319 47.3 561.963 54.6146 565.625 62.7399C569.304 70.8941 572.724 79.0603 578.659 85.9598C589.304 98.3314 604.414 106.613 620.189 111.082C642.726 117.466 666.96 117.147 690.201 116.465C692.661 116.393 692.55 119.877 690.201 120.119Z" fill="#BB5A28" fill-opacity="0.2"/>
<path fill-rule="evenodd" clip-rule="evenodd" d="M681.399 85.6581C670.741 91.1925 657.922 93.0278 646.168 90.041C635.109 87.2294 625.948 80.6082 618.531 72.3053C611.07 63.9472 605.197 54.416 598.506 45.4917C591.365 35.9653 582.982 27.7656 572.088 22.3775C565.676 19.206 558.973 17.5099 551.997 15.9865C545.685 14.6095 538.628 12.9638 535.18 7.10787C534.483 5.92757 535.648 4.22429 537.081 4.69929C542.464 6.48893 547.744 8.33856 553.322 9.50686C559.234 10.7471 565.021 11.9898 570.631 14.2545C581.525 18.6542 590.87 25.7193 598.403 34.5212C611.769 50.1386 620.656 71.2737 639.918 81.1576C651.992 87.3518 667.151 88.0043 679.7 82.8249C681.633 82.0284 683.364 84.6361 681.399 85.6581Z" fill="#BB5A28" fill-opacity="0.2"/>
</svg>
