<svg width="382" height="260" viewBox="0 0 382 260" fill="none" xmlns="http://www.w3.org/2000/svg">
<mask id="mask0_60_3251" style="mask-type:alpha" maskUnits="userSpaceOnUse" x="0" y="0" width="382" height="260">
<path d="M0 0H382V259.285H0V0Z" fill="white"/>
</mask>
<g mask="url(#mask0_60_3251)">
<path fill-rule="evenodd" clip-rule="evenodd" d="M30.6757 165.246C36.0668 171.859 42.0021 178.024 47.805 184.294C40.3181 177.822 31.9997 171.534 23.2509 167.649C13.9373 163.511 6.13606 157.646 -3.67605 154.299C-9.692 152.247 -15.861 152.723 -22.0156 152.511C-18.0622 148.297 -13.9288 144.23 -9.81612 140.284C-5.45932 136.104 -0.707386 132.381 3.82113 128.405C10.8859 141.827 21.0166 153.402 30.6757 165.246ZM369.79 2.41848C359.616 3.97033 349.335 4.48224 339.163 6.1389C318.568 9.49655 297.812 12.4693 277.332 16.4638C267.952 18.2938 258.576 20.418 249.147 21.99C238.265 23.8059 227.321 23.7857 216.502 26.1095C195.589 30.5998 175.199 36.9422 155.08 44.0687C139.581 49.5586 123.931 55.4335 108.868 61.9996C92.4301 69.1664 77.4503 78.7234 61.2457 86.3396C53.7278 89.8706 45.7466 92.2145 38.0922 95.4129C24.7466 100.99 11.7858 108.739 -0.0681419 116.861C-17.9691 129.126 -32.8972 144.699 -47.5089 160.432L-47.7344 187.545C-45.6718 182.978 -42.2377 179.058 -39.3642 174.959C-36.77 171.256 -34.3992 167.407 -31.6663 163.797C-30.4334 162.171 -29.1114 160.593 -27.7853 159.017C-23.3044 163.61 -17.7643 167.113 -12.3276 171.476C-2.12862 179.661 6.81048 189.159 16.2337 198.136C20.1622 201.88 24.5418 205.129 29.1138 208.09C37.4281 213.471 45.4962 219.676 54.7332 223.435C64.3488 227.349 73.592 232 83.1435 236.033C85.4522 237.011 87.8478 238.075 90.2828 239.119C93.7562 242.414 97.4448 245.485 101.471 248.24C105.312 250.868 109.326 253.358 113.393 255.641C115.749 256.965 118.983 259.261 121.873 259.285C127.34 259.331 125.321 255.155 123.484 251.91C119.812 245.429 116.918 238.484 113.058 232.083C107 222.044 99.6067 213.543 92.0516 204.615C83.8179 194.885 76.9062 184.076 69.3531 173.846C64.6322 167.453 58.7404 161.844 53.7278 155.627C50.3661 151.457 47.0912 147.102 42.7572 143.849C39.261 141.225 36.4889 138.006 33.1106 135.243C29.7944 132.532 26.0354 131.841 22.2868 129.919C18.3666 127.905 14.0925 125.821 10.5549 123.215C10.4205 123.117 10.3129 123.036 10.1826 122.939C12.8968 121.053 15.8489 119.648 18.7472 117.75C22.08 115.565 25.4003 113.285 28.6876 110.96C28.8489 112.854 29.0786 114.932 30.0013 116.302C31.7576 118.91 36.7392 121.043 39.1969 122.929C50.4985 131.603 61.0036 141.299 72.2039 150.121C81.7036 157.604 91.0648 165.196 101.069 172.044C110.004 178.161 119.897 180.906 129.554 185.63C136.884 189.218 143.384 193.696 150.976 196.862C156.686 199.246 162.385 201.661 168.066 204.109C173.753 206.562 179.519 208.755 185.303 210.974C187.835 211.945 191.718 214.289 194.101 214.352C194.072 211.875 190.655 209.902 189.056 208.41C182.239 202.05 175.594 195.693 168.002 190.211C160.341 184.681 153.262 178.733 146.936 171.748C142.111 166.421 137.908 160.867 132.016 156.588C123.408 150.336 116.43 142.928 108.738 135.822C105.916 133.216 102.865 130.926 100.165 128.199C97.5234 125.531 95.4857 125.027 92.1984 123.53C88.9443 122.044 86.1535 120.259 82.6139 119.295C79.1239 118.346 76.2338 116.448 72.7128 115.67C68.6063 114.763 64.415 114.793 60.3416 113.697C56.4627 112.653 53.0245 111.971 49.0338 111.542C43.5206 110.952 38.6838 109.057 33.6278 107.411C35.7627 105.855 37.8832 104.291 39.9706 102.717C42.5069 100.804 44.9977 99.877 47.6767 98.4138C54.1498 94.8788 59.8327 91.2027 66.8169 88.5424C71.4488 86.7769 76.0849 85.0235 80.7148 83.252C84.0061 91.493 87.1362 99.8186 90.591 107.991C93.4893 114.843 98.1544 119.769 102.476 125.722C106.837 131.734 111.14 138.014 116.641 143.158C123.526 149.591 131.466 154.793 139.196 160.149C149.526 167.308 158.726 175.845 170.391 180.942C183.309 186.585 195.922 189.659 209.714 192.462C213.527 193.236 223.004 197.537 226.246 193.903C225.807 192.553 224.632 192.684 223.674 191.791C221.626 189.891 219.832 187.688 217.927 185.612C213.363 180.644 208.417 176.117 203.247 171.75C190.779 161.22 178.215 150.836 165.937 140.092C149.776 125.952 136.426 108.08 117.917 96.7874C110.811 92.4503 103.947 87.3735 96.6545 83.3951C94.2051 82.0589 92.126 80.9544 90.0221 80.4244C91.1847 80.4284 92.3888 80.6824 93.81 81.3112C101.274 84.6084 107.917 88.4275 114.758 92.6075C118.292 94.766 122.284 94.6672 125.814 97.13C128.083 98.7141 129.883 101.181 132.123 102.576C135.076 104.414 138.243 105.48 141.139 107.584C143.731 109.468 146.427 112.149 149.06 113.693C154.443 116.845 159.278 120.23 165.265 122.123C169.68 123.518 174.938 126.196 178.95 128.353C182.525 130.273 186.734 131.089 190.417 132.95C193.652 134.584 195.634 135.906 199.244 136.755C202.78 137.585 205.875 139.133 209.34 140.147C212.308 141.013 215.494 141.34 218.544 141.842C222.807 142.547 226.382 144.312 230.52 145.129C243.95 147.777 258.603 148.482 272.3 148.242C275.627 148.184 281.69 149.389 284.694 147.68C285.76 147.074 285.815 145.663 287.092 145.01C284.963 143.347 281.614 142.585 279.229 141.314C274.191 138.627 269.205 135.747 264.354 132.758C250.684 124.334 236.176 116.847 221.715 109.791C211.338 104.726 200.167 101.717 189.36 97.6762C177.483 93.2363 167.046 86.6359 155.713 81.1278C147.335 77.0547 138.52 74.5999 129.962 71.0206C128.861 70.5611 127.407 69.6521 125.905 69.0555C130.634 68.7935 135.156 67.7113 140.129 68.7512C145.37 69.8496 149.555 70.1096 154.855 70.1741C161.03 70.2487 166.467 72.9735 172.007 75.3315C182.866 79.9548 193.385 83.8083 204.791 86.9382C211.946 88.9012 218.732 91.239 226.229 91.5131C233.19 91.7671 238.613 91.9686 245.365 93.5567C257.6 96.4367 269.123 93.8308 281.535 94.2944C296.298 94.8466 309.995 95.9409 324.638 93.1859C332.962 91.6199 341.591 90.5236 349.841 88.7319C351.461 88.3792 358.381 86.9301 358.954 85.0578C354.459 80.6118 347.158 79.5779 341.206 78.4896C332.154 76.837 323.417 74.6644 314.505 72.4878C307.099 70.6779 300.202 68.5396 293.066 65.9518C284.574 62.8743 275.35 61.9956 266.605 59.8008C254.468 56.7556 243.78 57.5093 231.252 58.3175C219.545 59.0713 207.66 57.3924 195.932 57.2272C183.9 57.0579 172.106 55.3529 160.11 54.5326C156.506 54.2867 152.801 53.7083 149.331 54.5185C152.521 53.5612 155.877 53.0997 159.137 52.36C167.611 50.4333 176.351 50.2559 184.784 48.0692C189.883 46.7451 194.947 44.9192 200.229 44.4516C203.597 44.1553 206.981 44.51 210.339 43.9921C216.756 42.9985 221.339 41.2209 228.002 42.0956C236.312 43.1899 245.005 42.4342 253.442 42.8554C261.857 43.2746 269.741 41.8255 278.01 40.8964C283.71 40.2575 288.929 39.8787 294.521 38.3711C298.023 37.4259 301.453 37.96 305.047 37.7867C312.612 37.4199 319.114 32.1355 325.61 29.1668C328.366 27.9072 331.43 27.3086 334.189 26.0671C337.367 24.6402 339.75 22.1069 342.485 20.0411C347.582 16.1917 353.547 15.0187 359.207 12.2798C362.175 10.8448 364.834 8.9403 367.9 7.66657C370.082 6.75964 372.567 6.26184 374.693 5.21988C376.251 4.45806 382.122 1.50147 382 0C377.968 0.304325 373.804 1.80781 369.79 2.41848Z" fill="#CCB26A" fill-opacity="0.2"/>
</g>
</svg>
