<svg width="407" height="392" viewBox="0 0 407 392" fill="none" xmlns="http://www.w3.org/2000/svg">
<path fill-rule="evenodd" clip-rule="evenodd" d="M13.9393 89.0677C14.7548 88.2275 15.1723 87.6716 15.7094 87.2664C17.4339 85.9658 19.1562 84.6525 20.9611 83.4644C32.8781 75.6142 45.8584 69.7668 59.0996 64.4563C64.8558 62.1458 70.7925 60.266 76.564 57.9915C85.9496 54.2913 95.742 52.229 105.743 51.3231C114.739 50.5084 123.797 50.3132 132.828 49.8634C133.098 49.8506 133.38 50.0352 134.004 50.2453C133.08 50.6229 132.519 50.8924 131.93 51.0876C124.256 53.6209 116.927 56.9498 109.627 60.3487C103.638 63.1366 97.5404 65.6784 91.11 67.3821C74.3742 71.8142 58.6038 78.3999 44.0404 87.625C42.2441 88.7643 40.4762 89.1717 38.3603 89.1208C31.5755 88.9595 24.7863 88.9722 17.9971 88.9362C16.8207 88.9298 15.642 89.0104 13.9393 89.0677ZM47.8503 89.2099C48.307 88.7664 48.481 88.4991 48.7289 88.3718C53.4565 85.9764 58.1058 83.4113 62.9465 81.2536C72.156 77.1439 81.757 74.0865 91.5493 71.5511C95.6811 70.4818 99.7846 69.16 103.716 67.5285C110.925 64.5369 117.982 61.1952 125.13 58.0615C132.817 54.6944 140.724 51.9044 148.916 49.9652C151.093 49.4496 153.385 49.142 155.62 49.1632C180.215 49.3881 204.706 50.9476 228.996 54.9045C229.772 55.0297 230.54 55.2058 231.312 55.3564C231.329 55.5643 231.347 55.7722 231.366 55.9802C230.225 56.2984 229.083 56.6209 227.939 56.9328C225.839 57.5014 223.729 58.053 221.631 58.6344C213.826 60.7985 206.582 64.3756 199.036 67.189C193.382 69.2958 187.62 71.1565 181.826 72.8708C175.872 74.6318 169.794 75.9918 163.816 77.6828C150.429 81.4721 137.49 86.3477 125.184 92.8125C116.997 97.111 108.909 101.535 101.492 107.04C99.7737 108.316 98.0101 109.529 96.2204 110.806C95.4527 110.27 94.7895 109.83 94.1545 109.355C91.7124 107.535 89.2746 105.71 86.8456 103.875C75.9486 95.6491 63.6968 90.7672 49.9292 89.6151C49.3356 89.5642 48.755 89.3902 47.8503 89.2099ZM98.632 112.502C99.1648 112.037 99.3736 111.795 99.6367 111.636C104.036 108.988 108.313 106.115 112.874 103.762C121.298 99.4172 129.833 95.263 138.423 91.2361C149.555 86.0167 161.361 82.5945 173.271 79.5881C184.81 76.6771 196.168 73.2824 207.08 68.6105C216.372 64.6324 225.895 61.3968 235.811 59.29C241.044 58.1782 246.278 57.2617 251.61 58.8763C253.3 59.3876 255.096 59.5637 256.842 59.9031C273.511 63.1493 290.072 66.8177 306.193 72.1686C307 72.438 307.787 72.7647 309.048 73.24C308.07 73.6198 307.598 73.868 307.091 73.9868C301.2 75.3829 295.283 76.6729 289.416 78.1559C277.94 81.0541 266.889 85.115 256.394 90.4744C248.668 94.4186 241.181 98.8083 233.556 102.943C225.012 107.575 216.475 112.219 207.854 116.713C200.704 120.441 193.735 124.396 187.824 129.891C185.541 132.013 183.333 134.211 181.052 136.334C177.782 139.383 174.109 141.934 170.425 144.577C169.905 144.204 169.499 143.96 169.146 143.654C162.672 138.002 155.224 133.931 147.211 130.773C138.262 127.249 128.946 124.852 119.713 122.198C116.764 121.351 113.811 120.509 110.91 119.522C106.439 118.005 102.544 115.5 98.632 112.502ZM172.865 147.146C173.946 146.342 174.748 145.704 175.596 145.127C179.778 142.286 183.844 139.307 187.415 135.734C193.408 129.738 200.563 125.359 208.059 121.396C219.704 115.241 231.353 109.084 242.835 102.644C255.916 95.3076 269.396 88.9065 283.838 84.5485C288.32 83.1949 292.793 81.7925 297.338 80.6701C303.368 79.1807 309.455 77.9034 315.537 76.6347C316.677 76.3971 318.121 76.2549 319.067 76.7365C320.591 77.5109 322.235 77.7762 323.775 78.3851C332.693 81.9198 341.591 85.5033 350.49 89.0868C350.979 89.2841 351.405 89.63 352.021 90.0055C351.24 90.5126 350.666 90.9327 350.048 91.2806C343.551 94.9596 336.973 98.507 330.56 102.322C314.874 111.651 299.773 121.773 286.323 134.075C274.826 144.588 263.27 155.041 251.871 165.654C244.666 172.358 237.999 179.559 232.393 187.634C231.908 188.335 231.349 188.986 230.847 189.629C230.327 189.491 230.007 189.438 229.712 189.321C221.322 185.971 213.041 182.39 205.099 178.102C200.826 175.795 196.805 173.114 193.506 169.596C186.637 162.266 179.902 154.814 172.865 147.146ZM233.715 190.815C234.037 190.248 234.224 189.818 234.498 189.448C239.48 182.727 244.858 176.322 250.897 170.479C264.275 157.536 278.266 145.235 292.819 133.583C312.312 117.976 334.165 105.808 355.811 93.3662C357.668 92.299 359.308 92.4263 361.046 94.0706C360.369 94.8387 359.732 95.4455 359.236 96.1499C357.818 98.157 356.116 100.058 355.144 102.262C352.362 108.562 349.455 114.859 347.38 121.394C342.163 137.824 337.41 154.392 332.399 170.886C330.629 176.71 328.859 182.547 326.724 188.248C323.586 196.622 318.649 204.003 313.06 211.043C308.65 216.595 303.257 220.767 296.936 223.996C295.315 224.821 294.106 224.776 292.708 223.849C288.629 221.146 284.451 218.579 280.456 215.761C266.697 206.055 252.315 197.475 236.238 191.863C235.418 191.576 234.633 191.199 233.715 190.815ZM298.934 226.671C300.2 225.973 301.028 225.502 301.87 225.05C306.143 222.759 310.136 220.066 313.478 216.595C321.561 208.206 327.87 198.65 331.643 187.749C336.533 173.619 340.956 159.333 345.525 145.099C349.757 131.923 353.276 118.512 359.212 105.901C360.404 103.37 361.715 100.945 363.649 98.8826C364.001 98.507 364.477 98.2418 364.999 97.8493C365.28 98.3522 365.503 98.6725 365.647 99.0226C367.748 104.153 369.898 109.264 371.919 114.424C377.453 128.558 381.304 143.13 383.683 158.079C385.56 169.876 388.346 181.473 392.021 192.856C396.307 206.14 402.083 218.827 408.363 231.313C411.151 236.857 414.128 242.272 418.345 246.923C422.735 251.768 427.224 256.532 431.671 261.329C432.253 261.957 432.849 262.574 433.756 263.527C432.688 263.879 432.103 264.123 431.492 264.263C422.263 266.4 413.056 266.185 403.877 263.97C397.059 262.324 390.79 259.411 384.738 256.005C378.569 252.536 372.399 249.065 366.234 245.586C358.884 241.436 351.055 238.527 342.72 236.938C334.861 235.44 326.991 233.999 319.138 232.48C313.18 231.328 307.289 229.919 301.596 227.815C300.815 227.526 300.065 227.159 298.934 226.671ZM420.093 242.263C418.743 240.723 417.653 238.909 416.722 237.084C411.888 227.626 407.01 218.189 402.961 208.365C397.42 194.918 393.163 181.117 390.662 166.819C389.505 160.212 388.435 153.59 387.28 146.983C385.164 134.875 381.448 123.203 377.005 111.74C375.689 108.347 374.172 105.027 372.765 101.668C372.478 100.983 372.273 100.264 371.977 99.4109C377.679 100.656 423.825 128.353 426.747 132.127C425.995 133.356 425.021 134.486 424.555 135.789C422.811 140.684 421.881 145.761 422.616 150.925C423.477 156.963 425.279 162.802 427.68 168.431C431.945 178.424 437.477 187.808 442.492 197.439C444.908 202.081 447.582 206.585 449.159 211.611C450.699 216.517 452.48 221.35 454.054 226.245C454.754 228.422 455.52 230.647 455.72 232.896C456.929 246.43 451.112 255.806 437.675 261.889C431.775 255.324 425.871 248.845 420.093 242.263ZM389.283 99.6591C388.665 99.309 388.08 98.908 387.478 98.5325C387.508 98.367 387.539 98.2015 387.569 98.036C388.346 98.0573 389.124 98.0488 389.901 98.106C392.719 98.3097 395.535 98.6683 398.358 98.7319C418.025 99.1796 437.512 101.588 456.996 103.919C478.066 106.442 498.64 111.379 519.112 116.722C522.15 117.515 525.114 118.608 528.067 119.681C533.749 121.75 539.399 123.904 545.064 126.019C546.027 126.377 546.995 126.719 548.115 127.126C547.4 129.549 546.158 131.51 544.275 132.878C541.959 134.559 539.503 136.131 536.92 137.374C532.053 139.721 526.795 139.805 521.495 139.354C510.977 138.458 500.752 136.254 490.666 133.222C482.326 130.714 473.91 128.423 465.456 126.318C461.324 125.289 457.046 124.631 452.795 124.285C446.575 123.78 440.337 123.774 434.628 126.952C434.243 127.167 433.547 127.018 433.067 126.848C432.551 126.664 432.121 126.256 431.655 125.942C417.862 116.673 403.783 107.84 389.283 99.6591ZM546.345 121.782C536.757 117.566 527.291 113.055 517.103 110.287C503.224 106.514 489.248 103.09 475.048 100.737C452.467 96.9922 429.674 94.9999 406.815 93.7375C396.888 93.188 386.956 92.7425 377.025 92.2608C375.32 92.1781 373.721 91.8895 372.484 90.5423C372.732 90.2728 372.869 90.0691 373.056 89.9312C373.376 89.6936 373.724 89.492 374.067 89.2862C381.541 84.7946 389.59 81.5061 397.786 78.54C407.095 75.1707 415.779 70.6834 423.709 64.853C426.354 62.9096 428.976 60.9088 431.399 58.715C436.677 53.9306 440.745 48.3188 442.848 41.4891C443.183 41.5125 443.442 41.4743 443.648 41.557C444.847 42.0323 446.045 42.516 447.224 43.0379C457.342 47.5274 466.921 52.9525 476.185 58.9251C483.574 63.6903 491.403 67.6048 499.695 70.66C503.024 71.8864 506.33 73.1933 509.572 74.6233C519.484 78.9961 528.361 84.8328 535.694 92.7467C541.943 99.4936 546.162 107.316 548.339 116.162C548.846 118.217 549.224 120.316 548.809 122.83C547.798 122.401 547.067 122.1 546.345 121.782ZM437.71 43.0273C437.49 43.5365 437.24 44.0351 436.959 44.5146C434.43 48.8683 431.427 52.8698 427.548 56.1775C420.382 62.2879 412.44 67.2823 403.814 71.1586C397.723 73.8956 391.445 76.2294 385.275 78.8052C379.699 81.1348 374.217 83.6468 369.272 87.1455C367.156 88.6434 367.113 88.6073 364.618 86.7954C366.234 82.3844 367.68 77.7846 369.585 73.3758C372.649 66.2788 375.25 59.1266 375.592 51.321C375.95 43.1143 376.396 34.9247 374.167 26.4486C375.03 26.5398 375.592 26.5313 376.113 26.665C388.265 29.7499 400.634 31.7082 413.038 33.5074C420.724 34.6234 428.33 36.1404 435.713 38.5845C438.71 39.5754 438.969 40.127 437.71 43.0273ZM372.153 28.2668C372.741 36.081 372.473 43.8739 371.592 51.6541C371.164 55.4434 370.196 59.0757 368.842 62.6592C366.13 69.8283 362.279 76.5838 360.578 84.1263C360.504 84.4509 360.145 84.7161 359.952 84.9665C358.584 84.6949 358.219 83.6829 357.805 82.7515C355.389 77.3221 353.084 71.8461 350.568 66.4613C347.685 60.2935 344.936 54.0282 340.948 48.4376C337.347 43.3923 333.63 38.4084 329.709 33.5986C323.305 25.7463 316.431 18.3119 308.104 12.3012C307.669 11.9872 307.315 11.5714 306.924 11.2043C307.006 11.024 307.087 10.8457 307.169 10.6675C308.272 10.7672 309.377 10.8457 310.477 10.9667C319.823 11.9787 329.007 13.8585 338.064 16.2709C348.52 19.0545 358.919 22.0418 369.346 24.9337C371.934 25.6508 371.958 25.6338 372.153 28.2668ZM303.205 12.1845C307.228 16.273 311.716 19.9223 315.84 23.9238C322.152 30.0533 328.041 36.5583 332.891 43.8824C335.257 47.4553 337.714 51.0091 339.649 54.8069C342.961 61.2992 345.893 67.9782 348.992 74.5767C350.027 76.7832 351.086 78.9813 352.149 81.2154C351.862 81.3109 351.688 81.4339 351.566 81.3979C350.877 81.1857 350.194 80.9502 349.52 80.6956C337.14 76.0385 324.753 71.4026 312.399 66.6883C310.929 66.126 309.396 65.3686 308.294 64.3077C305.021 61.1528 301.963 57.7836 298.793 54.5268C295.009 50.6399 291.449 46.4963 287.335 42.9701C279.378 36.151 271.277 29.4635 262.905 23.1366C254.641 16.8946 245.704 11.6096 236.011 7.65475C235.276 7.35559 234.559 7.02037 233.832 6.70212C233.876 6.53026 233.922 6.35628 233.965 6.18443C235.787 6.44964 237.623 6.6512 239.43 6.99066C251.786 9.30966 264.275 10.0713 276.827 10.1138C283.775 10.1392 290.725 10.1711 297.673 10.1414C299.821 10.1307 301.526 10.4808 303.205 12.1845ZM227.928 8.62223C239.771 12.8995 250.494 19.203 260.813 26.1918C263.062 27.7152 265.049 29.6014 267.139 31.339C268.431 32.4126 269.651 33.5731 270.971 34.6085C281.093 42.5436 290.062 51.6074 298.423 61.2674C298.617 61.488 298.754 61.7554 298.914 62.0015C298.825 62.1373 298.734 62.2731 298.645 62.4088C295.77 61.6535 292.902 60.8706 290.018 60.1471C273.169 55.9208 256.101 52.7043 238.923 50.1392C233.243 49.2905 228.516 47.3174 224.175 43.7678C213.295 34.878 201.137 28.0525 187.9 23.0687C181.792 20.771 175.672 18.4965 169.535 16.2751C168.05 15.7383 166.467 15.4583 164.399 14.9215C165.271 14.6351 165.608 14.459 165.96 14.4187C175.144 13.3727 184.075 11.2871 192.871 8.51191C200.372 6.14624 208.118 5.03236 216.016 5.09389C216.862 5.10025 217.732 5.33151 218.543 5.59884C219.678 5.97014 220.741 6.54936 221.879 6.90368C223.881 7.5232 225.965 7.91147 227.928 8.62223ZM170.51 19.8332C179.434 22.7186 187.82 26.8899 196.096 31.2266C204.112 35.4254 211.256 40.8972 218.656 45.9934C218.954 46.1971 219.189 46.4899 219.48 46.7678C219.21 46.9355 219.082 47.0861 218.958 47.0799C218.314 47.0543 217.671 47.0034 217.029 46.9376C189.394 44.1433 161.718 42.9743 134.015 45.62C127.544 46.2374 121.587 45.5224 115.574 43.2586C108.279 40.5153 100.654 39.1383 92.7736 39.4841C92.5561 39.4926 92.3322 39.3759 92.1125 39.3186C92.069 39.1447 92.0255 38.9686 91.982 38.7946C94.8678 37.4431 97.7513 36.0831 100.641 34.7379C106.328 32.0858 112.078 29.5547 117.693 26.7647C126.741 22.2731 135.959 18.2928 146.102 16.8183C148.809 16.4236 151.643 15.6641 154.25 16.0778C159.739 16.9498 165.238 18.1273 170.51 19.8332ZM91.8733 42.6221C97.9318 43.5578 103.929 44.8668 109.947 46.0528C110.627 46.1865 111.271 46.4899 111.932 46.7148C111.915 46.9249 111.899 47.1349 111.882 47.3449C88.6788 48.8747 67.3306 56.6655 46.2824 65.6253C46.6195 65.0185 47.0283 64.5645 47.5176 64.2208C58.3342 56.6252 69.1659 49.0529 81.5373 43.9375C82.4268 43.5705 83.2618 42.8512 84.1621 42.777C86.726 42.5669 89.3703 42.2338 91.8733 42.6221ZM0.20875 94.5798C0.704563 95.7913 1.75273 96.1732 2.9466 96.135C3.99041 96.1011 5.04293 95.9483 6.06717 95.7383C12.5976 94.391 19.1867 94.1067 25.841 94.4228C32.6215 94.7453 39.4128 94.8429 46.1954 95.1336C59.8542 95.717 72.1408 100.033 82.9987 108.182C87.5523 111.6 92.1712 114.931 96.7205 118.353C102.051 122.361 107.985 125.119 114.457 126.889C120.687 128.592 126.915 130.326 133.063 132.293C138.362 133.986 143.616 135.857 148.761 137.951C156.934 141.278 164.047 146.166 169.983 152.618C174.9 157.961 179.867 163.261 184.688 168.684C190.882 175.651 198.24 181.036 206.728 185.071C215.685 189.328 224.708 193.448 234.091 196.7C249.581 202.068 263.486 210.177 276.751 219.466C279.249 221.214 281.737 222.977 284.234 224.728C290.477 229.103 297.303 232.389 304.712 234.29C311.584 236.055 318.573 237.405 325.538 238.813C331.238 239.968 336.983 240.905 342.696 242C350.233 243.445 357.279 246.18 363.896 249.954C370.114 253.5 376.279 257.132 382.476 260.711C387.221 263.45 392.132 265.854 397.353 267.632C408.048 271.277 419.021 272.228 430.105 270.146C439.554 268.373 447.93 264.117 454.184 256.897C460.958 249.074 463.168 239.686 460.719 229.79C458.673 221.522 455.752 213.443 452.847 205.408C451.46 201.567 449.213 198.022 447.354 194.343C442.563 184.866 437.103 175.681 433.323 165.756C431.418 160.749 430.022 155.508 428.946 150.265C428.128 146.285 429.074 142.248 430.529 138.424C430.886 137.484 431.503 136.64 432.182 135.433C433.334 136.205 434.204 136.761 435.046 137.357C447.708 146.3 459.832 155.907 471.357 166.195C476.294 170.599 480.637 175.647 485.158 180.484C494.204 190.161 503.4 199.717 512.153 209.645C530.466 230.412 547.878 251.885 563.374 274.761C572.297 287.932 580.204 301.706 587.652 315.722C593.651 327.009 599.184 338.522 603.968 350.339C607.889 360.025 611.301 369.91 614.83 379.744C615.885 382.682 616.992 385.525 619.314 387.759C619.538 387.978 619.71 388.254 619.884 388.517C621.728 391.305 624.448 391.926 627.336 390.208C630.259 388.468 631.844 385.833 631.975 382.587C632.077 380.092 631.866 377.529 631.372 375.074C629.889 367.701 627.671 360.515 624.89 353.511C622.433 347.331 619.784 341.223 617.253 335.07C612.114 322.582 605.503 310.842 598.516 299.266C580.641 269.65 559.275 242.512 536.605 216.332C524.277 202.096 510.581 189.092 496.416 176.583C496.057 176.264 495.691 175.95 495.32 175.649C482.198 165.003 469.115 154.307 455.931 143.735C450.87 139.678 445.571 135.904 440.387 131.996C439.767 131.529 439.18 131.024 438.151 130.194C439.434 129.893 440.239 129.645 441.061 129.517C447.63 128.501 454.165 128.955 460.552 130.544C469.483 132.768 478.373 135.172 487.204 137.75C495.35 140.128 503.477 142.515 511.916 143.69C517.76 144.503 523.607 145.294 529.542 144.791C536.481 144.204 542.489 141.482 547.665 137.049C552.062 133.288 553.936 128.344 554.045 122.717C554.16 116.745 552.403 111.193 549.955 105.806C543.081 90.6844 531.203 80.3179 516.561 72.7032C512.147 70.4076 507.489 68.5108 502.818 66.7456C493.795 63.3403 485.275 59.0481 477.166 53.9052C472.286 50.8118 467.276 47.8923 462.204 45.1023C446.606 36.518 429.979 30.8065 412.195 28.4599C392.821 25.9012 373.893 21.4966 355.233 15.8423C347.358 13.4554 339.328 11.5523 331.338 9.54728C316.027 5.70281 300.411 4.70774 284.666 4.91779C269.524 5.12147 254.45 4.45102 239.491 1.86045C234.411 0.982077 229.224 0.595932 224.068 0.241612C215.4 -0.352457 206.765 0.116433 198.28 2.01109C194.344 2.88946 190.475 4.09245 186.626 5.30393C178.497 7.86267 170.101 9.0105 161.676 10.0629C155.907 10.7842 150.118 11.3974 144.382 12.3203C137.249 13.4703 130.366 15.5835 123.86 18.6641C113.9 23.3806 103.979 28.1777 94.1306 33.1064C85.2907 37.5301 76.4792 42.0217 67.8307 46.7848C62.2811 49.8422 56.9228 53.2687 51.7103 56.8501C43.5098 62.481 35.0679 67.7236 26.4499 72.7117C20.524 76.1425 15.0157 80.11 9.86189 84.5782C7.26974 86.8272 4.48623 88.8683 1.79187 91.0048C1.53962 91.2042 1.28954 91.4016 1.04815 91.6116C0.121765 92.4242 -0.278365 93.3853 0.20875 94.5798Z" fill="#BB5A28" fill-opacity="0.2"/>
</svg>
