<svg width="72" height="72" viewBox="0 0 72 72" fill="none" xmlns="http://www.w3.org/2000/svg">
<g clip-path="url(#clip0_1_860)">
<path d="M22.5457 54.3658C22.3608 54.1563 22.1003 54.0289 21.8215 54.0115C21.5427 53.9942 21.2684 54.0883 21.0589 54.2731C20.8495 54.458 20.7221 54.7185 20.7047 54.9974C20.6873 55.2762 20.7814 55.5505 20.9663 55.7599L24.3681 59.6135V70.6825C24.3681 71.2642 24.8396 71.7358 25.4214 71.7358C26.0033 71.7358 26.4747 71.2642 26.4747 70.6825V59.2151C26.4747 58.9584 26.381 58.7106 26.2111 58.5181L22.5457 54.3658ZM15.1104 45.9427C12.1732 42.6154 11.5208 37.882 13.4484 33.8843L14.8715 30.9328C14.9928 30.6811 15.0092 30.3916 14.9171 30.1279C14.8249 29.8642 14.6317 29.6478 14.3801 29.5265C14.1285 29.4052 13.8389 29.3888 13.5752 29.481C13.3115 29.5731 13.0952 29.7663 12.9739 30.0179L11.5507 32.9695C9.25409 37.7329 10.0314 43.3725 13.531 47.337L17.9322 52.323C18.031 52.4352 18.1525 52.525 18.2888 52.5864C18.4251 52.6479 18.5728 52.6795 18.7223 52.6793C18.925 52.6793 19.1234 52.6207 19.2936 52.5106C19.4639 52.4006 19.5988 52.2438 19.6821 52.059C19.7654 51.8742 19.7937 51.6693 19.7634 51.4689C19.7332 51.2684 19.6457 51.081 19.5116 50.929L15.1104 45.9427ZM50.3349 16.8809C48.9797 16.8809 47.7486 17.4191 46.8412 18.2915C46.0041 16.6617 44.3059 15.5438 42.3511 15.5438C40.9678 15.5438 39.7143 16.1047 38.8021 17.0094C37.9475 15.4356 36.2803 14.3646 34.3669 14.3646C32.989 14.3646 31.7388 14.9204 30.8273 15.8189C29.9747 14.2368 28.3025 13.1589 26.3827 13.1589C23.6007 13.1589 21.3375 15.4223 21.3375 18.2043V22.6194C18.9237 22.5201 16.5425 23.6463 15.1041 25.7766C14.9525 26.0082 14.8982 26.2901 14.9528 26.5614C15.0074 26.8328 15.1666 27.0717 15.396 27.2266C15.6254 27.3815 15.9065 27.4399 16.1786 27.3891C16.4507 27.3384 16.6919 27.1826 16.8501 26.9554C18.3111 24.7915 21.1513 24.0927 23.4554 25.3298L36.0965 32.116C36.4115 32.2855 36.6759 32.5356 36.8624 32.8409C37.049 33.1461 37.151 33.4955 37.1581 33.8531C37.1661 34.2239 37.0712 34.5897 36.884 34.9099C36.6967 35.23 36.4244 35.492 36.0973 35.6668L34.4391 36.5583C32.0839 37.8244 29.2495 37.868 26.8566 36.6751L23.0243 34.7645C22.7743 34.6398 22.485 34.6196 22.2201 34.7082C21.9552 34.7968 21.7363 34.9871 21.6116 35.2371C21.487 35.4871 21.4667 35.7764 21.5553 36.0413C21.644 36.3062 21.8342 36.5251 22.0842 36.6498L25.9165 38.5604C27.3509 39.2751 28.9318 39.6468 30.5345 39.6461C32.2452 39.6467 33.9294 39.2234 35.4365 38.414L35.5629 38.346L37.6638 40.8751C38.6251 42.0339 39.1517 43.4919 39.1528 44.9975V51.0631C39.1528 51.6448 39.6242 52.1164 40.2061 52.1164C40.7879 52.1164 41.2594 51.6448 41.2594 51.0631V44.9975C41.258 43.0003 40.5594 41.0662 39.2844 39.529L37.4419 37.311C38.0152 36.9281 38.4827 36.4069 38.8012 35.7956C39.1197 35.1842 39.279 34.5025 39.2643 33.8133C39.2524 33.2302 39.1168 32.6564 38.8664 32.1298C39.7725 32.9976 41 33.5321 42.3509 33.5321C43.7524 33.5321 45.0205 32.9563 45.9354 32.0305C46.8008 33.5685 48.4481 34.6103 50.3349 34.6103C51.1381 34.6103 51.8974 34.4207 52.5722 34.0854V36.5968C52.5722 37.1785 53.0437 37.6502 53.6255 37.6502C54.2074 37.6502 54.6788 37.1785 54.6788 36.5968V32.1271C55.1388 31.3516 55.3811 30.4665 55.3803 29.5649V21.9266C55.3803 19.1443 53.1168 16.8809 50.3349 16.8809ZM23.4441 23.0281V18.2043C23.4441 16.5839 24.7625 15.2656 26.3827 15.2656C28.0032 15.2656 29.3215 16.5839 29.3215 18.2043V26.0878L24.4519 23.4736C24.1277 23.3 23.7908 23.1511 23.4441 23.0281ZM31.4281 27.2188V19.4102C31.4281 17.7897 32.7465 16.4714 34.3669 16.4714C35.9873 16.4714 37.3057 17.7897 37.3057 19.4102V28.4864C37.3057 29.0687 37.1314 29.6328 36.8145 30.1103L31.4281 27.2188ZM42.3509 31.4252C40.7305 31.4252 39.4122 30.1068 39.4122 28.4864V20.5892C39.4122 18.9688 40.7305 17.6506 42.3509 17.6506C43.9712 17.6506 45.2895 18.9689 45.2895 20.5892V28.4864C45.2895 30.1068 43.9712 31.4252 42.3509 31.4252ZM50.3349 32.5033C48.7145 32.5033 47.3962 31.185 47.3962 29.5646V21.9263C47.3962 20.3059 48.7145 18.9877 50.3349 18.9877C51.9554 18.9877 53.2737 20.306 53.2737 21.9263V29.5646C53.2737 31.185 51.9554 32.5033 50.3349 32.5033ZM53.6254 40.0321C53.346 40.0321 53.0781 40.143 52.8806 40.3406C52.683 40.5381 52.5721 40.806 52.5721 41.0854V50.6314C52.5717 52.2132 52.1504 53.7663 51.3515 55.1315L49.7551 57.8583C49.5218 58.2568 49.3988 58.7102 49.3988 59.172V70.6825C49.3988 71.2642 49.8702 71.7358 50.4521 71.7358C51.0339 71.7358 51.5054 71.2642 51.5054 70.6825V59.172C51.5054 59.0845 51.5287 58.9984 51.573 58.9228L53.1694 56.196C54.1573 54.508 54.6782 52.5874 54.6787 50.6315V41.0855C54.6787 40.9472 54.6515 40.8102 54.5986 40.6824C54.5456 40.5546 54.468 40.4384 54.3702 40.3406C54.2724 40.2428 54.1563 40.1652 54.0285 40.1123C53.9007 40.0593 53.7637 40.0321 53.6254 40.0321ZM47.8038 10.3643C47.92 10.4392 48.0499 10.4905 48.1861 10.5152C48.3222 10.54 48.4619 10.5376 48.5971 10.5083C48.7323 10.4789 48.8604 10.4232 48.974 10.3444C49.0877 10.2655 49.1847 10.1649 49.2594 10.0485L54.5112 1.88771C54.5878 1.7714 54.6406 1.64105 54.6665 1.5042C54.6925 1.36735 54.691 1.22671 54.6622 1.09043C54.6334 0.954155 54.5779 0.824936 54.4989 0.710259C54.4198 0.595581 54.3188 0.497722 54.2017 0.422345C54.0845 0.346968 53.9536 0.29557 53.8165 0.271126C53.6794 0.246682 53.5388 0.249678 53.4028 0.279939C53.2668 0.3102 53.1382 0.367127 53.0244 0.447424C52.9106 0.52772 52.8138 0.629792 52.7397 0.747733L47.488 8.90857C47.3369 9.14348 47.2852 9.42881 47.3444 9.7018C47.4036 9.97478 47.5689 10.2131 47.8038 10.3643ZM58.6201 17.4259C58.8052 17.5716 59.0339 17.6507 59.2695 17.6506C59.4293 17.6508 59.5871 17.6146 59.7308 17.5447C59.8745 17.4748 60.0004 17.3731 60.0989 17.2472L71.7753 2.36184C71.9467 2.14195 72.0239 1.86309 71.9901 1.58637C71.9562 1.30966 71.814 1.05765 71.5947 0.885585C71.3753 0.713519 71.0967 0.635428 70.8199 0.668426C70.543 0.701423 70.2906 0.842817 70.1178 1.06162L58.4414 15.947C58.269 16.1668 58.191 16.4461 58.2245 16.7234C58.258 17.0008 58.4003 17.2534 58.6201 17.4259ZM70.4345 27.9409L65.7492 30.5464C65.509 30.6843 65.3328 30.9112 65.2587 31.178C65.1845 31.4448 65.2184 31.7301 65.3531 31.9722C65.4877 32.2142 65.7122 32.3934 65.978 32.4712C66.2438 32.5489 66.5295 32.5188 66.7733 32.3875L71.4586 29.782C71.6988 29.6441 71.875 29.4172 71.9492 29.1504C72.0233 28.8836 71.9894 28.5983 71.8548 28.3563C71.7202 28.1142 71.4957 27.935 71.2299 27.8572C70.9641 27.7795 70.6783 27.8096 70.4345 27.9409ZM71.3482 47.3841L66.8054 44.6426C66.6869 44.5696 66.5551 44.5208 66.4177 44.4989C66.2802 44.4771 66.1398 44.4827 66.0046 44.5155C65.8693 44.5483 65.7419 44.6075 65.6296 44.6898C65.5174 44.7721 65.4226 44.8758 65.3507 44.995C65.2788 45.1141 65.2312 45.2464 65.2107 45.384C65.1902 45.5217 65.1972 45.662 65.2312 45.797C65.2653 45.9319 65.3257 46.0588 65.4091 46.1702C65.4925 46.2816 65.5971 46.3754 65.7169 46.4462L70.2598 49.1876C70.3782 49.2592 70.5096 49.3067 70.6464 49.3274C70.7831 49.3481 70.9227 49.3417 71.057 49.3085C71.1913 49.2753 71.3177 49.216 71.4291 49.1339C71.5404 49.0518 71.6345 48.9486 71.706 48.8301C71.8503 48.5909 71.8937 48.3042 71.8266 48.033C71.7595 47.7618 71.5874 47.5284 71.3482 47.3841ZM58.7595 54.3377C58.5777 54.1265 58.3196 53.996 58.0418 53.9747C57.7639 53.9534 57.489 54.0431 57.2771 54.2242C57.0652 54.4052 56.9337 54.6628 56.9114 54.9405C56.8891 55.2183 56.9777 55.4936 57.1579 55.7062L58.8465 57.6823C58.9453 57.7982 59.0682 57.8913 59.2065 57.955C59.3449 58.0188 59.4955 58.0516 59.6478 58.0514C59.8491 58.0513 60.0461 57.9935 60.2156 57.8849C60.385 57.7764 60.5198 57.6215 60.604 57.4387C60.6882 57.2559 60.7182 57.0528 60.6906 56.8535C60.663 56.6541 60.5788 56.4669 60.4481 56.3138L58.7595 54.3377ZM63.4533 59.8311C63.2714 59.6199 63.0133 59.4894 62.7355 59.4681C62.4576 59.4468 62.1827 59.5365 61.9708 59.7176C61.759 59.8986 61.6275 60.1562 61.6051 60.4339C61.5828 60.7117 61.6714 60.987 61.8517 61.1996L67.7317 68.0814C67.8306 68.1973 67.9534 68.2904 68.0918 68.3541C68.2302 68.4178 68.3807 68.4507 68.5331 68.4505C68.7343 68.4504 68.9313 68.3926 69.1008 68.284C69.2702 68.1754 69.405 68.0206 69.4892 67.8378C69.5734 67.655 69.6035 67.4519 69.5759 67.2525C69.5482 67.0532 69.4641 66.8659 69.3333 66.7129L63.4533 59.8311ZM39.6942 7.54881C39.8014 7.58456 39.9136 7.60282 40.0266 7.60288C40.2478 7.60274 40.4634 7.533 40.6427 7.40354C40.8221 7.27409 40.9562 7.09147 41.026 6.88156L42.1887 3.3837C42.2328 3.25234 42.2504 3.11358 42.2408 2.97537C42.2311 2.83716 42.1943 2.70222 42.1324 2.57827C42.0704 2.45432 41.9847 2.34381 41.88 2.25305C41.7753 2.16229 41.6538 2.09308 41.5223 2.04937C41.3908 2.00566 41.252 1.98832 41.1139 1.99834C40.9757 2.00836 40.8408 2.04554 40.717 2.10775C40.5932 2.16997 40.4829 2.256 40.3924 2.3609C40.3019 2.46581 40.233 2.58754 40.1897 2.71913L39.0269 6.21699C38.9388 6.48208 38.9596 6.77132 39.0847 7.02109C39.2099 7.27085 39.4291 7.46068 39.6942 7.54881ZM22.7405 10.0484C22.8153 10.1648 22.9123 10.2653 23.0259 10.3442C23.1396 10.4231 23.2677 10.4788 23.4029 10.5081C23.5381 10.5374 23.6778 10.5398 23.8139 10.5151C23.95 10.4904 24.0799 10.4391 24.1962 10.3641C24.3125 10.2893 24.413 10.1922 24.4918 10.0785C24.5706 9.96487 24.6263 9.83678 24.6556 9.70159C24.6849 9.56641 24.6873 9.42677 24.6626 9.29065C24.638 9.15454 24.5868 9.02461 24.5119 8.90829L19.2603 0.747592C19.1862 0.629652 19.0895 0.52758 18.9757 0.447283C18.8619 0.366986 18.7333 0.31006 18.5973 0.279799C18.4613 0.249537 18.3207 0.246542 18.1836 0.270986C18.0465 0.29543 17.9156 0.346828 17.7984 0.422205C17.6813 0.497582 17.5803 0.595441 17.5012 0.710118C17.4222 0.824796 17.3666 0.954014 17.3379 1.09029C17.3091 1.22657 17.3076 1.36721 17.3335 1.50406C17.3595 1.64091 17.4123 1.77126 17.4889 1.88756L22.7405 10.0484ZM12.1867 17.253C12.2853 17.3772 12.4107 17.4774 12.5535 17.5463C12.6964 17.6152 12.8529 17.6508 13.0115 17.6506C13.2096 17.6504 13.4037 17.5944 13.5714 17.489C13.7392 17.3835 13.8738 17.2329 13.9598 17.0544C14.0458 16.8759 14.0796 16.6767 14.0576 16.4798C14.0355 16.2829 13.9583 16.0963 13.8349 15.9412L1.87776 0.915421C1.70323 0.698625 1.44998 0.55972 1.17335 0.529054C0.896722 0.498388 0.6192 0.578454 0.401418 0.75176C0.183635 0.925065 0.0432969 1.17752 0.0110634 1.45397C-0.0211702 1.73042 0.0573215 2.00839 0.229389 2.22715L12.1867 17.253ZM5.53039 32.3997C5.65288 32.464 5.78683 32.5035 5.9246 32.5161C6.06237 32.5286 6.20125 32.5138 6.33332 32.4727C6.46538 32.4315 6.58804 32.3647 6.69429 32.2761C6.80053 32.1875 6.88828 32.0788 6.95252 31.9563C7.01678 31.8338 7.05629 31.6999 7.06879 31.5621C7.08129 31.4244 7.06653 31.2855 7.02536 31.1534C6.98419 31.0214 6.91741 30.8987 6.82884 30.7925C6.74026 30.6862 6.63163 30.5985 6.50914 30.5342L1.54295 27.9287C1.29557 27.7989 1.00676 27.7727 0.740062 27.8559C0.473362 27.939 0.250617 28.1247 0.120827 28.3721C-0.0089622 28.6195 -0.0351644 28.9083 0.047985 29.175C0.131134 29.4417 0.316824 29.6644 0.564205 29.7942L5.53039 32.3997ZM6.92176 45.0004C6.77739 44.7612 6.54393 44.5892 6.27274 44.5221C6.00154 44.455 5.71481 44.4985 5.47562 44.6428L0.932726 47.3842C0.81289 47.455 0.708266 47.5488 0.6249 47.6602C0.541533 47.7717 0.481077 47.8985 0.447024 48.0335C0.412971 48.1684 0.405997 48.3088 0.426504 48.4464C0.447012 48.5841 0.494594 48.7163 0.566502 48.8354C0.63841 48.9546 0.733218 49.0583 0.845448 49.1406C0.957678 49.2229 1.0851 49.2822 1.22036 49.3149C1.35562 49.3477 1.49603 49.3533 1.63348 49.3315C1.77093 49.3097 1.90269 49.2608 2.02116 49.1878L6.56405 46.4464C6.80323 46.302 6.97529 46.0686 7.04237 45.7974C7.10945 45.5263 7.06607 45.2395 6.92176 45.0004ZM15.0065 54.2211C14.7941 54.0396 14.5183 53.95 14.2398 53.9718C13.9613 53.9937 13.7029 54.1253 13.5214 54.3377L11.8329 56.3138C11.6527 56.5264 11.564 56.8017 11.5864 57.0795C11.6087 57.3572 11.7402 57.6148 11.9521 57.7958C12.1639 57.9769 12.4389 58.0666 12.7167 58.0453C12.9946 58.024 13.2527 57.8935 13.4345 57.6823L15.123 55.7062C15.3045 55.4938 15.3942 55.218 15.3723 54.9395C15.3505 54.661 15.2189 54.4026 15.0065 54.2211ZM10.3127 59.7145C10.1004 59.5331 9.82458 59.4434 9.54608 59.4653C9.26758 59.4871 9.00918 59.6187 8.82771 59.8311L2.94766 66.7129C2.76744 66.9255 2.67879 67.2008 2.70113 67.4785C2.72346 67.7563 2.85496 68.0139 3.06682 68.1949C3.27868 68.3759 3.55364 68.4656 3.83149 68.4444C4.10934 68.4231 4.36744 68.2926 4.54926 68.0814L10.4293 61.1996C10.5192 61.0944 10.5875 60.9726 10.6302 60.841C10.673 60.7095 10.6895 60.5708 10.6786 60.4329C10.6678 60.295 10.6299 60.1606 10.5672 60.0373C10.5044 59.9141 10.4179 59.8044 10.3127 59.7145ZM30.974 6.88156C31.0437 7.09148 31.1778 7.27411 31.3572 7.40357C31.5366 7.53303 31.7521 7.60276 31.9733 7.60288C32.1402 7.60291 32.3047 7.5633 32.4533 7.4873C32.6018 7.41131 32.7302 7.3011 32.8278 7.16576C32.9255 7.03042 32.9895 6.87382 33.0148 6.70887C33.04 6.54392 33.0257 6.37533 32.973 6.21699L31.8103 2.71913C31.7188 2.45833 31.5284 2.24395 31.2803 2.1222C31.0322 2.00044 30.7462 1.98107 30.4839 2.06826C30.2217 2.15545 30.0042 2.34221 29.8783 2.58829C29.7525 2.83436 29.7284 3.12003 29.8112 3.3837L30.974 6.88156Z" fill="#552912"/>
</g>
<defs>
<clipPath id="clip0_1_860">
<rect width="72" height="72" fill="white"/>
</clipPath>
</defs>
</svg>
