<svg width="24" height="24" viewBox="0 0 24 24" fill="none" xmlns="http://www.w3.org/2000/svg">
<g clip-path="url(#clip0_1_9783)">
<path d="M3.60938 5.71964V2.46155M4.40855 10.0666C3.97697 9.15261 3.71515 8.16774 3.63586 7.16006M7.03453 13.2524C6.30356 12.7148 5.66407 12.0629 5.14069 11.3217M11.2685 14.8473C10.2302 14.7582 9.21785 14.4752 8.28384 14.013M15.7035 14.0192C14.773 14.4777 13.7652 14.7585 12.7318 14.8472M18.8639 11.3153C18.3435 12.0537 17.708 12.7037 16.9815 13.2406M20.3598 7.21247C20.2762 8.19637 20.0184 9.1576 19.5986 10.0514M20.3906 2.50856V5.691" stroke="#552912" stroke-width="0.75" stroke-miterlimit="10" stroke-linecap="round" stroke-linejoin="round"/>
<path d="M5.71875 4.85691V3.39647C5.71875 2.88014 5.29903 2.46155 4.78125 2.46155H2.4375C1.91972 2.46155 1.5 2.88014 1.5 3.39647V6.49758C1.5 12.2806 6.201 16.9688 12 16.9688C14.6482 16.9688 17.0673 15.9911 18.9144 14.378" stroke="#552912" stroke-width="0.75" stroke-miterlimit="10" stroke-linecap="round" stroke-linejoin="round"/>
<path d="M20.0625 13.206C21.5842 11.3892 22.5 9.05002 22.5 6.49753V3.39647C22.5 2.88014 22.0803 2.46155 21.5625 2.46155H19.2188C18.701 2.46155 18.2812 2.88014 18.2812 3.39647V6.49753C18.2812 9.95705 15.469 12.7615 12 12.7615C8.53097 12.7615 5.71875 9.95705 5.71875 6.49753M6.99464 15.8679V17.4141M14.3414 21.0469C14.3414 21.3202 14.2462 21.5934 14.0559 21.8133L12.6792 23.4052C12.5456 23.5598 12.3516 23.6484 12.1472 23.6484H12M14.3414 21.0469C14.3417 20.7654 14.2403 20.4932 14.0559 20.2805L12.6792 18.6886C12.5456 18.5339 12.3516 18.4453 12.1472 18.4453H12M14.3414 21.0469H12M12 23.6484V21.0469M12 23.6484H11.8528C11.6484 23.6484 11.4544 23.5598 11.3208 23.4052L9.94406 21.8133C9.75969 21.6005 9.65832 21.3284 9.65859 21.0469M12 18.4453V21.0469M12 18.4453H11.8528C11.6484 18.4453 11.4544 18.5339 11.3208 18.6886L9.94406 20.2805C9.75375 20.5003 9.65859 20.7736 9.65859 21.0469M12 21.0469H9.65859M5.84536 18.9802L6.82322 20.0287C6.84515 20.0522 6.87168 20.0709 6.90117 20.0837C6.93066 20.0966 6.96246 20.1032 6.99462 20.1032C7.02677 20.1032 7.05858 20.0966 7.08807 20.0837C7.11755 20.0709 7.14409 20.0522 7.16602 20.0287L8.14387 18.9802C8.18434 18.9368 8.20684 18.8796 8.20684 18.8203C8.20684 18.761 8.18434 18.7038 8.14387 18.6604L7.16602 17.6119C7.14409 17.5884 7.11755 17.5697 7.08807 17.5568C7.05858 17.544 7.02677 17.5374 6.99462 17.5374C6.96246 17.5374 6.93066 17.544 6.90117 17.5568C6.87168 17.5697 6.84515 17.5884 6.82322 17.6119L5.84536 18.6604C5.80489 18.7038 5.78239 18.761 5.78239 18.8203C5.78239 18.8796 5.80489 18.9368 5.84536 18.9802ZM3.60938 7.14431C3.99769 7.14431 4.3125 6.8295 4.3125 6.44119C4.3125 6.05288 3.99769 5.73806 3.60938 5.73806C3.22106 5.73806 2.90625 6.05288 2.90625 6.44119C2.90625 6.82955 3.22106 7.14431 3.60938 7.14431ZM4.73438 11.4099C5.12269 11.4099 5.4375 11.0951 5.4375 10.7068C5.4375 10.3185 5.12269 10.0037 4.73438 10.0037C4.34606 10.0037 4.03125 10.3185 4.03125 10.7068C4.03125 11.0952 4.34606 11.4099 4.73438 11.4099ZM7.64062 14.3631C8.02894 14.3631 8.34375 14.0482 8.34375 13.6599C8.34375 13.2716 8.02894 12.9568 7.64062 12.9568C7.25231 12.9568 6.9375 13.2716 6.9375 13.6599C6.9375 14.0483 7.25231 14.3631 7.64062 14.3631ZM12 15.5818C12.3883 15.5818 12.7031 15.267 12.7031 14.8787C12.7031 14.4904 12.3883 14.1756 12 14.1756C11.6117 14.1756 11.2969 14.4904 11.2969 14.8787C11.2969 15.267 11.6117 15.5818 12 15.5818Z" stroke="#552912" stroke-width="0.75" stroke-miterlimit="10" stroke-linecap="round" stroke-linejoin="round"/>
<path d="M12.0052 18.5945V16.9922M13.1122 5.86125C15.0118 5.67724 16.802 4.88792 18.2191 3.60961L18.2717 3.56217M5.73891 3.57178L5.78091 3.60966C7.20126 4.89089 8.99636 5.68081 10.9005 5.86252M17.0522 15.8679V17.4141M4.66406 2.42883V1.40625C4.66406 0.823781 4.19184 0.351562 3.60938 0.351562C3.02691 0.351562 2.55469 0.823781 2.55469 1.40625V2.41809M21.4453 2.43778V1.40625C21.4453 0.823781 20.9731 0.351562 20.3906 0.351562C19.8082 0.351562 19.3359 0.823781 19.3359 1.40625V2.43422M20.3906 7.14431C20.0023 7.14431 19.6875 6.8295 19.6875 6.44119C19.6875 6.05288 20.0023 5.73806 20.3906 5.73806C20.7789 5.73806 21.0938 6.05288 21.0938 6.44119C21.0938 6.82955 20.7789 7.14431 20.3906 7.14431ZM19.2656 11.4099C18.8773 11.4099 18.5625 11.0951 18.5625 10.7068C18.5625 10.3185 18.8773 10.0037 19.2656 10.0037C19.6539 10.0037 19.9688 10.3185 19.9688 10.7068C19.9688 11.0952 19.6539 11.4099 19.2656 11.4099ZM16.3594 14.3631C15.9711 14.3631 15.6562 14.0482 15.6562 13.6599C15.6562 13.2716 15.9711 12.9568 16.3594 12.9568C16.7477 12.9568 17.0625 13.2716 17.0625 13.6599C17.0625 14.0483 16.7477 14.3631 16.3594 14.3631ZM12 15.5818C11.6117 15.5818 11.2969 15.267 11.2969 14.8787C11.2969 14.4904 11.6117 14.1756 12 14.1756C12.3883 14.1756 12.7031 14.4904 12.7031 14.8787C12.7031 15.267 12.3883 15.5818 12 15.5818ZM18.2015 18.9802L17.2237 20.0287C17.2017 20.0522 17.1752 20.0709 17.1457 20.0837C17.1162 20.0966 17.0844 20.1032 17.0523 20.1032C17.0201 20.1032 16.9883 20.0966 16.9588 20.0837C16.9293 20.0709 16.9028 20.0522 16.8809 20.0287L15.903 18.9802C15.8625 18.9368 15.84 18.8796 15.84 18.8203C15.84 18.761 15.8625 18.7038 15.903 18.6604L16.8809 17.6119C16.9028 17.5884 16.9293 17.5697 16.9588 17.5568C16.9883 17.544 17.0201 17.5374 17.0523 17.5374C17.0844 17.5374 17.1162 17.544 17.1457 17.5568C17.1752 17.5697 17.2017 17.5884 17.2237 17.6119L18.2015 18.6604C18.242 18.7038 18.2645 18.761 18.2645 18.8203C18.2645 18.8796 18.242 18.9368 18.2015 18.9802ZM12.375 6.58242H11.625C11.2367 6.58242 10.9219 6.26761 10.9219 5.8793C10.9219 5.49098 11.2367 5.17617 11.625 5.17617H12.375C12.7633 5.17617 13.0781 5.49098 13.0781 5.8793C13.0781 6.26761 12.7633 6.58242 12.375 6.58242Z" stroke="#552912" stroke-width="0.75" stroke-miterlimit="10" stroke-linecap="round" stroke-linejoin="round"/>
</g>
<defs>
<clipPath id="clip0_1_9783">
<rect width="24" height="24" fill="white"/>
</clipPath>
</defs>
</svg>
