<svg width="24" height="24" viewBox="0 0 24 24" fill="none" xmlns="http://www.w3.org/2000/svg">
<path d="M13.5676 13.485C13.4851 13.395 13.3876 13.3238 13.2864 13.2675C13.2751 13.26 13.2676 13.2488 13.2526 13.2413C13.2451 13.2413 13.2376 13.2413 13.2301 13.2338C13.0801 13.1588 12.9151 13.1175 12.7464 13.1175H5.25761C5.08886 13.1175 4.92385 13.1588 4.77385 13.2338C4.76636 13.2338 4.75885 13.2338 4.75135 13.2413C4.73636 13.2488 4.72885 13.26 4.7176 13.2675C4.6126 13.3275 4.51511 13.395 4.43635 13.485L1.04635 17.2388C0.858127 17.4469 0.753906 17.7175 0.753906 17.9981C0.753906 18.2788 0.858127 18.5494 1.04635 18.7575L4.43635 22.5113C4.51885 22.6013 4.61635 22.6725 4.7176 22.7288C4.72885 22.7363 4.73636 22.7475 4.75135 22.755L4.78511 22.7663C4.93135 22.8375 5.09261 22.875 5.26135 22.875H12.7501C12.9151 22.875 13.0764 22.8338 13.2264 22.7663L13.2601 22.755C13.2751 22.7475 13.2826 22.7363 13.2939 22.7288C13.3989 22.6688 13.4964 22.6013 13.5751 22.5113L16.9651 18.7575C17.1533 18.5494 17.2576 18.2788 17.2576 17.9981C17.2576 17.7175 17.1533 17.4469 16.9651 17.2388L13.5751 13.485H13.5676ZM16.2939 17.6213H14.4039L12.4539 15.6713L13.1926 14.1938L16.2901 17.6213H16.2939ZM6.23261 20.6213H11.7676L12.5176 22.1213H5.4826L6.23261 20.6213ZM11.8464 19.8713H6.15761L4.2826 17.9963L6.15761 16.1213H11.8464L13.7214 17.9963L11.8464 19.8713ZM11.7714 15.3675H6.23635L5.48636 13.8675H12.5214L11.7714 15.3675ZM4.8076 14.19L5.54636 15.6675L3.59635 17.6175H1.70635L4.80385 14.19H4.8076ZM1.7101 18.3675H3.60011L5.55011 20.3175L4.81136 21.795L1.71385 18.3675H1.7101ZM13.2001 21.795L12.4614 20.3175L14.4114 18.3675H16.3014L13.2039 21.795H13.2001ZM23.2501 9.74251V9.73876C23.2501 9.45376 23.1414 9.17251 22.9239 8.95501L18.7914 4.81876C18.5739 4.60126 18.2889 4.49251 18.0076 4.49251C17.7226 4.49251 17.4376 4.60126 17.2239 4.81876L13.0914 8.95501C12.8739 9.17251 12.7651 9.45376 12.7651 9.73876V9.74626C12.7651 10.0313 12.8739 10.3125 13.0914 10.53L17.2239 14.6663C17.4414 14.8838 17.7226 14.9925 18.0076 14.9925H18.0151C18.3001 14.9925 18.5814 14.8838 18.7989 14.6663L22.9314 10.53C23.1489 10.3125 23.2576 10.0313 23.2576 9.74626V9.74251H23.2501ZM22.2751 9.36751H20.7789L18.3751 6.96001V5.46376L22.2751 9.36751ZM18.0001 11.8388L15.9039 9.74251L18.0001 7.64626L20.0964 9.74251L18.0001 11.8388ZM17.6251 5.46376V6.96001L15.2214 9.36751H13.7251L17.6251 5.46376ZM13.7251 10.1175H15.2214L17.6251 12.525V14.0213L13.7251 10.1175ZM18.3751 14.0213V12.525L20.7789 10.1175H22.2751L18.3751 14.0213ZM7.26386 12.285C7.33136 12.3413 7.41761 12.3713 7.50011 12.3713C7.58261 12.3713 7.66885 12.3413 7.73635 12.285L11.8614 8.90626C11.9306 8.84968 11.9774 8.77021 11.9932 8.6822C12.009 8.59418 11.9928 8.50341 11.9476 8.42626L7.82636 1.29751C7.69136 1.06501 7.3126 1.06501 7.17761 1.29751L3.0526 8.42626C2.95885 8.58376 2.99635 8.78626 3.13885 8.90626L7.26386 12.285ZM7.12511 9.87376V11.2013L4.16635 8.77876L5.86136 8.29501L7.12136 9.87376H7.12511ZM6.40885 7.77376L7.50011 3.12376L8.59136 7.77376L7.50011 9.14251L6.40885 7.77376ZM7.87511 9.87376L9.13511 8.29501L10.8301 8.77876L7.87136 11.2013V9.87376H7.87511ZM9.31511 7.56751L8.44511 3.87376L10.8339 8.00251L9.31511 7.56751ZM5.6851 7.56751L4.16635 8.00251L6.5551 3.87376L5.6851 7.56751ZM21.7501 19.4963C20.9214 19.4963 20.2501 18.8213 20.2501 17.9963C20.2501 17.79 20.0814 17.6213 19.8751 17.6213C19.6689 17.6213 19.5001 17.79 19.5001 17.9963C19.5001 18.825 18.8289 19.4963 18.0001 19.4963C17.7939 19.4963 17.6251 19.665 17.6251 19.8713C17.6251 20.0775 17.7939 20.2463 18.0001 20.2463C18.8289 20.2463 19.5001 20.9213 19.5001 21.7463C19.5001 21.9525 19.6689 22.1213 19.8751 22.1213C20.0814 22.1213 20.2501 21.9525 20.2501 21.7463C20.2501 20.9175 20.9214 20.2463 21.7501 20.2463C21.9564 20.2463 22.1251 20.0775 22.1251 19.8713C22.1251 19.665 21.9564 19.4963 21.7501 19.4963ZM19.8751 20.505C19.7081 20.2537 19.4927 20.0382 19.2414 19.8713C19.4926 19.7063 19.7064 19.4888 19.8751 19.2375C20.0401 19.4888 20.2576 19.7025 20.5089 19.8713C20.2576 20.0363 20.0439 20.2538 19.8751 20.505ZM11.6251 4.11376C12.4539 4.11376 13.1251 4.78876 13.1251 5.61376C13.1251 5.82001 13.2939 5.98876 13.5001 5.98876C13.7064 5.98876 13.8751 5.82001 13.8751 5.61376C13.8751 4.78501 14.5464 4.11376 15.3751 4.11376C15.5814 4.11376 15.7501 3.94501 15.7501 3.73876C15.7501 3.53251 15.5814 3.36376 15.3751 3.36376C14.5464 3.36376 13.8751 2.68876 13.8751 1.86376C13.8751 1.65751 13.7064 1.48876 13.5001 1.48876C13.2939 1.48876 13.1251 1.65751 13.1251 1.86376C13.1251 2.69251 12.4539 3.36376 11.6251 3.36376C11.4189 3.36376 11.2501 3.53251 11.2501 3.73876C11.2501 3.94501 11.4189 4.11376 11.6251 4.11376ZM13.5001 3.10501C13.6651 3.35626 13.8826 3.57001 14.1339 3.73876C13.8826 3.90376 13.6689 4.12126 13.5001 4.37251C13.3331 4.12119 13.1177 3.90572 12.8664 3.73876C13.1176 3.57376 13.3314 3.35626 13.5001 3.10501Z" fill="#552912"/>
</svg>
