<svg width="72" height="72" viewBox="0 0 72 72" fill="none" xmlns="http://www.w3.org/2000/svg">
<g clip-path="url(#clip0_1_840)">
<path d="M70.946 69.8905C65.2915 69.8905 60.147 68.6563 55.6554 66.2221C51.8214 64.1444 48.3475 61.1278 45.3299 57.2566C43.4289 54.8177 41.8211 52.1883 40.4471 49.5524C42.5802 52.3149 44.9912 54.634 47.567 55.7208C53.7302 58.321 59.409 53.6559 59.7031 47.475C59.815 45.1207 60.4452 43.6117 62.0628 41.8762C66.2814 37.3495 65.6545 30.0263 59.4902 27.4313C55.7345 25.8501 50.3746 26.2783 45.385 27.3216C49.826 24.6023 54.1168 21.1569 55.7217 17.353C58.3217 11.1913 53.6569 5.51058 47.4759 5.21709C45.1215 5.10515 43.6127 4.47485 41.877 2.85735C40.8242 1.8759 39.6306 0.763533 37.8171 0.284975C35.4257 -0.346024 32.8498 0.0809233 30.7495 1.45697C29.6088 2.20427 30.7649 3.96859 31.9056 3.22143C34.8818 1.27162 37.9963 2.12369 40.4388 4.4006C42.5214 6.34127 44.518 7.18856 47.3757 7.32412C52.1075 7.54913 55.807 11.7251 53.7781 16.5329C51.1294 22.8105 39.5079 28.3502 34.4533 30.5098L42.113 12.8083C42.6547 11.5569 40.7187 10.7189 40.1771 11.9706L32.5123 29.684C30.6996 24.7734 27.0157 13.3901 29.1205 6.93669C29.5436 5.64038 27.5379 4.98618 27.1151 6.28277C25.9139 9.9654 26.3529 14.9072 27.3209 19.5326C24.6018 15.0926 21.157 10.8031 17.354 9.19856C11.1921 6.59904 5.51154 11.2633 5.21805 17.4446C5.10611 19.7988 4.47595 21.3078 2.8583 23.0433C-1.36069 27.5698 -0.733204 34.8932 5.43082 37.4883C9.76723 39.314 15.0845 38.5288 19.5358 37.598C15.0949 40.3174 10.8042 43.7627 9.19923 47.5663C7.49271 51.6109 9.0271 56.3512 12.7687 58.5926C14.3777 59.5564 16.0073 59.6339 17.4451 59.7024C19.7995 59.8143 21.3085 60.4445 23.0439 62.0621C24.8479 63.7435 26.7859 64.9245 29.3352 64.9245C32.2552 64.9245 35.0543 63.4583 36.7286 60.9139C37.4783 59.7748 35.716 58.6149 34.9667 59.7543C33.3656 62.187 30.4213 63.3284 27.6421 62.5948C26.3408 62.2516 25.438 61.4099 24.4822 60.519C22.3997 58.5781 20.4028 57.7311 17.5451 57.5952C16.2399 57.5332 15.007 57.4746 13.8526 56.7831C11.0071 55.0784 9.84204 51.4686 11.1426 48.3865C13.7913 42.1091 25.4128 36.5692 30.4674 34.4097L22.8078 52.1113C22.2805 53.3298 24.2027 54.1995 24.7437 52.949L32.373 35.3177C34.5765 41.6048 36.9932 48.4766 36.3391 55.259C36.2082 56.6166 38.3077 56.8185 38.439 55.4613C38.5925 53.8676 38.5619 52.0747 38.3547 50.0992C39.8275 52.9756 41.5717 55.8666 43.6661 58.5537C50.6209 67.4762 59.7991 72.0002 70.9459 72.0002C72.3098 71.9999 72.3098 69.8905 70.946 69.8905ZM58.6716 29.3755C63.475 31.3977 63.7515 36.97 60.5197 40.438C58.5788 42.5204 57.7318 44.5174 57.5959 47.3751C57.3709 52.1066 53.1949 55.8062 48.3871 53.7773C42.12 51.1329 36.5887 39.5464 34.4215 34.4785L52.1039 42.1299C53.3088 42.6512 54.189 40.7336 52.9417 40.194L35.2087 32.5208C40.2875 30.6427 52.3789 26.7265 58.6716 29.3755ZM6.24927 35.544C1.44583 33.5218 1.1695 27.9494 4.40128 24.4813C6.34223 22.3992 7.18937 20.4021 7.32494 17.5446C7.54938 12.8251 11.7055 9.10462 16.5337 11.142C22.8219 13.7953 28.37 25.452 30.5217 30.4928L12.8016 22.825C11.55 22.2835 10.7123 24.2195 11.9638 24.7609L29.6587 32.4177C24.5478 34.3025 12.5151 38.1815 6.24927 35.544ZM8.2168 62.7276C7.22495 62.7276 5.68999 61.1928 5.68999 60.2009C5.68999 58.8373 3.58057 58.8373 3.58057 60.2009C3.58057 61.1928 2.04561 62.7276 1.05376 62.7276C-0.309912 62.7276 -0.309912 64.837 1.05376 64.837C2.04561 64.837 3.58057 66.372 3.58057 67.3638C3.58057 68.7275 5.68999 68.7275 5.68999 67.3638C5.68999 66.372 7.22495 64.837 8.2168 64.837C9.58048 64.837 9.58048 62.7276 8.2168 62.7276ZM4.63528 64.7367C4.35304 64.3846 4.03297 64.0646 3.68084 63.7823C4.03304 63.5001 4.35311 63.1801 4.63528 62.8279C4.91745 63.1801 5.23753 63.5001 5.58973 63.7823C5.23759 64.0646 4.91752 64.3846 4.63528 64.7367ZM57.1488 5.68918C58.1407 5.68918 59.6757 7.22414 59.6757 8.21599C59.6757 9.57966 61.7851 9.57966 61.7851 8.21599C61.7851 7.22414 63.32 5.68918 64.3119 5.68918C65.6756 5.68918 65.6756 3.57976 64.3119 3.57976C63.32 3.57976 61.7851 2.0448 61.7851 1.05295C61.7851 -0.310726 59.6757 -0.310726 59.6757 1.05295C59.6757 2.0448 58.1407 3.57976 57.1488 3.57976C55.785 3.57976 55.785 5.68918 57.1488 5.68918ZM60.7304 3.68002C61.0126 4.03216 61.3327 4.35223 61.6848 4.63447C61.3327 4.91671 61.0126 5.23678 60.7304 5.58891C60.4481 5.23678 60.1281 4.91671 59.7759 4.63447C60.128 4.35219 60.4481 4.03212 60.7304 3.68002Z" fill="#552912"/>
<path d="M64.6349 11.5696C64.6349 13.2974 62.1612 15.7712 60.4334 15.7712C59.0697 15.7712 59.0697 17.8806 60.4334 17.8806C62.1612 17.8806 64.6349 20.3545 64.6349 22.0823C64.6349 23.446 66.7444 23.446 66.7444 22.0823C66.7444 20.3545 69.2183 17.8806 70.9461 17.8806C72.3097 17.8806 72.3097 15.7712 70.9461 15.7712C69.2183 15.7712 66.7444 13.2974 66.7444 11.5696C66.7444 10.206 64.6349 10.206 64.6349 11.5696ZM67.9342 16.8259C67.0654 17.414 66.2778 18.2017 65.6897 19.0705C65.1017 18.2017 64.3139 17.414 63.4452 16.8259C64.3139 16.2379 65.1017 15.4501 65.6897 14.5815C66.2778 15.4501 67.0654 16.2381 67.9342 16.8259Z" fill="#552912"/>
</g>
<defs>
<clipPath id="clip0_1_840">
<rect width="72" height="72" fill="white"/>
</clipPath>
</defs>
</svg>
