<svg width="72" height="72" viewBox="0 0 72 72" fill="none" xmlns="http://www.w3.org/2000/svg">
<g clip-path="url(#clip0_1_822)">
<path d="M10.125 11.25C10.4234 11.25 10.7095 11.1315 10.9205 10.9205C11.1315 10.7095 11.25 10.4234 11.25 10.125V9C11.25 8.70163 11.1315 8.41548 10.9205 8.20451C10.7095 7.99353 10.4234 7.875 10.125 7.875C9.82665 7.875 9.5405 7.99353 9.32952 8.20451C9.11854 8.41548 9.00002 8.70163 9.00002 9V10.125C9.00002 10.4234 9.11854 10.7095 9.32952 10.9205C9.5405 11.1315 9.82665 11.25 10.125 11.25ZM6.75002 13.5H7.87502C8.17338 13.5 8.45953 13.3815 8.67051 13.1705C8.88149 12.9595 9.00002 12.6734 9.00002 12.375C9.00002 12.0766 8.88149 11.7905 8.67051 11.5795C8.45953 11.3685 8.17338 11.25 7.87502 11.25H6.75002C6.45165 11.25 6.1655 11.3685 5.95452 11.5795C5.74354 11.7905 5.62502 12.0766 5.62502 12.375C5.62502 12.6734 5.74354 12.9595 5.95452 13.1705C6.1655 13.3815 6.45165 13.5 6.75002 13.5ZM12.375 13.5H13.5C13.7984 13.5 14.0845 13.3815 14.2955 13.1705C14.5065 12.9595 14.625 12.6734 14.625 12.375C14.625 12.0766 14.5065 11.7905 14.2955 11.5795C14.0845 11.3685 13.7984 11.25 13.5 11.25H12.375C12.0766 11.25 11.7905 11.3685 11.5795 11.5795C11.3685 11.7905 11.25 12.0766 11.25 12.375C11.25 12.6734 11.3685 12.9595 11.5795 13.1705C11.7905 13.3815 12.0766 13.5 12.375 13.5ZM11.25 14.625C11.25 14.3266 11.1315 14.0405 10.9205 13.8295C10.7095 13.6185 10.4234 13.5 10.125 13.5C9.82665 13.5 9.5405 13.6185 9.32952 13.8295C9.11854 14.0405 9.00002 14.3266 9.00002 14.625V15.75C9.00002 16.0484 9.11854 16.3345 9.32952 16.5455C9.5405 16.7565 9.82665 16.875 10.125 16.875C10.4234 16.875 10.7095 16.7565 10.9205 16.5455C11.1315 16.3345 11.25 16.0484 11.25 15.75V14.625ZM9.79539 30.7046C9.69094 30.6002 9.56694 30.5173 9.43047 30.4608C9.294 30.4043 9.14773 30.3752 9.00002 30.3752C8.8523 30.3752 8.70603 30.4043 8.56956 30.4608C8.43309 30.5173 8.30909 30.6002 8.20464 30.7046C8.10019 30.8091 8.01734 30.9331 7.96081 31.0695C7.90428 31.206 7.87519 31.3523 7.87519 31.5C7.87519 31.6477 7.90428 31.794 7.96081 31.9305C8.01734 32.0669 8.10019 32.1909 8.20464 32.2954L9.32964 33.4204C9.43388 33.5252 9.55781 33.6084 9.69431 33.6652C9.83081 33.7219 9.97718 33.7512 10.125 33.7512C10.2728 33.7512 10.4192 33.7219 10.5557 33.6652C10.6922 33.6084 10.8162 33.5252 10.9204 33.4204C11.025 33.316 11.1079 33.192 11.1645 33.0555C11.2211 32.9191 11.2502 32.7728 11.2502 32.625C11.2502 32.4772 11.2211 32.3309 11.1645 32.1945C11.1079 32.058 11.025 31.934 10.9204 31.8296L9.79539 30.7046ZM10.9204 25.0796C10.816 24.9751 10.692 24.8921 10.5555 24.8355C10.4191 24.7789 10.2728 24.7498 10.125 24.7498C9.97727 24.7498 9.83097 24.7789 9.69449 24.8355C9.55801 24.8921 9.43403 24.9751 9.32964 25.0796L8.20464 26.2046C8.10019 26.3091 8.01734 26.4331 7.96081 26.5695C7.90428 26.706 7.87519 26.8523 7.87519 27C7.87519 27.1477 7.90428 27.294 7.96081 27.4305C8.01734 27.5669 8.10019 27.6909 8.20464 27.7954C8.41559 28.0063 8.70169 28.1248 9.00002 28.1248C9.14773 28.1248 9.294 28.0957 9.43047 28.0392C9.56694 27.9827 9.69094 27.8998 9.79539 27.7954L10.9204 26.6704C11.025 26.566 11.1079 26.442 11.1645 26.3055C11.2211 26.1691 11.2502 26.0228 11.2502 25.875C11.2502 25.7272 11.2211 25.5809 11.1645 25.4445C11.1079 25.308 11.025 25.184 10.9204 25.0796ZM3.37502 33.75C3.52277 33.7502 3.66909 33.7211 3.80559 33.6645C3.94209 33.608 4.06606 33.525 4.17039 33.4204L5.29539 32.2954C5.50634 32.0844 5.62485 31.7983 5.62485 31.5C5.62485 31.2017 5.50634 30.9156 5.29539 30.7046C5.08444 30.4937 4.79834 30.3752 4.50002 30.3752C4.20169 30.3752 3.91559 30.4937 3.70464 30.7046L2.57964 31.8296C2.4218 31.9867 2.31421 32.1872 2.27051 32.4056C2.22681 32.624 2.24897 32.8504 2.33419 33.0562C2.41942 33.2619 2.56385 33.4377 2.74916 33.5613C2.93447 33.6848 3.15231 33.7505 3.37502 33.75ZM3.70464 27.7954C3.80888 27.9002 3.93281 27.9834 4.06931 28.0402C4.20581 28.0969 4.35218 28.1262 4.50002 28.1262C4.64785 28.1262 4.79423 28.0969 4.93072 28.0402C5.06722 27.9834 5.19116 27.9002 5.29539 27.7954C5.39995 27.691 5.48291 27.567 5.53951 27.4305C5.59611 27.2941 5.62524 27.1478 5.62524 27C5.62524 26.8522 5.59611 26.7059 5.53951 26.5695C5.48291 26.433 5.39995 26.309 5.29539 26.2046L4.17039 25.0796C3.95944 24.8687 3.67334 24.7502 3.37502 24.7502C3.07669 24.7502 2.79059 24.8687 2.57964 25.0796C2.36869 25.2906 2.25019 25.5767 2.25019 25.875C2.25019 26.1733 2.36869 26.4594 2.57964 26.6704L3.70464 27.7954ZM15.75 22.5C17.2519 22.5 18.6649 23.0861 19.728 24.147C20.2515 24.6685 20.6666 25.2886 20.9492 25.9713C21.2319 26.6541 21.3766 27.386 21.375 28.125C21.375 28.4234 21.4935 28.7095 21.7045 28.9205C21.9155 29.1315 22.2016 29.25 22.5 29.25C22.7984 29.25 23.0845 29.1315 23.2955 28.9205C23.5065 28.7095 23.625 28.4234 23.625 28.125C23.625 26.6231 24.2111 25.2101 25.272 24.147C25.7936 23.6235 26.4136 23.2084 27.0963 22.9258C27.7791 22.6431 28.5111 22.4984 29.25 22.5C29.5484 22.5 29.8345 22.3815 30.0455 22.1705C30.2565 21.9595 30.375 21.6734 30.375 21.375C30.375 21.0766 30.2565 20.7905 30.0455 20.5795C29.8345 20.3685 29.5484 20.25 29.25 20.25C26.1484 20.25 23.625 17.7266 23.625 14.625C23.625 14.3266 23.5065 14.0405 23.2955 13.8295C23.0845 13.6185 22.7984 13.5 22.5 13.5C22.2016 13.5 21.9155 13.6185 21.7045 13.8295C21.4935 14.0405 21.375 14.3266 21.375 14.625C21.3766 15.364 21.2319 16.0959 20.9492 16.7787C20.6666 17.4614 20.2515 18.0815 19.728 18.603C19.2065 19.1265 18.5864 19.5416 17.9037 19.8242C17.2209 20.1069 16.489 20.2516 15.75 20.25C15.4516 20.25 15.1655 20.3685 14.9545 20.5795C14.7435 20.7905 14.625 21.0766 14.625 21.375C14.625 21.6734 14.7435 21.9595 14.9545 22.1705C15.1655 22.3815 15.4516 22.5 15.75 22.5ZM21.3188 20.1938C21.7789 19.7336 22.176 19.2263 22.5034 18.6829C23.1671 19.7831 24.0919 20.7079 25.1933 21.3716C24.0912 22.0377 23.167 22.9611 22.5 24.0626C21.8333 22.9637 20.9113 22.0417 19.8124 21.375C20.3602 21.0433 20.866 20.6467 21.3188 20.1938ZM63.99 46.9946C64.0455 47.1316 64.1275 47.2563 64.2312 47.3615C64.335 47.4667 64.4585 47.5504 64.5947 47.6078C64.7309 47.6652 64.8771 47.6951 65.0249 47.6959C65.1726 47.6966 65.3191 47.6682 65.4559 47.6122C65.5928 47.5566 65.7173 47.4746 65.8225 47.3708C65.9276 47.267 66.0113 47.1435 66.0686 47.0074C66.126 46.8712 66.156 46.7251 66.1568 46.5774C66.1576 46.4296 66.1293 46.2832 66.0735 46.1464C65.4874 44.7078 64.7297 43.3453 63.8168 42.0885C63.73 41.9689 63.6205 41.8676 63.4945 41.7903C63.3686 41.713 63.2286 41.6613 63.0827 41.6381C62.9367 41.6149 62.7877 41.6207 62.644 41.6551C62.5002 41.6896 62.3647 41.752 62.2451 41.8387C62.1255 41.9255 62.0242 42.035 61.9469 42.161C61.8697 42.287 61.818 42.4269 61.7948 42.5728C61.7716 42.7188 61.7774 42.8679 61.8118 43.0116C61.8462 43.1553 61.9086 43.2908 61.9954 43.4104C62.8015 44.5209 63.4711 45.7243 63.99 46.9946ZM67.2705 50.4518C67.2244 50.1568 67.063 49.8923 66.8219 49.7163C66.5807 49.5404 66.2796 49.4674 65.9846 49.5135C65.6897 49.5596 65.4252 49.721 65.2492 49.9621C65.0732 50.2033 65.0003 50.5044 65.0464 50.7994C65.1814 51.6623 65.25 52.5431 65.25 53.4161C65.25 55.6717 64.6076 57.87 63.3904 59.7757C62.3238 61.4546 60.8487 62.8353 59.103 63.7886C58.1366 64.323 57.0926 64.7168 56.0036 64.962C55.8569 64.9917 55.7176 65.0504 55.5938 65.1347C55.4701 65.219 55.3644 65.3271 55.283 65.4528C55.2015 65.5784 55.146 65.719 55.1196 65.8664C55.0932 66.0138 55.0965 66.1649 55.1293 66.311C55.1621 66.4571 55.2238 66.5952 55.3106 66.7171C55.3975 66.8391 55.5078 66.9425 55.6351 67.0213C55.7624 67.1001 55.9042 67.1526 56.0521 67.1759C56.2 67.1992 56.351 67.1927 56.4964 67.1569C57.786 66.8682 59.0283 66.3985 60.1864 65.7619C62.2633 64.6253 64.0186 62.9812 65.2883 60.9829C66.7334 58.7238 67.501 56.0979 67.5 53.4161C67.5 52.4284 67.4235 51.4305 67.2705 50.4518Z" fill="#552912"/>
<path d="M61.8559 33.9424L50.652 26.0966C50.6812 26.0685 50.7172 26.0471 50.7454 26.0179C51.0657 25.7075 51.3198 25.3355 51.4925 24.9242C51.6651 24.513 51.7527 24.071 51.75 23.625C51.75 22.7565 51.4114 21.9713 50.8691 21.3716C51.4359 20.7613 51.7506 19.959 51.75 19.1261C51.75 17.91 51.0975 16.8503 50.1289 16.2563C53.5005 11.4784 59.0636 7.72763 59.1233 7.68713C59.2617 7.59477 59.3779 7.47284 59.4635 7.33014C59.5491 7.18744 59.602 7.02752 59.6184 6.86191C59.6347 6.69629 59.6142 6.52912 59.5581 6.37242C59.5021 6.21573 59.4119 6.07342 59.2943 5.95576C57.1106 3.77101 54.1744 3.24338 52.0211 3.19838C52.4137 2.53913 52.668 2.17126 52.6725 2.16451C52.7757 2.01691 52.8419 1.84667 52.8656 1.66813C52.8892 1.48959 52.8696 1.30798 52.8084 1.13859C52.7472 0.969212 52.6462 0.817019 52.5139 0.694835C52.3816 0.572651 52.2218 0.484055 52.0481 0.43651C48.1466 -0.640115 46.4513 0.51301 45.0911 1.44113C44.3059 1.97663 43.7366 2.36476 42.75 2.36476C41.7634 2.36476 41.1941 1.97663 40.4077 1.44113C39.0476 0.514135 37.3545 -0.64124 33.4507 0.43651C33.2772 0.484277 33.1176 0.572995 32.9855 0.695212C32.8533 0.817429 32.7524 0.969577 32.6912 1.13888C32.6301 1.30817 32.6104 1.48968 32.6339 1.66815C32.6574 1.84662 32.7234 2.01684 32.8264 2.16451C32.8309 2.17013 33.084 2.53801 33.4766 3.19726C31.3223 3.24338 28.3871 3.77101 26.2035 5.95576C26.086 6.07352 25.9961 6.21585 25.9401 6.37252C25.8842 6.52918 25.8637 6.69629 25.88 6.86184C25.8964 7.02739 25.9492 7.18726 26.0347 7.32995C26.1202 7.47265 26.2362 7.59464 26.3745 7.68713C26.4341 7.72763 31.995 11.4784 35.3677 16.254C35.1444 16.3879 34.9385 16.5489 34.7546 16.7333C34.4344 17.0437 34.1803 17.4157 34.0076 17.827C33.835 18.2382 33.7473 18.6801 33.75 19.1261C33.75 19.9946 34.0886 20.7799 34.6309 21.3795C34.0643 21.99 33.7496 22.7921 33.75 23.625C33.75 24.6049 34.1764 25.4813 34.8458 26.0978L23.6441 33.9424C22.7579 34.5687 21.9166 35.2562 21.1264 36H12.375C12.0766 36 11.7905 36.1185 11.5795 36.3295C11.3685 36.5405 11.25 36.8266 11.25 37.125V42.75H5.625C5.32663 42.75 5.04048 42.8685 4.8295 43.0795C4.61853 43.2905 4.5 43.5766 4.5 43.875V49.5H1.125C0.826631 49.5 0.540483 49.6185 0.329505 49.8295C0.118526 50.0405 0 50.3266 0 50.625L0 57.375C0 57.6734 0.118526 57.9595 0.329505 58.1705C0.540483 58.3815 0.826631 58.5 1.125 58.5H2.25V63H1.125C0.826631 63 0.540483 63.1185 0.329505 63.3295C0.118526 63.5405 0 63.8266 0 64.125L0 70.875C0 71.1734 0.118526 71.4595 0.329505 71.6705C0.540483 71.8815 0.826631 72 1.125 72H53.415C56.538 72 59.6318 71.2046 62.3576 69.7016C65.0984 68.2008 67.4141 66.0298 69.0885 63.3915C70.9926 60.4126 72.003 56.9504 72 53.415C71.9985 49.5929 71.0757 45.8276 69.3098 42.4379C67.544 39.0482 64.9871 36.134 61.8559 33.9424ZM37.125 24.75C36.8266 24.75 36.5405 24.6315 36.3295 24.4205C36.1185 24.2095 36 23.9234 36 23.625C36 23.3246 36.1159 23.0468 36.3454 22.8229C36.4465 22.7198 36.5673 22.6382 36.7007 22.5829C36.8341 22.5276 36.9772 22.4998 37.1216 22.5011H41.625C41.9234 22.5011 42.2095 22.3826 42.4205 22.1716C42.6315 21.9607 42.75 21.6745 42.75 21.3761C42.75 21.0778 42.6315 20.7916 42.4205 20.5806C42.2095 20.3697 41.9234 20.2511 41.625 20.2511H37.1306L37.125 20.25H37.1216C36.824 20.2491 36.5389 20.1304 36.3287 19.9197C36.1185 19.7091 36.0003 19.4237 36 19.1261C36 18.8258 36.1147 18.549 36.3454 18.3251C36.4468 18.2214 36.5681 18.1392 36.7021 18.0835C36.8361 18.0278 36.9799 17.9998 37.125 18.0011H48.375C48.6734 18.0011 48.9595 18.1197 49.1705 18.3306C49.3815 18.5416 49.5 18.8278 49.5 19.1261C49.5006 19.2764 49.4703 19.4252 49.4109 19.5632C49.3514 19.7012 49.2642 19.8255 49.1546 19.9283C49.0535 20.0313 48.9327 20.113 48.7993 20.1683C48.6659 20.2235 48.5228 20.2514 48.3784 20.25H48.375L48.3694 20.2511H47.25C46.9516 20.2511 46.6655 20.3697 46.4545 20.5806C46.2435 20.7916 46.125 21.0778 46.125 21.3761C46.125 21.6745 46.2435 21.9607 46.4545 22.1716C46.6655 22.3826 46.9516 22.5011 47.25 22.5011H48.3784C48.676 22.502 48.9611 22.6208 49.1713 22.8314C49.3815 23.0421 49.4997 23.3274 49.5 23.625C49.5003 23.7752 49.4698 23.9239 49.4104 24.0618C49.351 24.1998 49.2639 24.3241 49.1546 24.4271C49.053 24.5306 48.9316 24.6125 48.7977 24.668C48.6637 24.7234 48.52 24.7513 48.375 24.75H37.125ZM28.8574 6.69488C30.8374 5.43376 33.2752 5.36963 34.7119 5.47313C35.7149 7.50156 36.5367 9.61465 37.1677 11.7878C37.2087 11.9297 37.2772 12.0623 37.3693 12.1778C37.4614 12.2933 37.5754 12.3895 37.7048 12.461C37.8341 12.5324 37.9762 12.5777 38.1231 12.5942C38.2699 12.6107 38.4185 12.5982 38.5605 12.5573C38.7025 12.5163 38.835 12.4479 38.9505 12.3557C39.066 12.2636 39.1622 12.1496 39.2337 12.0203C39.3052 11.8909 39.3504 11.7488 39.367 11.602C39.3835 11.4551 39.3709 11.3065 39.33 11.1645C38.6002 8.65414 37.6309 6.2197 36.4354 3.89476C36.1562 3.35433 35.8636 2.82092 35.5579 2.29501C37.3522 2.08351 38.196 2.65388 39.1399 3.29963C40.0444 3.91501 41.0692 4.61476 42.75 4.61476C44.4308 4.61476 45.4556 3.91613 46.3601 3.29963C47.304 2.65613 48.1455 2.08576 49.9421 2.29501C49.6845 2.73601 49.3864 3.27151 49.0635 3.89588C47.8682 6.2204 46.8993 8.65448 46.17 11.1645C46.0874 11.4512 46.122 11.7591 46.2663 12.0203C46.4106 12.2814 46.6528 12.4746 46.9395 12.5573C47.2262 12.6399 47.5341 12.6053 47.7952 12.461C48.0564 12.3166 48.2496 12.0745 48.3323 11.7878C48.9639 9.61486 49.7857 7.50182 50.7881 5.47313C52.2259 5.36851 54.6637 5.43489 56.6426 6.69488C54.576 8.23613 50.418 11.6438 47.7731 15.7511H43.875V7.87613C43.875 7.57777 43.7565 7.29162 43.5455 7.08064C43.3345 6.86966 43.0484 6.75113 42.75 6.75113C42.4516 6.75113 42.1655 6.86966 41.9545 7.08064C41.7435 7.29162 41.625 7.57777 41.625 7.87613V15.7511H37.728C35.0831 11.6438 30.924 8.23613 28.8574 6.69488ZM13.5 38.25H31.5V42.75H13.5V38.25ZM48.375 45V49.5H36V45H48.375ZM33.75 45V49.5H15.75V45H32.625H33.75ZM14.625 56.25H13.5V51.75H31.5V56.25H14.625ZM15.75 58.5H33.75V63H15.75V58.5ZM36 65.25H47.25V69.75H36V65.25ZM48.375 63H36V58.5H49.5V63H48.375ZM33.75 56.25V51.75H47.25V56.25H33.75ZM6.75 45H13.5V49.5H6.75V45ZM2.25 51.75H11.25V56.25H2.25V51.75ZM4.5 58.5H13.5V63H4.5V58.5ZM2.25 65.25H13.5V69.75H2.25V65.25ZM15.75 65.25H33.75V69.75H15.75V65.25ZM67.1917 62.1833C65.7201 64.502 63.6851 66.41 61.2765 67.7295C58.8679 69.054 56.1638 69.749 53.415 69.75H49.5V65.25H50.625C50.9234 65.25 51.2095 65.1315 51.4205 64.9205C51.6315 64.7095 51.75 64.4234 51.75 64.125V57.375C51.75 57.0766 51.6315 56.7905 51.4205 56.5795C51.2095 56.3685 50.9234 56.25 50.625 56.25H49.5V51.75C49.7984 51.75 50.0845 51.6315 50.2955 51.4205C50.5065 51.2095 50.625 50.9234 50.625 50.625V43.875C50.625 43.5766 50.5065 43.2905 50.2955 43.0795C50.0845 42.8685 49.7984 42.75 49.5 42.75H33.75V37.125C33.75 36.8266 33.6315 36.5405 33.4205 36.3295C33.2095 36.1185 32.9234 36 32.625 36H24.6521C24.7477 35.9303 24.8366 35.8538 24.9334 35.7863L37.4794 27H48.0206L60.5666 35.7863C63.4012 37.7705 65.7159 40.4087 67.3145 43.4774C68.913 46.5461 69.7485 49.9549 69.75 53.415C69.75 56.5313 68.8658 59.5609 67.1917 62.1833Z" fill="#552912"/>
</g>
<defs>
<clipPath id="clip0_1_822">
<rect width="72" height="72" fill="white"/>
</clipPath>
</defs>
</svg>
