<svg width="72" height="72" viewBox="0 0 72 72" fill="none" xmlns="http://www.w3.org/2000/svg">
<path d="M22.0709 6.34257L34.5699 1.33069C35.4878 0.962686 36.5123 0.962686 37.4302 1.33069L63.5725 11.8133C64.2849 12.0989 64.8953 12.5913 65.3253 13.227C65.7553 13.8626 65.9851 14.6125 65.9851 15.38V35.9746C65.9851 38.6635 65.6297 41.3056 64.9504 43.8419M50.3712 62.6733L39.7897 69.7895C38.6695 70.5429 37.3501 70.9453 36 70.9453C34.65 70.9453 33.3306 70.5429 32.2103 69.7895L19.4562 61.2121C11.0542 55.5615 6.01514 46.1001 6.01514 35.9746V15.38C6.01516 14.6125 6.24496 13.8627 6.67494 13.227C7.10493 12.5913 7.71539 12.0989 8.4277 11.8133L15.8045 8.8554" stroke="#552912" stroke-width="2" stroke-miterlimit="10" stroke-linecap="round" stroke-linejoin="round"/>
<path d="M46.0658 57.8068L36.2405 64.4146C36.168 64.4633 36.0872 64.4879 35.9999 64.4879C35.9125 64.4879 35.8317 64.4631 35.7592 64.4145L23.0051 55.8372C16.3489 51.3605 12.375 43.8988 12.375 35.8772V16.9852L35.9999 7.51196L59.6249 16.9852V35.8772C59.6249 39.2467 58.9237 42.5173 57.6172 45.5094" stroke="#552912" stroke-width="2" stroke-miterlimit="10" stroke-linecap="round" stroke-linejoin="round"/>
<path d="M55.2809 64.0892C60.3702 64.0892 64.4959 59.9635 64.4959 54.8742C64.4959 49.7849 60.3702 45.6592 55.2809 45.6592C50.1916 45.6592 46.0659 49.7849 46.0659 54.8742C46.0659 59.9635 50.1916 64.0892 55.2809 64.0892Z" stroke="#552912" stroke-width="2" stroke-miterlimit="10" stroke-linecap="round" stroke-linejoin="round"/>
<path d="M52.4224 55.1483L54.3426 57.0686M58.7501 52.6736L54.3489 57.0748M23.5608 25.9828V22.6611C23.5608 21.8769 24.1966 21.2411 24.9808 21.2411H36.0001H47.0193C47.8036 21.2411 48.4393 21.8769 48.4393 22.6611V25.9828M36.0001 17.6763V41.5943M35.2933 42.2096L29.9716 47.3434C29.3125 47.9793 29.7626 49.0941 30.6784 49.0941H41.3217C42.2376 49.0941 42.6878 47.9793 42.0285 47.3434L36.7068 42.2096C36.5171 42.0265 36.2637 41.9242 36.0001 41.9242C35.7364 41.9242 35.483 42.0265 35.2933 42.2096Z" stroke="#552912" stroke-width="2" stroke-miterlimit="10" stroke-linecap="round" stroke-linejoin="round"/>
<path d="M28.5525 32.5292L23.5609 25.7002L18.5692 32.5292C18.3594 32.7394 18.2172 33.0076 18.1611 33.2993H28.9607C28.9044 33.0076 28.7623 32.7395 28.5525 32.5292Z" stroke="#552912" stroke-width="2" stroke-miterlimit="10" stroke-linecap="round" stroke-linejoin="round"/>
<path d="M18.161 33.2993C18.1293 33.4609 18.1248 33.6268 18.1477 33.7899C18.5278 36.4392 20.8065 38.4751 23.5608 38.4751C26.315 38.4751 28.5937 36.439 28.9738 33.7899C28.9969 33.6268 28.9924 33.4609 28.9606 33.2993H18.161ZM43.4478 32.5292L48.4394 25.7002L53.431 32.5292C53.6409 32.7394 53.783 33.0076 53.8391 33.2993H43.0396C43.0958 33.0076 43.238 32.7395 43.4478 32.5292Z" stroke="#552912" stroke-width="2" stroke-miterlimit="10" stroke-linecap="round" stroke-linejoin="round"/>
<path d="M53.8392 33.2993C53.8702 33.4592 53.8762 33.6247 53.8526 33.79C53.4725 36.4392 51.1938 38.4752 48.4395 38.4752C45.6852 38.4752 43.4065 36.4391 43.0264 33.79C43.0034 33.6268 43.0079 33.461 43.0397 33.2993H53.8392Z" stroke="#552912" stroke-width="2" stroke-miterlimit="10" stroke-linecap="round" stroke-linejoin="round"/>
</svg>
