<svg width="72" height="72" viewBox="0 0 72 72" fill="none" xmlns="http://www.w3.org/2000/svg">
<path d="M53.991 50.6384C53.7819 50.6383 53.5769 50.5799 53.3992 50.4698C53.2214 50.3597 53.0778 50.2022 52.9846 50.015C52.8913 49.8278 52.8521 49.6184 52.8713 49.4101C52.8905 49.2019 52.9674 49.0031 53.0933 48.8362C55.885 45.1403 57.389 40.6316 57.375 35.9999C57.375 34.5329 57.2243 33.0637 56.9272 31.6349C56.8942 31.4891 56.8905 31.3382 56.9164 31.1909C56.9423 31.0437 56.9973 30.9031 57.0782 30.7773C57.1591 30.6516 57.2642 30.5432 57.3874 30.4586C57.5107 30.374 57.6495 30.3147 57.7959 30.2844C57.9423 30.254 58.0933 30.2531 58.24 30.2818C58.3868 30.3105 58.5263 30.3681 58.6505 30.4513C58.7747 30.5345 58.8811 30.6417 58.9634 30.7665C59.0458 30.8913 59.1024 31.0312 59.13 31.1782C59.4585 32.7577 59.625 34.3799 59.625 35.9999C59.625 41.1637 57.987 46.0732 54.891 50.1907C54.786 50.33 54.65 50.4429 54.4938 50.5207C54.3376 50.5984 54.1655 50.6387 53.991 50.6384ZM13.986 41.8139C13.7282 41.8129 13.4785 41.7238 13.2784 41.5613C13.0782 41.3988 12.9397 41.1728 12.8858 40.9207C12.547 39.3023 12.3759 37.6533 12.375 35.9999C12.375 30.8587 13.9972 25.9694 17.0685 21.8654C17.157 21.7471 17.2679 21.6473 17.395 21.5719C17.522 21.4964 17.6627 21.4467 17.8089 21.4256C17.9552 21.4045 18.1042 21.4124 18.2474 21.4489C18.3906 21.4853 18.5252 21.5497 18.6435 21.6382C18.7618 21.7267 18.8616 21.8376 18.937 21.9646C19.0125 22.0917 19.0622 22.2323 19.0833 22.3786C19.1044 22.5249 19.0965 22.6738 19.06 22.817C19.0236 22.9602 18.9592 23.0948 18.8708 23.2132C16.1012 26.8996 14.6105 31.3891 14.625 35.9999C14.625 37.4962 14.7802 38.9969 15.0885 40.4572C15.123 40.6211 15.1205 40.7907 15.0811 40.9535C15.0417 41.1164 14.9664 41.2684 14.8607 41.3984C14.7551 41.5284 14.6217 41.6332 14.4704 41.7051C14.319 41.777 14.1535 41.8142 13.986 41.8139ZM39.375 47.2499H32.625C32.3266 47.2499 32.0405 47.1314 31.8295 46.9204C31.6185 46.7094 31.5 46.4233 31.5 46.1249V40.4999H25.875C25.5766 40.4999 25.2905 40.3814 25.0795 40.1704C24.8685 39.9594 24.75 39.6733 24.75 39.3749V32.6249C24.75 32.3265 24.8685 32.0404 25.0795 31.8294C25.2905 31.6184 25.5766 31.4999 25.875 31.4999H31.5V25.8749C31.5 25.5765 31.6185 25.2904 31.8295 25.0794C32.0405 24.8684 32.3266 24.7499 32.625 24.7499H39.375C39.6734 24.7499 39.9595 24.8684 40.1705 25.0794C40.3815 25.2904 40.5 25.5765 40.5 25.8749V31.4999H46.125C46.4234 31.4999 46.7095 31.6184 46.9205 31.8294C47.1315 32.0404 47.25 32.3265 47.25 32.6249V39.3749C47.25 39.6733 47.1315 39.9594 46.9205 40.1704C46.7095 40.3814 46.4234 40.4999 46.125 40.4999H40.5V46.1249C40.5 46.4233 40.3815 46.7094 40.1705 46.9204C39.9595 47.1314 39.6734 47.2499 39.375 47.2499ZM33.75 44.9999H38.25V39.3749C38.25 39.0765 38.3685 38.7904 38.5795 38.5794C38.7905 38.3684 39.0766 38.2499 39.375 38.2499H45V33.7499H39.375C39.0766 33.7499 38.7905 33.6314 38.5795 33.4204C38.3685 33.2094 38.25 32.9233 38.25 32.6249V26.9999H33.75V32.6249C33.75 32.9233 33.6315 33.2094 33.4205 33.4204C33.2095 33.6314 32.9234 33.7499 32.625 33.7499H27V38.2499H32.625C32.9234 38.2499 33.2095 38.3684 33.4205 38.5794C33.6315 38.7904 33.75 39.0765 33.75 39.3749V44.9999ZM40.8173 67.4999H29.025C26.8157 67.4974 24.6352 66.9991 22.644 66.0419L14.7622 62.2124C12.7698 61.2492 10.5853 60.7492 8.37225 60.7499H3.375C3.07663 60.7499 2.79048 60.6314 2.5795 60.4204C2.36853 60.2094 2.25 59.9233 2.25 59.6249C2.25 59.3265 2.36853 59.0404 2.5795 58.8294C2.79048 58.6184 3.07663 58.4999 3.375 58.4999H8.37225C10.9283 58.4999 13.4078 59.0669 15.741 60.1874L23.6205 64.0147C25.3074 64.8243 27.1539 65.2463 29.025 65.2499H40.5923L50.418 61.1954C50.418 61.1009 50.5508 60.2302 50.1187 59.4899C49.4595 58.3559 47.9362 58.3199 46.782 58.4887C45.1058 58.7474 43.7197 59.2132 42.498 59.6249L42.0345 59.7802C41.7526 59.8696 41.4467 59.8445 41.1832 59.7101C40.9197 59.5757 40.7197 59.343 40.6265 59.0623C40.5333 58.7815 40.5544 58.4754 40.6853 58.2101C40.8162 57.9449 41.0463 57.7418 41.3258 57.6449L41.7803 57.4942C43.0898 57.0532 44.5725 56.5537 46.449 56.2657C51.0885 55.5907 52.2473 58.4887 52.497 59.3909C52.9088 60.8782 52.5667 62.7389 51.282 63.2767L41.2447 67.4189C41.1084 67.4717 40.9635 67.4992 40.8173 67.4999ZM26.1788 51.4732C25.9643 51.4732 25.7542 51.412 25.5733 51.2968C25.3923 51.1817 25.248 51.0173 25.1572 50.8229C22.9522 46.0777 17.2238 45.3982 12.9645 47.1644C12.8274 47.2208 12.6807 47.2498 12.5325 47.2499H3.375C3.07663 47.2499 2.79048 47.1314 2.5795 46.9204C2.36853 46.7094 2.25 46.4233 2.25 46.1249C2.25 45.8265 2.36853 45.5404 2.5795 45.3294C2.79048 45.1184 3.07663 44.9999 3.375 44.9999H12.3142C18.405 42.5812 24.7702 44.6579 27.2002 49.8757C27.279 50.0472 27.3134 50.2357 27.3003 50.424C27.2873 50.6122 27.2271 50.7942 27.1255 50.9532C27.0238 51.1122 26.8838 51.2431 26.7184 51.334C26.553 51.4248 26.3675 51.4727 26.1788 51.4732Z" fill="#552912"/>
<path d="M36.8415 62.1517C36.6941 62.1515 36.5481 62.1224 36.4118 62.0662L23.5283 56.718C23.3918 56.6613 23.2678 56.5782 23.1634 56.4736C23.059 56.3689 22.9762 56.2447 22.9198 56.1081C22.8634 55.9714 22.8344 55.825 22.8346 55.6772C22.8348 55.5294 22.8641 55.383 22.9208 55.2465C22.9775 55.11 23.0606 54.986 23.1652 54.8816C23.2699 54.7772 23.3941 54.6944 23.5307 54.638C23.6674 54.5816 23.8138 54.5526 23.9616 54.5528C24.1094 54.553 24.2558 54.5823 24.3923 54.639L36.144 59.517C36.6368 57.1973 35.3678 55.3927 32.3528 54.144L25.731 51.3945C25.4553 51.2799 25.2365 51.0605 25.1225 50.7846C25.0086 50.5086 25.009 50.1987 25.1235 49.923C25.2381 49.6473 25.4575 49.4284 25.7335 49.3145C26.0094 49.2006 26.3193 49.2009 26.595 49.3155L33.2145 52.065C37.8518 53.9865 39.5528 57.4087 37.881 61.452C37.8248 61.5889 37.742 61.7133 37.6373 61.818C37.5326 61.9227 37.4082 62.0055 37.2713 62.0618C37.1359 62.1214 36.9895 62.1521 36.8415 62.1517ZM24.2348 15.8378C20.6955 15.8378 19.728 13.4213 19.503 12.6112C19.0913 11.124 19.4333 9.26325 20.718 8.7255L30.7553 4.58325C30.8912 4.52868 31.0363 4.50043 31.1828 4.5H42.9728C45.171 4.5 47.3175 4.9905 49.3538 5.958L57.2355 9.7875C59.2583 10.7572 61.4115 11.25 63.6278 11.25H68.625C68.9234 11.25 69.2096 11.3685 69.4205 11.5795C69.6315 11.7905 69.75 12.0766 69.75 12.375C69.75 12.6734 69.6315 12.9595 69.4205 13.1705C69.2096 13.3815 68.9234 13.5 68.625 13.5H63.6278C61.0756 13.5013 58.5563 12.9243 56.259 11.8125L48.3795 7.9875C46.6932 7.1761 44.8464 6.75323 42.975 6.75H31.4078L21.5798 10.8045C21.5798 10.899 21.447 11.7697 21.879 12.51C22.5405 13.644 24.0593 13.68 25.2158 13.5113C26.892 13.2525 28.278 12.7867 29.4998 12.375L29.9633 12.2198C30.1041 12.171 30.2531 12.1506 30.4018 12.1599C30.5505 12.1692 30.6959 12.2079 30.8295 12.2738C30.9631 12.3397 31.0823 12.4315 31.1801 12.5439C31.278 12.6562 31.3525 12.7869 31.3995 12.9283C31.4464 13.0697 31.4648 13.219 31.4535 13.3676C31.4423 13.5161 31.4017 13.661 31.334 13.7937C31.2663 13.9264 31.173 14.0444 31.0593 14.1408C30.9457 14.2371 30.814 14.3099 30.672 14.355L30.2175 14.5057C28.908 14.9467 27.4253 15.4462 25.5488 15.7343C25.114 15.8018 24.6748 15.8364 24.2348 15.8378ZM54.5828 28.0012C50.3303 28.0012 46.5458 25.8773 44.7998 22.1243C44.6871 21.8554 44.6829 21.5533 44.7882 21.2814C44.8934 21.0096 45.0999 20.7891 45.3643 20.6662C45.6287 20.5433 45.9304 20.5276 46.206 20.6225C46.4817 20.7173 46.7099 20.9152 46.8428 21.1748C49.0455 25.9178 54.7718 26.595 59.0355 24.8333C59.1731 24.7787 59.3196 24.7505 59.4675 24.75H68.625C68.9234 24.75 69.2096 24.8685 69.4205 25.0795C69.6315 25.2905 69.75 25.5766 69.75 25.875C69.75 26.1734 69.6315 26.4595 69.4205 26.6705C69.2096 26.8815 68.9234 27 68.625 27H59.6858C57.9758 27.6772 56.2433 28.0012 54.5828 28.0012Z" fill="#552912"/>
<path d="M45.8371 22.77C45.6889 22.7701 45.5421 22.7411 45.4051 22.6845L38.7856 19.935C34.1484 18.0135 32.4474 14.5913 34.1191 10.548C34.1748 10.4107 34.2573 10.2858 34.3617 10.1806C34.4661 10.0754 34.5904 9.99201 34.7273 9.93528C34.8642 9.87854 35.011 9.84959 35.1592 9.8501C35.3075 9.85062 35.4541 9.88059 35.5906 9.93828L48.4741 15.2865C48.6106 15.3433 48.7346 15.4263 48.839 15.531C48.9434 15.6356 49.0262 15.7598 49.0826 15.8965C49.139 16.0331 49.168 16.1795 49.1678 16.3273C49.1676 16.4752 49.1383 16.6215 49.0816 16.758C49.0249 16.8945 48.9418 17.0185 48.8372 17.1229C48.7325 17.2274 48.6083 17.3101 48.4717 17.3665C48.335 17.4229 48.1886 17.4519 48.0408 17.4517C47.893 17.4515 47.7466 17.4223 47.6101 17.3655L35.8584 12.4875C35.3656 14.8073 36.6346 16.6118 39.6496 17.8605L46.2714 20.61C46.4079 20.6667 46.532 20.7497 46.6364 20.8543C46.7409 20.959 46.8237 21.0832 46.8801 21.2199C46.9366 21.3565 46.9655 21.503 46.9653 21.6508C46.965 21.7987 46.9357 21.945 46.8789 22.0815C46.7917 22.2857 46.6465 22.4597 46.4613 22.5821C46.2761 22.7045 46.0591 22.7698 45.8371 22.77ZM50.6589 54.0788C50.4365 54.0787 50.2192 54.0128 50.0343 53.8893C49.8494 53.7659 49.7052 53.5904 49.62 53.385C49.5348 53.1796 49.5123 52.9536 49.5555 52.7355C49.5986 52.5174 49.7054 52.317 49.8624 52.1595C50.3034 51.7208 51.0931 51.642 51.5319 52.0808C51.9706 52.5195 52.0494 53.154 51.6106 53.5928L51.4531 53.7503C51.3489 53.8546 51.225 53.9373 51.0887 53.9937C50.9524 54.0501 50.8064 54.079 50.6589 54.0788ZM21.4089 20.3288C21.1857 20.3287 20.9676 20.2623 20.7823 20.138C20.597 20.0137 20.4528 19.8371 20.3682 19.6306C20.2835 19.4241 20.2622 19.1971 20.3068 18.9785C20.3515 18.7599 20.4602 18.5595 20.6191 18.4028L20.7789 18.2453C20.8835 18.1388 21.0082 18.0542 21.1458 17.9965C21.2834 17.9387 21.4311 17.9089 21.5803 17.9087C21.7296 17.9086 21.8774 17.9382 22.0151 17.9957C22.1528 18.0533 22.2776 18.1376 22.3824 18.2439C22.4872 18.3502 22.5698 18.4762 22.6254 18.6147C22.681 18.7532 22.7084 18.9014 22.7062 19.0506C22.704 19.1998 22.672 19.3471 22.6123 19.4839C22.5526 19.6207 22.4663 19.7442 22.3584 19.8473L22.1986 20.0048C21.9886 20.213 21.7046 20.3295 21.4089 20.3288Z" fill="#552912"/>
</svg>
