<svg width="24" height="24" viewBox="0 0 24 24" fill="none" xmlns="http://www.w3.org/2000/svg">
<mask id="path-1-inside-1_1_9695" fill="white">
<path d="M19.7716 2.20588C18.6492 1.29721 17.3786 0.59156 16.0164 0.120359C15.6082 -0.017246 15.17 -0.0372988 14.7511 0.0624633C14.3322 0.162225 13.9494 0.377833 13.6457 0.684968L13.6259 0.706141C12.7262 1.61187 11.2657 1.61187 10.366 0.706141L10.3462 0.686145C10.0425 0.37901 9.65965 0.163401 9.24077 0.0636389C8.82188 -0.0361232 8.38365 -0.0160704 7.97548 0.121535C6.61339 0.592377 5.34279 1.29762 4.22024 2.20588C4.14934 2.26567 4.09163 2.33971 4.05082 2.42327C4.01001 2.50682 3.98699 2.59804 3.98325 2.69107C3.97951 2.7841 3.99513 2.8769 4.0291 2.9635C4.06307 3.0501 4.11465 3.12859 4.18052 3.19395L10.0587 9.11294C10.2457 9.29997 10.5284 9.37642 10.768 9.26586C11.5508 8.90239 12.4399 8.90121 13.2251 9.26586C13.4635 9.37642 13.7474 9.29997 13.9332 9.11294L19.8114 3.19513C19.8774 3.12976 19.9292 3.05119 19.9633 2.96447C19.9973 2.87776 20.013 2.78482 20.0093 2.69164C20.0055 2.59846 19.9825 2.5071 19.9415 2.42344C19.9006 2.33978 19.8427 2.26567 19.7716 2.20588ZM9.87063 6.74158C9.43248 6.74158 9.46987 6.50397 7.1798 4.32082C7.12222 4.26495 7.07621 4.19815 7.04442 4.12428C7.01263 4.0504 6.9957 3.97092 6.99461 3.89042C6.99352 3.80992 7.00828 3.73 7.03805 3.65527C7.06782 3.58055 7.112 3.51251 7.16804 3.45508C7.22408 3.39765 7.29088 3.35197 7.36456 3.32068C7.43824 3.28939 7.51735 3.27311 7.59732 3.27278C7.67729 3.27246 7.75653 3.28808 7.83046 3.31877C7.9044 3.34945 7.97155 3.39459 8.02806 3.45155L10.2948 5.69823C10.3797 5.78326 10.4377 5.89171 10.4615 6.0099C10.4853 6.12809 10.4738 6.25073 10.4284 6.36233C10.383 6.47394 10.3058 6.56951 10.2066 6.63701C10.1073 6.7045 9.99041 6.74089 9.87063 6.74158ZM16.9009 4.36081C14.758 6.44281 14.7849 6.69571 14.3409 6.69571C14.2216 6.69493 14.1052 6.65881 14.0061 6.59184C13.9071 6.52487 13.8298 6.43003 13.7839 6.31913C13.7381 6.20824 13.7257 6.0862 13.7483 5.96825C13.7708 5.8503 13.8274 5.74167 13.911 5.65588L16.0421 3.50096C16.1581 3.40106 16.3073 3.3488 16.4598 3.35458C16.6124 3.36035 16.7572 3.42374 16.8654 3.53212C16.9737 3.6405 17.0374 3.78594 17.044 3.93949C17.0506 4.09305 16.9995 4.24346 16.9009 4.36081ZM0.987281 14.2379C0.665724 14.5592 0.445268 14.9687 0.353427 15.4153C0.261585 15.8619 0.302425 16.3259 0.470849 16.7493C0.924188 17.8644 1.53176 18.8972 2.26902 19.8241C2.32861 19.8955 2.40237 19.9536 2.48556 19.9947C2.56875 20.0358 2.65954 20.059 2.75214 20.0628C2.84473 20.0665 2.93709 20.0508 3.0233 20.0166C3.10951 19.9824 3.18768 19.9304 3.25281 19.864L9.12986 13.9474C9.31681 13.7604 9.39275 13.4745 9.28175 13.2346C9.10343 12.847 9.01106 12.4249 9.01106 11.9977C9.01106 11.5706 9.10343 11.1485 9.28175 10.7609C9.39275 10.5209 9.31681 10.2351 9.12986 10.0481L3.25281 4.13144C3.18776 4.06499 3.10966 4.01295 3.02349 3.97863C2.93733 3.94431 2.84499 3.92847 2.7524 3.93212C2.6598 3.93578 2.56899 3.95884 2.48575 3.99985C2.40252 4.04085 2.3287 4.09889 2.26902 4.17026C1.30129 5.38417 0.567041 6.7692 0.103971 8.25426C-0.0211209 8.66079 -0.0335835 9.09398 0.0679276 9.50711C0.169439 9.92025 0.38107 10.2976 0.679992 10.5986L0.968587 10.8903C1.90915 11.8384 1.91032 13.3087 1.01065 14.2144L0.987281 14.2379ZM6.54653 15.2295C4.65372 17.0516 4.65723 17.3209 4.21791 17.3209C4.09831 17.3205 3.98151 17.2844 3.88222 17.2173C3.78292 17.1502 3.70555 17.055 3.65984 16.9438C3.61413 16.8325 3.60213 16.7101 3.62534 16.592C3.64855 16.4739 3.70593 16.3653 3.79027 16.2799L5.69009 14.3673C5.74633 14.3107 5.81309 14.2658 5.88656 14.2352C5.96003 14.2045 6.03878 14.1888 6.11831 14.1888C6.19784 14.1888 6.27659 14.2045 6.35006 14.2352C6.42353 14.2658 6.49029 14.3107 6.54653 14.3673C6.60276 14.4239 6.64737 14.4912 6.6778 14.5651C6.70824 14.6391 6.7239 14.7184 6.7239 14.7984C6.7239 14.8785 6.70824 14.9578 6.6778 15.0317C6.64737 15.1057 6.60276 15.1729 6.54653 15.2295ZM3.53206 7.30854C3.63918 7.18837 3.78929 7.11592 3.94944 7.1071C4.10958 7.09828 4.26665 7.15381 4.38616 7.26149L6.75801 9.39642C6.84876 9.47901 6.91257 9.5873 6.94107 9.70707C6.96957 9.82684 6.96142 9.95249 6.91769 10.0675C6.87396 10.1825 6.7967 10.2815 6.69605 10.3516C6.5954 10.4216 6.47608 10.4593 6.35374 10.4598C5.94247 10.4598 5.98219 10.261 3.57879 8.16957C3.45935 8.06153 3.38736 7.9102 3.37859 7.74879C3.36983 7.58737 3.42502 7.42905 3.53206 7.30854ZM23.3189 10.6256C23.9265 10.014 24.1508 9.10941 23.8973 8.28485C23.4354 6.78867 22.6982 5.39328 21.724 4.17143C21.6645 4.09972 21.5908 4.04133 21.5075 4C21.4243 3.95867 21.3334 3.93532 21.2406 3.93144C21.1479 3.92757 21.0553 3.94325 20.969 3.97749C20.8826 4.01173 20.8043 4.06377 20.7391 4.13026L14.862 10.0469C14.6751 10.2351 14.6003 10.5209 14.7101 10.7609C14.8885 11.1485 14.981 11.5706 14.981 11.9977C14.981 12.4249 14.8885 12.847 14.7101 13.2346C14.6003 13.4745 14.6751 13.7604 14.862 13.9474L20.7391 19.864C20.8042 19.9306 20.8825 19.9827 20.9688 20.0171C21.0551 20.0514 21.1476 20.0672 21.2404 20.0634C21.3331 20.0597 21.424 20.0364 21.5073 19.9952C21.5906 19.954 21.6644 19.8957 21.724 19.8241C22.4722 18.8836 23.0814 17.8393 23.5327 16.7234C23.7001 16.3 23.7401 15.8365 23.6479 15.3904C23.5556 14.9443 23.3352 14.5354 23.014 14.2144C22.1143 13.3087 22.1143 11.8384 23.014 10.9326L23.3189 10.6256ZM16.874 9.43053L19.0052 7.27561C19.1205 7.17262 19.2705 7.11774 19.4246 7.12213C19.5788 7.12652 19.7254 7.18984 19.8348 7.29922C19.9442 7.4086 20.0081 7.55583 20.0135 7.71095C20.0189 7.86607 19.9655 8.01745 19.864 8.13428L17.7328 10.2904C17.6195 10.405 17.4657 10.4697 17.3051 10.4701C17.1444 10.4706 16.9902 10.4068 16.8764 10.2927C16.7625 10.1787 16.6982 10.0238 16.6978 9.86212C16.6974 9.70043 16.7608 9.54518 16.874 9.43053ZM20.4353 16.9363C20.3787 16.9926 20.3117 17.0371 20.238 17.0672C20.1643 17.0974 20.0854 17.1126 20.0059 17.1121C19.9263 17.1115 19.8477 17.0952 19.7744 17.064C19.7011 17.0329 19.6347 16.9875 19.5789 16.9304L17.4641 14.7731C17.4071 14.7165 17.362 14.649 17.3311 14.5746C17.3003 14.5002 17.2844 14.4204 17.2845 14.3398C17.2845 14.2591 17.3004 14.1793 17.3313 14.105C17.3622 14.0306 17.4074 13.9631 17.4644 13.9065C17.5213 13.8499 17.5889 13.8051 17.6632 13.775C17.7374 13.7448 17.8169 13.7298 17.8969 13.7307C17.977 13.7317 18.0561 13.7486 18.1296 13.7806C18.2031 13.8125 18.2696 13.8588 18.3252 13.9168L20.4411 16.0741C20.676 16.3141 20.6748 16.6999 20.4353 16.9363ZM13.2251 14.7296C12.84 14.909 12.4208 15.0019 11.9965 15.0019C11.5722 15.0019 11.153 14.909 10.768 14.7296C10.5284 14.6191 10.2445 14.6955 10.0587 14.8825L4.18052 20.8004C4.11465 20.8657 4.06307 20.9442 4.0291 21.0308C3.99513 21.1174 3.97951 21.2102 3.98325 21.3032C3.98699 21.3963 4.01001 21.4875 4.05082 21.571C4.09163 21.6546 4.14934 21.7286 4.22024 21.7884C5.34552 22.6999 6.61979 23.4072 7.986 23.8787C8.81439 24.1633 9.73626 23.9363 10.3555 23.3117L10.366 23.3011C11.2657 22.3954 12.7262 22.3954 13.6259 23.3011L13.6375 23.3129C14.2568 23.9363 15.1775 24.1633 16.0071 23.8775C17.3727 23.4065 18.6465 22.7001 19.7716 21.7896C19.8428 21.73 19.9007 21.6561 19.9418 21.5725C19.9828 21.489 20.006 21.3978 20.0098 21.3047C20.0137 21.2116 19.9981 21.1187 19.9641 21.0321C19.9301 20.9454 19.8785 20.8669 19.8125 20.8015L14.2685 15.2201C13.7427 14.6908 13.4623 14.6191 13.2251 14.7296ZM9.64162 18.8136L7.7418 20.7262C7.68591 20.7841 7.61917 20.8302 7.54546 20.8618C7.47174 20.8935 7.39251 20.9101 7.31236 20.9107C7.23222 20.9112 7.15276 20.8958 7.0786 20.8652C7.00443 20.8346 6.93704 20.7895 6.88033 20.7325C6.82362 20.6755 6.77872 20.6077 6.74824 20.5331C6.71776 20.4585 6.70231 20.3785 6.70278 20.2978C6.70325 20.2171 6.71963 20.1373 6.75097 20.0631C6.78231 19.9888 6.828 19.9216 6.88537 19.8652L8.78518 17.9514C8.84142 17.8948 8.90818 17.8499 8.98165 17.8193C9.05513 17.7886 9.13387 17.7729 9.2134 17.7729C9.29293 17.7729 9.37168 17.7886 9.44515 17.8193C9.51863 17.8499 9.58539 17.8948 9.64162 17.9514C9.69785 18.008 9.74246 18.0753 9.77289 18.1492C9.80333 18.2232 9.81899 18.3025 9.81899 18.3825C9.81899 18.4626 9.80333 18.5419 9.77289 18.6158C9.74246 18.6898 9.69785 18.757 9.64162 18.8136ZM14.085 17.0375C14.1416 16.9812 14.2087 16.9367 14.2824 16.9065C14.3561 16.8764 14.4349 16.8611 14.5145 16.8617C14.594 16.8622 14.6727 16.8786 14.7459 16.9097C14.8192 16.9409 14.8857 16.9863 14.9415 17.0433L17.0563 19.2006C17.1691 19.3157 17.2318 19.4713 17.2307 19.6329C17.2296 19.7946 17.1648 19.9493 17.0504 20.0628C16.9938 20.1191 16.9268 20.1635 16.8531 20.1936C16.7794 20.2238 16.7005 20.239 16.621 20.2385C16.4604 20.2374 16.3068 20.1721 16.194 20.057L14.0792 17.8985C13.9667 17.7835 13.9041 17.6282 13.9052 17.4668C13.9063 17.3053 13.971 17.1509 14.085 17.0375Z"/>
</mask>
<path d="M19.7716 2.20588C18.6492 1.29721 17.3786 0.59156 16.0164 0.120359C15.6082 -0.017246 15.17 -0.0372988 14.7511 0.0624633C14.3322 0.162225 13.9494 0.377833 13.6457 0.684968L13.6259 0.706141C12.7262 1.61187 11.2657 1.61187 10.366 0.706141L10.3462 0.686145C10.0425 0.37901 9.65965 0.163401 9.24077 0.0636389C8.82188 -0.0361232 8.38365 -0.0160704 7.97548 0.121535C6.61339 0.592377 5.34279 1.29762 4.22024 2.20588C4.14934 2.26567 4.09163 2.33971 4.05082 2.42327C4.01001 2.50682 3.98699 2.59804 3.98325 2.69107C3.97951 2.7841 3.99513 2.8769 4.0291 2.9635C4.06307 3.0501 4.11465 3.12859 4.18052 3.19395L10.0587 9.11294C10.2457 9.29997 10.5284 9.37642 10.768 9.26586C11.5508 8.90239 12.4399 8.90121 13.2251 9.26586C13.4635 9.37642 13.7474 9.29997 13.9332 9.11294L19.8114 3.19513C19.8774 3.12976 19.9292 3.05119 19.9633 2.96447C19.9973 2.87776 20.013 2.78482 20.0093 2.69164C20.0055 2.59846 19.9825 2.5071 19.9415 2.42344C19.9006 2.33978 19.8427 2.26567 19.7716 2.20588ZM9.87063 6.74158C9.43248 6.74158 9.46987 6.50397 7.1798 4.32082C7.12222 4.26495 7.07621 4.19815 7.04442 4.12428C7.01263 4.0504 6.9957 3.97092 6.99461 3.89042C6.99352 3.80992 7.00828 3.73 7.03805 3.65527C7.06782 3.58055 7.112 3.51251 7.16804 3.45508C7.22408 3.39765 7.29088 3.35197 7.36456 3.32068C7.43824 3.28939 7.51735 3.27311 7.59732 3.27278C7.67729 3.27246 7.75653 3.28808 7.83046 3.31877C7.9044 3.34945 7.97155 3.39459 8.02806 3.45155L10.2948 5.69823C10.3797 5.78326 10.4377 5.89171 10.4615 6.0099C10.4853 6.12809 10.4738 6.25073 10.4284 6.36233C10.383 6.47394 10.3058 6.56951 10.2066 6.63701C10.1073 6.7045 9.99041 6.74089 9.87063 6.74158ZM16.9009 4.36081C14.758 6.44281 14.7849 6.69571 14.3409 6.69571C14.2216 6.69493 14.1052 6.65881 14.0061 6.59184C13.9071 6.52487 13.8298 6.43003 13.7839 6.31913C13.7381 6.20824 13.7257 6.0862 13.7483 5.96825C13.7708 5.8503 13.8274 5.74167 13.911 5.65588L16.0421 3.50096C16.1581 3.40106 16.3073 3.3488 16.4598 3.35458C16.6124 3.36035 16.7572 3.42374 16.8654 3.53212C16.9737 3.6405 17.0374 3.78594 17.044 3.93949C17.0506 4.09305 16.9995 4.24346 16.9009 4.36081ZM0.987281 14.2379C0.665724 14.5592 0.445268 14.9687 0.353427 15.4153C0.261585 15.8619 0.302425 16.3259 0.470849 16.7493C0.924188 17.8644 1.53176 18.8972 2.26902 19.8241C2.32861 19.8955 2.40237 19.9536 2.48556 19.9947C2.56875 20.0358 2.65954 20.059 2.75214 20.0628C2.84473 20.0665 2.93709 20.0508 3.0233 20.0166C3.10951 19.9824 3.18768 19.9304 3.25281 19.864L9.12986 13.9474C9.31681 13.7604 9.39275 13.4745 9.28175 13.2346C9.10343 12.847 9.01106 12.4249 9.01106 11.9977C9.01106 11.5706 9.10343 11.1485 9.28175 10.7609C9.39275 10.5209 9.31681 10.2351 9.12986 10.0481L3.25281 4.13144C3.18776 4.06499 3.10966 4.01295 3.02349 3.97863C2.93733 3.94431 2.84499 3.92847 2.7524 3.93212C2.6598 3.93578 2.56899 3.95884 2.48575 3.99985C2.40252 4.04085 2.3287 4.09889 2.26902 4.17026C1.30129 5.38417 0.567041 6.7692 0.103971 8.25426C-0.0211209 8.66079 -0.0335835 9.09398 0.0679276 9.50711C0.169439 9.92025 0.38107 10.2976 0.679992 10.5986L0.968587 10.8903C1.90915 11.8384 1.91032 13.3087 1.01065 14.2144L0.987281 14.2379ZM6.54653 15.2295C4.65372 17.0516 4.65723 17.3209 4.21791 17.3209C4.09831 17.3205 3.98151 17.2844 3.88222 17.2173C3.78292 17.1502 3.70555 17.055 3.65984 16.9438C3.61413 16.8325 3.60213 16.7101 3.62534 16.592C3.64855 16.4739 3.70593 16.3653 3.79027 16.2799L5.69009 14.3673C5.74633 14.3107 5.81309 14.2658 5.88656 14.2352C5.96003 14.2045 6.03878 14.1888 6.11831 14.1888C6.19784 14.1888 6.27659 14.2045 6.35006 14.2352C6.42353 14.2658 6.49029 14.3107 6.54653 14.3673C6.60276 14.4239 6.64737 14.4912 6.6778 14.5651C6.70824 14.6391 6.7239 14.7184 6.7239 14.7984C6.7239 14.8785 6.70824 14.9578 6.6778 15.0317C6.64737 15.1057 6.60276 15.1729 6.54653 15.2295ZM3.53206 7.30854C3.63918 7.18837 3.78929 7.11592 3.94944 7.1071C4.10958 7.09828 4.26665 7.15381 4.38616 7.26149L6.75801 9.39642C6.84876 9.47901 6.91257 9.5873 6.94107 9.70707C6.96957 9.82684 6.96142 9.95249 6.91769 10.0675C6.87396 10.1825 6.7967 10.2815 6.69605 10.3516C6.5954 10.4216 6.47608 10.4593 6.35374 10.4598C5.94247 10.4598 5.98219 10.261 3.57879 8.16957C3.45935 8.06153 3.38736 7.9102 3.37859 7.74879C3.36983 7.58737 3.42502 7.42905 3.53206 7.30854ZM23.3189 10.6256C23.9265 10.014 24.1508 9.10941 23.8973 8.28485C23.4354 6.78867 22.6982 5.39328 21.724 4.17143C21.6645 4.09972 21.5908 4.04133 21.5075 4C21.4243 3.95867 21.3334 3.93532 21.2406 3.93144C21.1479 3.92757 21.0553 3.94325 20.969 3.97749C20.8826 4.01173 20.8043 4.06377 20.7391 4.13026L14.862 10.0469C14.6751 10.2351 14.6003 10.5209 14.7101 10.7609C14.8885 11.1485 14.981 11.5706 14.981 11.9977C14.981 12.4249 14.8885 12.847 14.7101 13.2346C14.6003 13.4745 14.6751 13.7604 14.862 13.9474L20.7391 19.864C20.8042 19.9306 20.8825 19.9827 20.9688 20.0171C21.0551 20.0514 21.1476 20.0672 21.2404 20.0634C21.3331 20.0597 21.424 20.0364 21.5073 19.9952C21.5906 19.954 21.6644 19.8957 21.724 19.8241C22.4722 18.8836 23.0814 17.8393 23.5327 16.7234C23.7001 16.3 23.7401 15.8365 23.6479 15.3904C23.5556 14.9443 23.3352 14.5354 23.014 14.2144C22.1143 13.3087 22.1143 11.8384 23.014 10.9326L23.3189 10.6256ZM16.874 9.43053L19.0052 7.27561C19.1205 7.17262 19.2705 7.11774 19.4246 7.12213C19.5788 7.12652 19.7254 7.18984 19.8348 7.29922C19.9442 7.4086 20.0081 7.55583 20.0135 7.71095C20.0189 7.86607 19.9655 8.01745 19.864 8.13428L17.7328 10.2904C17.6195 10.405 17.4657 10.4697 17.3051 10.4701C17.1444 10.4706 16.9902 10.4068 16.8764 10.2927C16.7625 10.1787 16.6982 10.0238 16.6978 9.86212C16.6974 9.70043 16.7608 9.54518 16.874 9.43053ZM20.4353 16.9363C20.3787 16.9926 20.3117 17.0371 20.238 17.0672C20.1643 17.0974 20.0854 17.1126 20.0059 17.1121C19.9263 17.1115 19.8477 17.0952 19.7744 17.064C19.7011 17.0329 19.6347 16.9875 19.5789 16.9304L17.4641 14.7731C17.4071 14.7165 17.362 14.649 17.3311 14.5746C17.3003 14.5002 17.2844 14.4204 17.2845 14.3398C17.2845 14.2591 17.3004 14.1793 17.3313 14.105C17.3622 14.0306 17.4074 13.9631 17.4644 13.9065C17.5213 13.8499 17.5889 13.8051 17.6632 13.775C17.7374 13.7448 17.8169 13.7298 17.8969 13.7307C17.977 13.7317 18.0561 13.7486 18.1296 13.7806C18.2031 13.8125 18.2696 13.8588 18.3252 13.9168L20.4411 16.0741C20.676 16.3141 20.6748 16.6999 20.4353 16.9363ZM13.2251 14.7296C12.84 14.909 12.4208 15.0019 11.9965 15.0019C11.5722 15.0019 11.153 14.909 10.768 14.7296C10.5284 14.6191 10.2445 14.6955 10.0587 14.8825L4.18052 20.8004C4.11465 20.8657 4.06307 20.9442 4.0291 21.0308C3.99513 21.1174 3.97951 21.2102 3.98325 21.3032C3.98699 21.3963 4.01001 21.4875 4.05082 21.571C4.09163 21.6546 4.14934 21.7286 4.22024 21.7884C5.34552 22.6999 6.61979 23.4072 7.986 23.8787C8.81439 24.1633 9.73626 23.9363 10.3555 23.3117L10.366 23.3011C11.2657 22.3954 12.7262 22.3954 13.6259 23.3011L13.6375 23.3129C14.2568 23.9363 15.1775 24.1633 16.0071 23.8775C17.3727 23.4065 18.6465 22.7001 19.7716 21.7896C19.8428 21.73 19.9007 21.6561 19.9418 21.5725C19.9828 21.489 20.006 21.3978 20.0098 21.3047C20.0137 21.2116 19.9981 21.1187 19.9641 21.0321C19.9301 20.9454 19.8785 20.8669 19.8125 20.8015L14.2685 15.2201C13.7427 14.6908 13.4623 14.6191 13.2251 14.7296ZM9.64162 18.8136L7.7418 20.7262C7.68591 20.7841 7.61917 20.8302 7.54546 20.8618C7.47174 20.8935 7.39251 20.9101 7.31236 20.9107C7.23222 20.9112 7.15276 20.8958 7.0786 20.8652C7.00443 20.8346 6.93704 20.7895 6.88033 20.7325C6.82362 20.6755 6.77872 20.6077 6.74824 20.5331C6.71776 20.4585 6.70231 20.3785 6.70278 20.2978C6.70325 20.2171 6.71963 20.1373 6.75097 20.0631C6.78231 19.9888 6.828 19.9216 6.88537 19.8652L8.78518 17.9514C8.84142 17.8948 8.90818 17.8499 8.98165 17.8193C9.05513 17.7886 9.13387 17.7729 9.2134 17.7729C9.29293 17.7729 9.37168 17.7886 9.44515 17.8193C9.51863 17.8499 9.58539 17.8948 9.64162 17.9514C9.69785 18.008 9.74246 18.0753 9.77289 18.1492C9.80333 18.2232 9.81899 18.3025 9.81899 18.3825C9.81899 18.4626 9.80333 18.5419 9.77289 18.6158C9.74246 18.6898 9.69785 18.757 9.64162 18.8136ZM14.085 17.0375C14.1416 16.9812 14.2087 16.9367 14.2824 16.9065C14.3561 16.8764 14.4349 16.8611 14.5145 16.8617C14.594 16.8622 14.6727 16.8786 14.7459 16.9097C14.8192 16.9409 14.8857 16.9863 14.9415 17.0433L17.0563 19.2006C17.1691 19.3157 17.2318 19.4713 17.2307 19.6329C17.2296 19.7946 17.1648 19.9493 17.0504 20.0628C16.9938 20.1191 16.9268 20.1635 16.8531 20.1936C16.7794 20.2238 16.7005 20.239 16.621 20.2385C16.4604 20.2374 16.3068 20.1721 16.194 20.057L14.0792 17.8985C13.9667 17.7835 13.9041 17.6282 13.9052 17.4668C13.9063 17.3053 13.971 17.1509 14.085 17.0375Z" stroke="#552912" stroke-width="2" mask="url(#path-1-inside-1_1_9695)"/>
</svg>
