<svg width="24" height="24" viewBox="0 0 24 24" fill="none" xmlns="http://www.w3.org/2000/svg">
<g clip-path="url(#clip0_1_9703)">
<path d="M22.9109 12.4251C23.6714 12.9035 24.0985 13.8214 23.9113 14.756C23.7257 15.6837 22.9752 16.3836 22.0665 16.5217C22.2827 16.821 22.4215 17.1691 22.4704 17.5351C22.4768 17.5829 22.4737 17.6315 22.4613 17.6781C22.4489 17.7247 22.4274 17.7685 22.3981 17.8068C22.3688 17.8451 22.3322 17.8773 22.2905 17.9015C22.2488 17.9257 22.2027 17.9414 22.1549 17.9478C22.107 17.9542 22.0584 17.9511 22.0118 17.9387C21.9652 17.9264 21.9214 17.9049 21.8831 17.8756C21.8448 17.8463 21.8126 17.8097 21.7884 17.768C21.7642 17.7262 21.7485 17.6801 21.7422 17.6323C21.6849 17.2032 21.4465 16.8205 21.088 16.5823C20.7581 16.3629 20.3628 16.2858 19.9754 16.3649C19.5863 16.4444 19.2513 16.6719 19.0322 17.0054C18.58 17.6941 18.7688 18.6243 19.453 19.079C19.7831 19.2983 20.1782 19.3755 20.5658 19.2963C20.9549 19.2167 21.2898 18.9893 21.509 18.6556C21.5259 18.6298 21.5421 18.6034 21.5575 18.5766C21.6067 18.4937 21.6866 18.4334 21.7799 18.4088C21.8732 18.3842 21.9724 18.3973 22.0561 18.4452C22.1398 18.4931 22.2013 18.572 22.2273 18.6649C22.2534 18.7578 22.2418 18.8572 22.1952 18.9417C22.1724 18.9815 22.1483 19.0207 22.1231 19.0591C21.7959 19.5573 21.2951 19.8972 20.713 20.0161C20.3909 20.0819 20.0653 20.0754 19.7549 20.0007C19.9681 20.8755 19.6385 21.8321 18.8576 22.3717C18.4858 22.6285 18.0517 22.7643 17.602 22.7643C16.9329 22.7643 16.3044 22.4616 15.8849 21.9474C15.4025 22.1426 14.9061 22.3014 14.4 22.4226V22.9196C14.4 23.3922 14.0155 23.7768 13.5429 23.7768H10.1238C9.65124 23.7768 9.26668 23.3923 9.26668 22.9196V22.3416C9.21282 22.327 9.15886 22.3128 9.10529 22.2971C9.05898 22.2836 9.01579 22.2611 8.97819 22.2309C8.94059 22.2006 8.90932 22.1633 8.88615 22.121C8.86298 22.0786 8.84838 22.0322 8.84318 21.9842C8.83797 21.9362 8.84227 21.8877 8.85582 21.8414C8.88127 21.7544 8.93803 21.6798 9.01517 21.6321C9.0923 21.5844 9.18436 21.5669 9.27361 21.5831C9.32518 21.1594 9.68639 20.8299 10.1238 20.8299H11.2901L10.5335 19.5142C10.4652 19.5273 10.3959 19.5339 10.3265 19.534C9.71541 19.534 9.2183 19.0355 9.2183 18.4228C9.2183 17.8102 9.71541 17.3118 10.3265 17.3118C10.9375 17.3118 11.4346 17.8102 11.4346 18.4228C11.4346 18.698 11.3341 18.95 11.1682 19.1443L11.9243 20.459L12.6977 19.1143C12.541 18.9179 12.4557 18.6741 12.4559 18.4228C12.4559 17.8102 12.9531 17.3118 13.5641 17.3118C14.1752 17.3118 14.6723 17.8102 14.6723 18.4228C14.6723 19.0355 14.175 19.5339 13.564 19.5339C13.4818 19.5339 13.3998 19.5246 13.3197 19.5064L12.5585 20.8298H13.5426C14.0081 20.8298 14.3872 21.2029 14.3987 21.6656C14.7784 21.5672 15.1516 21.4457 15.5164 21.3017C15.176 20.3684 15.4912 19.2841 16.3428 18.6958C16.7146 18.4391 17.1488 18.3033 17.5984 18.3033C17.7753 18.3033 17.9493 18.3248 18.1175 18.3654C17.9741 17.7817 18.0636 17.1419 18.4181 16.602C18.7454 16.1038 19.2462 15.764 19.8283 15.645C19.8656 15.6375 19.9029 15.6308 19.9403 15.6251C19.5889 15.1382 19.4326 14.5113 19.5596 13.8766C19.6868 13.241 20.0793 12.7127 20.6059 12.3982C20.3451 12.2345 20.1211 12.0186 19.9478 11.7641C19.7746 11.5095 19.656 11.2219 19.5994 10.9192C19.4782 10.2738 19.6485 9.63977 20.0166 9.15429C19.4099 9.04863 18.8717 8.69534 18.5316 8.16373C18.1783 7.61154 18.0992 6.95975 18.2588 6.37095C18.1051 6.40463 17.9483 6.42178 17.791 6.4221C17.3316 6.4221 16.8898 6.28105 16.5133 6.01419C15.9802 5.63633 15.6633 5.06329 15.5905 4.45832C15.5649 4.47587 15.539 4.49289 15.5128 4.50937C15.0102 4.82216 14.4164 4.92013 13.8408 4.78532C13.2051 4.63654 12.697 4.22507 12.4033 3.69192C12.071 4.19123 11.5409 4.55568 10.9054 4.65651C10.7901 4.6748 10.6735 4.68401 10.5568 4.68407C10.0302 4.68407 9.54455 4.50149 9.16252 4.19137C9.04055 4.77792 8.68618 5.31398 8.13657 5.64655C7.79177 5.85561 7.39633 5.96629 6.99311 5.96661C6.77106 5.96661 6.55319 5.9316 6.3453 5.86743C6.45409 6.45922 6.32664 7.09302 5.94002 7.61103C5.55696 8.12431 4.98977 8.43856 4.36202 8.49368C4.68387 9.00101 4.80255 9.63649 4.63774 10.2624C4.55843 10.5643 4.41659 10.8463 4.2214 11.0899C4.02622 11.3335 3.78204 11.5334 3.50468 11.6767C3.79364 11.882 4.02917 12.1535 4.19154 12.4685C4.23613 12.5552 4.24449 12.6559 4.21477 12.7487C4.18504 12.8415 4.11968 12.9187 4.03306 12.9633C3.94643 13.0079 3.84564 13.0162 3.75285 12.9865C3.66006 12.9568 3.58289 12.8914 3.53829 12.8048C3.25301 12.2506 2.64814 11.931 2.03267 12.0098C1.22019 12.1136 0.643303 12.8639 0.746803 13.6822C0.7971 14.0802 0.998802 14.4342 1.31469 14.6789C1.62749 14.9211 2.01519 15.0271 2.40664 14.977C3.03964 14.896 3.54959 14.4187 3.67549 13.7891C3.68496 13.7418 3.70364 13.6968 3.73048 13.6568C3.75733 13.6167 3.7918 13.5823 3.83194 13.5555C3.87208 13.5288 3.9171 13.5102 3.96442 13.5008C4.01174 13.4915 4.06045 13.4915 4.10775 13.501C4.15505 13.5104 4.20003 13.5291 4.24011 13.556C4.28019 13.5828 4.3146 13.6173 4.34136 13.6574C4.36811 13.6976 4.3867 13.7426 4.39606 13.7899C4.40543 13.8372 4.40537 13.8859 4.39591 13.9332C4.321 14.3092 4.15044 14.6595 3.90068 14.9503C4.49608 15.0932 5.01625 15.4786 5.32258 16.0275C5.64208 16.5999 5.68221 17.2549 5.488 17.8328C5.5983 17.8161 5.71052 17.8068 5.82424 17.8068C6.32523 17.8068 6.817 17.9803 7.20887 18.2952C8.03424 18.9582 8.26257 20.0978 7.81721 21.0151C7.90567 21.0584 7.99484 21.1002 8.08468 21.1405C8.17265 21.1809 8.24111 21.2544 8.2752 21.345C8.30928 21.4356 8.30623 21.536 8.2667 21.6244C8.22717 21.7127 8.15437 21.7819 8.06411 21.8169C7.97385 21.8519 7.87343 21.8498 7.78468 21.8111C7.65018 21.7509 7.51704 21.6876 7.38535 21.6213C6.97159 22.0346 6.41458 22.2673 5.8218 22.2673C5.3208 22.2673 4.82908 22.0939 4.43716 21.779C3.68923 21.1782 3.43118 20.186 3.72063 19.3227C3.61084 19.3399 3.4999 19.3487 3.38876 19.3491C2.58608 19.3491 1.84363 18.9125 1.45124 18.2097C0.982911 17.3707 1.11454 16.3541 1.7053 15.6634C1.39958 15.5902 1.113 15.4526 0.86474 15.2597C0.393554 14.8948 0.0928055 14.3673 0.0178527 13.7744C-0.102897 12.8194 0.399414 11.9266 1.20575 11.5096C0.475445 10.986 0.104009 10.0439 0.346445 9.12241C0.586632 8.20948 1.37141 7.55394 2.29278 7.47097C1.81203 6.71028 1.82 5.69727 2.38873 4.93513C2.81192 4.36809 3.45964 4.04287 4.16576 4.04287C4.38654 4.04287 4.6024 4.07545 4.80883 4.13831C4.64843 3.25209 5.03463 2.31699 5.84636 1.82579C6.19108 1.61677 6.58645 1.5061 6.98959 1.50577C7.50264 1.50577 7.99501 1.68811 8.38548 2.00419C8.56744 1.12116 9.27553 0.399527 10.2127 0.250887C10.328 0.232565 10.4446 0.223331 10.5614 0.223276C11.3919 0.223276 12.121 0.676884 12.501 1.37016C12.6768 1.10681 12.9069 0.884157 13.176 0.717197C13.5313 0.49604 13.9323 0.382322 14.3402 0.382322C14.5111 0.38242 14.6814 0.402206 14.8478 0.44129C14.8948 0.452288 14.9391 0.472431 14.9783 0.50057C15.0175 0.528709 15.0508 0.564295 15.0762 0.605289C15.1017 0.646286 15.1188 0.691889 15.1266 0.739498C15.1344 0.787107 15.1327 0.835787 15.1217 0.882757C15.1107 0.929743 15.0906 0.974106 15.0625 1.01331C15.0344 1.05251 14.9988 1.08578 14.9578 1.11122C14.9168 1.13665 14.8712 1.15376 14.8236 1.16155C14.7759 1.16935 14.7273 1.16768 14.6803 1.15665C14.2962 1.06674 13.8997 1.13218 13.5641 1.34101C13.2252 1.5519 12.9888 1.88321 12.8983 2.27386C12.7124 3.07748 13.2103 3.88321 14.0082 4.0701C14.3924 4.16001 14.7889 4.09457 15.1245 3.8857C15.4634 3.67486 15.6998 3.34355 15.7902 2.9528C15.8386 2.74379 15.8418 2.52684 15.7994 2.31651C15.7571 2.10619 15.6703 1.90735 15.5448 1.73335C15.5159 1.69427 15.4951 1.64985 15.4835 1.60267C15.4719 1.55549 15.4698 1.50648 15.4773 1.45847C15.4848 1.41047 15.5017 1.36443 15.5271 1.32301C15.5525 1.2816 15.5859 1.24564 15.6253 1.21721C15.6647 1.18877 15.7093 1.16844 15.7566 1.15738C15.8039 1.14632 15.853 1.14475 15.9009 1.15277C15.9488 1.16079 15.9946 1.17823 16.0358 1.20409C16.0769 1.22994 16.1125 1.2637 16.1405 1.30341C16.3622 1.61104 16.5021 1.96998 16.547 2.34652C16.9147 2.0959 17.3493 1.96174 17.7943 1.96149C18.2536 1.96149 18.6954 2.10254 19.0718 2.36939C19.8539 2.92355 20.1709 3.8977 19.9342 4.7767C20.0862 4.74397 20.2413 4.72746 20.3968 4.72743C21.1566 4.72743 21.8551 5.1104 22.2654 5.75183C22.7831 6.56089 22.7125 7.58361 22.1642 8.3089C23.0601 8.46631 23.7878 9.16812 23.9613 10.0927C24.1388 11.0386 23.6908 11.9601 22.9109 12.4251ZM10.3264 18.0466C10.1205 18.0466 9.95297 18.2154 9.95297 18.4229C9.95297 18.6305 10.1205 18.7993 10.3264 18.7993C10.5324 18.7993 10.6999 18.6305 10.6999 18.4229C10.6999 18.2154 10.5323 18.0466 10.3264 18.0466ZM11.4658 21.5646H10.1236C10.0573 21.5646 10.0012 21.6206 10.0012 21.687V22.9196C10.0012 22.9861 10.0573 23.0421 10.1236 23.0421H11.4658V21.5646ZM13.5641 18.7993C13.77 18.7993 13.9375 18.6305 13.9375 18.4229C13.9375 18.2154 13.77 18.0465 13.5641 18.0465C13.3581 18.0465 13.1906 18.2154 13.1906 18.4229C13.1906 18.6305 13.3581 18.7993 13.5641 18.7993ZM13.6652 21.6871C13.6652 21.6207 13.6091 21.5646 13.5427 21.5646H12.2005V23.0421H13.5427C13.6091 23.0421 13.6652 22.9861 13.6652 22.9197V21.6871ZM17.5985 19.0381C17.2987 19.0381 17.0088 19.1289 16.7605 19.3004C16.0844 19.7675 15.9124 20.7009 16.3769 21.3813C16.6541 21.7871 17.112 22.0294 17.6019 22.0294C17.9017 22.0294 18.1915 21.9387 18.4398 21.7672C19.1159 21.3001 19.2879 20.3666 18.8234 19.6863C18.5462 19.2804 18.0883 19.0381 17.5985 19.0381ZM4.89733 21.2063C5.16307 21.4198 5.48275 21.5327 5.82185 21.5327C6.27611 21.5327 6.6992 21.328 6.98256 20.9713C7.49457 20.3264 7.38971 19.3828 6.7488 18.868C6.48306 18.6544 6.16337 18.5415 5.82433 18.5415C5.37016 18.5415 4.94711 18.7462 4.66371 19.103C4.1516 19.7478 4.25641 20.6914 4.89733 21.2063ZM2.09281 17.8515C2.35555 18.322 2.85214 18.6143 3.38885 18.6143C3.64104 18.6143 3.89154 18.5481 4.11316 18.4231C4.82805 18.0193 5.08286 17.1052 4.6811 16.3855C4.41855 15.9151 3.9221 15.6228 3.38553 15.6228C3.13155 15.6232 2.88199 15.6892 2.66094 15.8143C1.94595 16.218 1.69114 17.1319 2.09281 17.8515ZM2.49083 8.19659C1.81897 8.19659 1.22929 8.65423 1.05693 9.30935C0.847115 10.1069 1.32074 10.9274 2.11274 11.1385C2.23688 11.1716 2.36482 11.1884 2.49331 11.1885C3.16522 11.1885 3.75485 10.7308 3.92726 10.0756C4.1373 9.27804 3.66364 8.45764 2.87145 8.2467C2.74729 8.21355 2.61934 8.19671 2.49083 8.19659ZM5.05488 5.07651C4.79585 4.88095 4.4884 4.77754 4.1658 4.77754C3.69382 4.77754 3.26075 4.99508 2.97762 5.37449C2.48516 6.03449 2.61805 6.97447 3.27392 7.4698C3.53295 7.66536 3.84035 7.76876 4.16295 7.76876C4.63497 7.76876 5.06805 7.55112 5.35132 7.17172C5.84383 6.51172 5.71085 5.57183 5.05488 5.07651ZM8.26309 2.96447C7.99191 2.5111 7.51585 2.24049 6.98959 2.24049C6.72055 2.24082 6.45674 2.31479 6.22675 2.45438C5.52419 2.87953 5.29671 3.80095 5.71961 4.50825C5.99088 4.96152 6.46689 5.23208 6.99306 5.23208C7.26219 5.23177 7.5261 5.15778 7.75618 5.01815C8.45879 4.59295 8.68622 3.67171 8.26309 2.96447ZM12.0255 2.22038C11.9107 1.48885 11.295 0.95804 10.5614 0.95804C10.4838 0.95804 10.4053 0.964273 10.3279 0.976555C9.51891 1.1049 8.96471 1.87229 9.09244 2.68725C9.20724 3.41873 9.82308 3.9495 10.5567 3.9495C10.6342 3.9495 10.7128 3.94326 10.7902 3.93103C11.5993 3.80254 12.1534 3.0352 12.0255 2.22038ZM20.28 14.0209C20.1182 14.8298 20.6399 15.62 21.443 15.7826C21.5402 15.8023 21.6394 15.8122 21.7375 15.8122C22.4406 15.8122 23.0518 15.3074 23.1909 14.6118C23.3528 13.8031 22.8311 13.0128 22.028 12.8502C21.9307 12.8305 21.8316 12.8206 21.7334 12.8206C21.0304 12.8206 20.4192 13.3254 20.28 14.0209ZM18.647 2.96878C18.3954 2.79042 18.1006 2.69621 17.7943 2.69621C17.3115 2.69621 16.8574 2.93302 16.5794 3.32967C16.1068 4.00434 16.2677 4.93977 16.9382 5.41494C17.1898 5.59335 17.4846 5.68757 17.791 5.68757C18.2737 5.68757 18.7277 5.4508 19.0057 5.05415C19.4783 4.37938 19.3175 3.4439 18.647 2.96878ZM21.6465 6.14774C21.372 5.71836 20.9048 5.4621 20.3969 5.4621C20.1126 5.46224 19.8344 5.54475 19.596 5.69966C18.9063 6.14596 18.7065 7.07384 19.1505 7.76792C19.4251 8.19729 19.8924 8.4536 20.4003 8.4536C20.6841 8.4536 20.961 8.37143 21.2011 8.21604C21.8908 7.76961 22.0906 6.84181 21.6465 6.14774ZM23.2393 10.2282C23.1068 9.52249 22.4942 9.0102 21.7824 9.0102C21.6894 9.01028 21.5967 9.01907 21.5053 9.03645C20.7004 9.18921 20.1693 9.9731 20.3215 10.7838C20.454 11.4895 21.0666 12.0018 21.7782 12.0018C21.8704 12.0018 21.9637 11.993 22.0553 11.9756C22.8603 11.8228 23.3914 11.0389 23.2393 10.2282Z" fill="#552912"/>
<path d="M22.7106 14.5159C22.6707 14.7148 22.4773 14.8439 22.2783 14.804C22.231 14.7945 22.186 14.7758 22.1459 14.7489C22.1058 14.7221 22.0714 14.6876 22.0447 14.6475C22.018 14.6073 21.9994 14.5623 21.99 14.515C21.9807 14.4676 21.9807 14.4189 21.9902 14.3716C22.0199 14.2234 21.9279 14.0793 21.7851 14.0504C21.6901 14.0306 21.6069 13.9739 21.5535 13.8929C21.5002 13.8119 21.4811 13.7131 21.5003 13.618C21.5196 13.5229 21.5756 13.4393 21.6563 13.3854C21.7369 13.3315 21.8356 13.3117 21.9308 13.3304C22.4698 13.4394 22.8196 13.9713 22.7106 14.5159ZM21.3003 7.16655C21.2909 7.21385 21.2722 7.25883 21.2453 7.29891C21.2185 7.339 21.184 7.3734 21.1439 7.40015C21.1037 7.4269 21.0587 7.44547 21.0114 7.45482C20.964 7.46416 20.9153 7.46408 20.868 7.45459C20.7725 7.43546 20.6885 7.37916 20.6345 7.29808C20.5805 7.21701 20.5609 7.11779 20.58 7.02227C20.6097 6.87405 20.5177 6.72996 20.3748 6.70103C20.2798 6.68115 20.1966 6.62452 20.1433 6.5435C20.0899 6.46248 20.0708 6.36366 20.09 6.26859C20.1093 6.17351 20.1654 6.08991 20.246 6.03602C20.3267 5.98214 20.4254 5.96234 20.5206 5.98094C21.0596 6.09007 21.4093 6.62191 21.3003 7.16655ZM15.3997 2.66806C15.3794 2.76236 15.3227 2.84486 15.242 2.89775C15.1613 2.95064 15.0631 2.96966 14.9685 2.95071C14.8739 2.93177 14.7906 2.87637 14.7365 2.79649C14.6824 2.71661 14.6619 2.61865 14.6794 2.52378C14.7091 2.37557 14.617 2.23147 14.4742 2.2026C14.3792 2.18271 14.296 2.12608 14.2427 2.04506C14.1893 1.96405 14.1702 1.86522 14.1894 1.77015C14.2087 1.67508 14.2648 1.59148 14.3454 1.53759C14.4261 1.4837 14.5248 1.4639 14.62 1.48251C15.1589 1.59158 15.5087 2.12343 15.3997 2.66806Z" fill="#552912"/>
</g>
<defs>
<clipPath id="clip0_1_9703">
<rect width="24" height="24" fill="white" transform="matrix(1 0 0 -1 0 24)"/>
</clipPath>
</defs>
</svg>
