<svg width="24" height="24" viewBox="0 0 24 24" fill="none" xmlns="http://www.w3.org/2000/svg">
<g clip-path="url(#clip0_1_9773)">
<path d="M11.9987 9.16901C10.948 9.16901 10.0933 10.0238 10.0933 11.0744C10.0933 11.1676 10.1303 11.257 10.1963 11.323C10.2622 11.3889 10.3516 11.4259 10.4448 11.4259C10.5381 11.4259 10.6275 11.3889 10.6934 11.323C10.7593 11.257 10.7963 11.1676 10.7963 11.0744C10.7963 10.4114 11.3357 9.87204 11.9987 9.87204C12.1929 9.87204 12.3502 9.71465 12.3502 9.52053C12.3502 9.3264 12.1929 9.16901 11.9987 9.16901ZM8.7069 11.4259C8.80012 11.4259 8.88953 11.3889 8.95545 11.323C9.02138 11.257 9.05841 11.1676 9.05841 11.0744C9.05841 9.45313 10.3774 8.13416 11.9987 8.13416C12.1929 8.13416 12.3502 7.97677 12.3502 7.78265C12.3502 7.58852 12.1929 7.43113 11.9987 7.43113C9.98978 7.43113 8.35538 9.06553 8.35538 11.0744C8.35538 11.1676 8.39242 11.257 8.45834 11.323C8.52426 11.3889 8.61367 11.4259 8.7069 11.4259ZM23.9779 16.8122C23.8833 15.4371 23.4075 14.0403 22.663 12.8634C22.5894 12.7462 22.4872 12.6497 22.366 12.5829C22.2448 12.5162 22.1086 12.4813 21.9702 12.4817H17.1909L17.9215 11.4438L18.041 11.5193C18.209 11.6258 18.4038 11.6823 18.6027 11.6822C18.9527 11.6822 19.2954 11.5084 19.4959 11.1914C19.8065 10.6998 19.6594 10.0472 19.1679 9.73654L19.137 9.71705L22.6938 4.66351C22.7754 4.68324 22.8582 4.6935 22.9407 4.6935C23.2907 4.6935 23.6334 4.51971 23.8339 4.20265C24.1446 3.71114 23.9974 3.0585 23.5059 2.74781L19.4197 0.165029C18.9351 -0.144584 18.2714 0.00787906 17.9648 0.49292C17.7253 0.871945 17.7542 1.37344 18.0376 1.72026L16.9767 3.5987C16.954 3.6389 16.9395 3.68317 16.9339 3.72899C16.9283 3.77481 16.9318 3.82129 16.9441 3.86576C16.9565 3.91024 16.9775 3.95184 17.006 3.9882C17.0344 4.02455 17.0697 4.05495 17.1099 4.07765C17.1501 4.10036 17.1944 4.11494 17.2402 4.12053C17.2861 4.12613 17.3325 4.12264 17.377 4.11026C17.4215 4.09789 17.4631 4.07687 17.4995 4.04841C17.5358 4.01996 17.5662 3.98461 17.5889 3.9444L18.605 2.14517L22.0665 4.33332L18.542 9.34102L15.5936 7.47734L16.7755 5.38462C16.8209 5.30348 16.8322 5.20769 16.8071 5.11821C16.782 5.02872 16.7224 4.95283 16.6415 4.90712C16.5606 4.86142 16.4648 4.84963 16.3752 4.87433C16.2856 4.89903 16.2095 4.95821 16.1634 5.03892L14.9963 7.1054C14.7775 6.9932 14.5261 6.96169 14.2863 7.01639C14.1511 7.0465 14.0232 7.10312 13.91 7.18298C13.7968 7.26284 13.7006 7.36436 13.6269 7.48166C13.5525 7.59857 13.5021 7.72906 13.4785 7.86558C13.4549 8.0021 13.4587 8.14194 13.4895 8.27701C13.5196 8.41225 13.5762 8.54017 13.6561 8.65338C13.736 8.76658 13.8375 8.86283 13.9548 8.93655L13.9605 8.94016L11.9605 12.4817H2.02721C1.88883 12.4813 1.75263 12.5162 1.63142 12.583C1.51021 12.6497 1.40798 12.7462 1.33436 12.8634C0.601099 14.0228 0.110668 15.4865 0.0194624 16.8123C-0.165293 19.4977 0.993763 21.6998 2.28972 23.2174C2.7136 23.7138 3.33039 23.9985 3.98191 23.9985H20.0154C20.3372 23.9985 20.6552 23.9287 20.9473 23.7939C21.2395 23.659 21.4989 23.4623 21.7076 23.2174C23.0684 21.6237 24.1713 19.6224 23.9779 16.8122ZM18.6684 1.35347L18.6679 1.35314C18.5061 1.25158 18.457 1.02999 18.5591 0.868524C18.6612 0.707015 18.8823 0.656022 19.0441 0.759227L23.1303 3.3421C23.2941 3.44563 23.3432 3.66319 23.2396 3.82704C23.136 3.9909 22.9186 4.03997 22.7546 3.93639L18.6684 1.35347ZM14.2211 7.85726C14.3233 7.69561 14.5445 7.6449 14.7061 7.74796L18.7923 10.3308C18.9561 10.4344 19.0051 10.6519 18.9016 10.8157C18.798 10.9797 18.5805 11.0286 18.4166 10.9251L14.3304 8.34225C14.1682 8.24078 14.1189 8.01896 14.2211 7.85726ZM14.5555 9.31618L17.3264 11.0677L16.3312 12.4817H12.7678L14.5555 9.31618ZM1.92851 13.2392C1.93899 13.2225 1.95355 13.2087 1.97081 13.1992C1.98808 13.1896 2.00749 13.1847 2.02721 13.1847H21.9702C21.9899 13.1847 22.0093 13.1896 22.0266 13.1992C22.0439 13.2087 22.0584 13.2225 22.0689 13.2392C22.246 13.5192 22.4059 13.8097 22.5476 14.1092H1.44979C1.59155 13.8097 1.75141 13.5192 1.92851 13.2392ZM21.9792 21.6679H19.5419C19.3477 21.6679 19.1904 21.8253 19.1904 22.0194C19.1904 22.2135 19.3477 22.3709 19.5419 22.3709H21.4881C21.3866 22.5036 21.2815 22.6336 21.1731 22.7608C21.0303 22.9284 20.8529 23.063 20.653 23.1553C20.4532 23.2476 20.2356 23.2954 20.0155 23.2954H3.98195C3.76181 23.2954 3.54429 23.2476 3.34443 23.1553C3.14457 23.063 2.96714 22.9284 2.8244 22.7608C2.71599 22.6336 2.61094 22.5036 2.50935 22.3709H17.9015C18.0957 22.3709 18.253 22.2135 18.253 22.0194C18.253 21.8253 18.0957 21.6679 17.9015 21.6679H2.01817C1.28889 20.5175 0.583383 18.8587 0.720848 16.8604C0.76842 16.1688 0.916899 15.4786 1.15757 14.8122H22.8399C23.0805 15.4785 23.229 16.1687 23.2766 16.8604C23.414 18.8587 22.7085 20.5176 21.9792 21.6679ZM1.86345 9.44451C2.89076 9.44451 3.72652 8.60875 3.72652 7.58144V1.94181L8.6477 0.711514V4.71914C8.32914 4.46488 7.92598 4.31232 7.48766 4.31232C6.46035 4.31232 5.6246 5.14808 5.6246 6.17539C5.6246 7.2027 6.46035 8.03845 7.48766 8.03845C8.51497 8.03845 9.35073 7.2027 9.35073 6.17539V0.681519C9.35073 0.470798 9.25545 0.275545 9.08934 0.14586C8.92324 0.0161748 8.7106 -0.0289126 8.5063 0.0222208L3.53825 1.26423C3.39113 1.30084 3.26051 1.38565 3.16721 1.50514C3.07392 1.62464 3.02332 1.77193 3.02349 1.92353V6.12519C2.70493 5.87093 2.30177 5.71837 1.86345 5.71837C0.836144 5.71837 0.000386941 6.55413 0.000386941 7.58144C0.000386941 8.60875 0.836144 9.44451 1.86345 9.44451ZM7.48766 7.33543C6.848 7.33543 6.32762 6.81505 6.32762 6.17539C6.32762 5.53573 6.848 5.01535 7.48766 5.01535C8.12732 5.01535 8.6477 5.53573 8.6477 6.17539C8.6477 6.81505 8.12732 7.33543 7.48766 7.33543ZM1.86345 6.4214C2.50311 6.4214 3.02349 6.94178 3.02349 7.58144C3.02349 8.2211 2.50307 8.74148 1.86345 8.74148C1.22384 8.74148 0.703413 8.2211 0.703413 7.58144C0.703413 6.94178 1.22379 6.4214 1.86345 6.4214ZM13.1132 17.2103C13.2288 17.238 13.34 17.2497 13.4452 17.2497C13.9028 17.2497 14.2486 17.029 14.3592 16.9486C14.4346 16.8938 14.4851 16.8112 14.4997 16.7192C14.5142 16.6271 14.4916 16.533 14.4368 16.4576C14.382 16.3822 14.2994 16.3316 14.2073 16.3171C14.1153 16.3025 14.0212 16.3251 13.9458 16.38C13.8927 16.4185 13.6113 16.6069 13.2773 16.5267C13.0939 16.4826 12.9658 16.3774 12.8907 16.2969C12.8593 16.2631 12.8214 16.2359 12.7794 16.2167C12.7374 16.1976 12.692 16.1869 12.6459 16.1853C12.5998 16.1837 12.5538 16.1912 12.5105 16.2074C12.4673 16.2236 12.4277 16.2481 12.3939 16.2796C12.3602 16.3111 12.3329 16.3489 12.3138 16.3909C12.2947 16.4329 12.284 16.4783 12.2824 16.5244C12.2808 16.5706 12.2883 16.6166 12.3045 16.6598C12.3206 16.703 12.3452 16.7427 12.3766 16.7764C12.5177 16.9275 12.7598 17.1254 13.1132 17.2103ZM13.4636 16.2803C13.5568 16.2803 13.6462 16.2433 13.7121 16.1774C13.7781 16.1114 13.8151 16.022 13.8151 15.9288C13.8151 15.8356 13.7781 15.7462 13.7121 15.6802C13.6462 15.6143 13.5568 15.5773 13.4636 15.5773C13.3703 15.5773 13.2809 15.6143 13.215 15.6802C13.1491 15.7462 13.1121 15.8356 13.1121 15.9288C13.1121 16.022 13.1491 16.1114 13.215 16.1774C13.2809 16.2433 13.3703 16.2803 13.4636 16.2803ZM14.7867 17.5483C14.3443 17.3684 13.787 17.4747 13.4614 17.8011C13.2191 18.0439 13.1784 18.3208 13.1487 18.5229C13.1397 18.5842 13.1228 18.6984 13.1053 18.7121C13.1045 18.7128 13.0475 18.7487 12.8665 18.7098C12.9282 18.5992 12.9705 18.4788 12.9916 18.354C13.0655 17.9077 12.8752 17.4611 12.5068 17.2163C12.1629 16.9878 11.7174 16.9672 11.3442 17.1627C11.2628 17.2066 11.202 17.2808 11.175 17.3692C11.1479 17.4577 11.1568 17.5532 11.1997 17.6351C11.2426 17.7171 11.3161 17.7788 11.4042 17.8069C11.4923 17.8351 11.5879 17.8274 11.6704 17.7855C11.8161 17.7092 11.9876 17.7154 12.1177 17.8019C12.2749 17.9064 12.3215 18.0968 12.298 18.239C12.2646 18.4402 12.082 18.6017 11.8538 18.6392C11.8261 18.6415 11.7983 18.6447 11.7705 18.6489C11.6806 18.6622 11.5994 18.7099 11.5439 18.7819C11.4884 18.8539 11.4629 18.9446 11.4729 19.035C11.4828 19.1253 11.5273 19.2084 11.5972 19.2666C11.667 19.3248 11.7567 19.3537 11.8474 19.3471C11.8749 19.3452 11.9024 19.3423 11.9297 19.3386C12.1469 19.3272 12.3204 19.4436 12.3623 19.5696C12.4248 19.7581 12.1423 19.9984 12.064 20.052C11.8123 20.2208 11.5026 20.147 11.3859 20.1191C10.9622 20.018 10.686 19.683 10.559 19.4923C10.4155 19.2766 10.3642 19.0873 10.3145 18.9042C10.2428 18.6398 10.1615 18.34 9.81515 18.1395C9.51819 17.9677 9.19292 17.939 8.92287 18.061C8.57168 18.2195 8.44729 18.5567 8.41008 18.6943C8.39804 18.7388 8.39489 18.7853 8.40082 18.8311C8.40674 18.8769 8.42163 18.9211 8.44463 18.9611C8.46763 19.0011 8.49828 19.0362 8.53485 19.0644C8.57141 19.0926 8.61317 19.1133 8.65773 19.1253C8.7023 19.1374 8.7488 19.1405 8.79459 19.1346C8.84037 19.1287 8.88455 19.1138 8.92458 19.0908C8.96461 19.0678 8.99972 19.0372 9.02789 19.0006C9.05607 18.964 9.07676 18.9222 9.08878 18.8777C9.10251 18.8268 9.14399 18.7325 9.21219 18.7017C9.283 18.6698 9.38813 18.7047 9.46303 18.748C9.55053 18.7987 9.57242 18.8538 9.63606 19.0883C9.69132 19.292 9.76697 19.5709 9.9738 19.8817C10.1579 20.1584 10.565 20.646 11.2228 20.803C11.646 20.9039 12.101 20.8736 12.4556 20.6359C12.7453 20.4416 13.1789 19.978 13.0523 19.4307C13.2431 19.4254 13.4046 19.3707 13.5383 19.2662C13.7775 19.0792 13.8161 18.8169 13.8442 18.6254C13.8676 18.4663 13.8844 18.3726 13.9591 18.2979C14.0849 18.1718 14.3427 18.1269 14.5218 18.1998C14.677 18.2629 14.8093 18.4369 14.8668 18.6538C14.9263 18.8777 14.8945 19.1043 14.7839 19.2452C14.5939 19.4873 14.1855 19.4622 14.1683 19.461C13.975 19.4479 13.8068 19.5938 13.7934 19.7875C13.7765 20.0337 13.9816 20.1654 14.2146 20.1654C14.452 20.1654 14.9957 20.114 15.3369 19.6793C15.5846 19.3637 15.6629 18.9129 15.5463 18.4734C15.4315 18.0408 15.1476 17.6951 14.7867 17.5483Z" fill="#552912"/>
</g>
<defs>
<clipPath id="clip0_1_9773">
<rect width="24" height="24" fill="white"/>
</clipPath>
</defs>
</svg>
