<svg width="26" height="24" viewBox="0 0 26 24" fill="none" xmlns="http://www.w3.org/2000/svg">
<path d="M1.58114 14.4297C0.414708 16.1614 2.19862 18.3502 4.13514 17.5466C4.07908 17.9235 4.13436 18.3175 4.23792 18.5955C4.73471 19.9208 6.46956 20.4394 7.60952 19.4201C7.76836 21.4026 10.2523 22.0403 11.3868 20.5118C11.6327 20.9542 12.0296 21.2934 12.5049 21.4675C12.9802 21.6417 13.5023 21.639 13.9758 21.4602C14.4425 21.2848 14.8313 20.9486 15.0723 20.5121C15.3132 20.0756 15.3905 19.5674 15.2902 19.079C15.6848 19.2492 16.1251 19.2823 16.5407 19.1733C16.5898 19.3578 16.6809 19.5221 16.8382 19.6327C18.4033 20.6815 18.478 20.9221 18.9351 20.9221C18.9694 20.9221 19.0029 20.9042 19.0363 20.9003C20.276 21.7895 22.2195 23.0852 23.3548 23.8187C23.695 24.0383 24.075 24.0617 24.1934 23.8709C24.3117 23.6801 24.1225 23.35 23.7745 23.1429C22.3668 22.3044 20.9436 21.4922 19.5059 20.7064C19.5534 20.6714 19.6071 20.6504 19.6499 20.6052C19.8064 20.4261 19.8477 20.4378 19.9785 20.1972C20.1545 20.4035 20.3515 20.6138 20.5859 20.8201C21.908 21.918 23.5292 21.8316 24.9331 20.9268C25.317 20.6776 25.4688 20.2743 25.3038 20.1193C25.141 19.9659 24.7984 20.05 24.4877 20.2673C23.3065 21.088 22.0747 21.1946 20.8934 20.4043C20.6086 20.1993 20.3411 19.9712 20.0938 19.7222C20.0972 19.5437 20.0429 19.3689 19.9388 19.2239L18.742 17.6556C18.6369 17.527 18.4938 17.4349 18.3332 17.3925C18.4446 16.9642 18.4461 16.5289 18.2164 16.0368C19.6382 16.0212 20.691 14.5815 20.1615 13.183C20.0155 12.7972 19.7587 12.4632 19.4233 12.2229C19.935 12.0176 20.3459 11.6201 20.568 11.1155C20.7901 10.6109 20.8057 10.0393 20.6116 9.52333C20.4206 9.02052 20.0433 8.61059 19.558 8.3787C20.7034 6.86811 19.4459 4.75171 17.5841 5.0219C18.1526 3.19984 16.2137 1.65732 14.5676 2.56056C14.6159 1.06242 13.1216 -0.0129031 11.713 0.520478C11.2553 0.696246 10.874 1.02761 10.6362 1.45643C9.98754 -0.547063 7.09327 -0.472312 6.58947 1.61138C6.31102 1.27611 5.93446 1.03659 5.51277 0.926524C5.09108 0.816456 4.64549 0.841383 4.2387 0.997796C3.96715 1.10013 3.71983 1.25778 3.51242 1.46074C3.30501 1.6637 3.14204 1.90754 3.03383 2.17681C2.92563 2.44607 2.87456 2.73489 2.88385 3.02493C2.89315 3.31497 2.96262 3.59992 3.08784 3.8617C2.72524 3.90327 2.3798 4.03887 2.08574 4.25505C1.79168 4.47123 1.55921 4.7605 1.41136 5.09419C1.26352 5.42788 1.20543 5.79441 1.24286 6.15746C1.28029 6.52052 1.41193 6.86749 1.62474 7.164C1.262 7.26472 0.933254 7.4617 0.67335 7.73406C0.413445 8.00642 0.232061 8.34402 0.148416 8.71108C0.0647719 9.07814 0.0819832 9.46099 0.198226 9.81907C0.31447 10.1771 0.525415 10.4971 0.80871 10.745C-0.559394 11.8235 -0.118673 13.9889 1.58114 14.4297ZM3.79487 16.8497C3.46535 16.9745 3.09981 16.9633 2.77849 16.8188C2.45717 16.6743 2.20633 16.4082 2.08104 16.0789C2.00505 15.8779 1.97889 15.6614 2.00482 15.4481C2.03074 15.2348 2.10797 15.0309 2.22989 14.854C2.35182 14.677 2.5148 14.5322 2.7049 14.432C2.895 14.3318 3.10655 14.2792 3.32144 14.2786C3.85872 14.2786 4.36484 14.6056 4.56574 15.1367C4.6277 15.2998 4.6569 15.4735 4.65169 15.6479C4.64647 15.8222 4.60694 15.9939 4.53535 16.153C4.46375 16.3121 4.36151 16.4555 4.23445 16.5751C4.10739 16.6946 3.95802 16.7879 3.79487 16.8497ZM7.03409 18.8859C6.71527 18.983 6.37151 18.9554 6.07221 18.8089C5.7729 18.6624 5.54034 18.4077 5.42148 18.0964C5.32029 17.8323 5.30732 17.5426 5.38452 17.2706C5.46172 16.9986 5.62494 16.7588 5.84975 16.5873C7.27391 16.1816 8.15146 17.9967 7.03409 18.8859ZM10.1729 20.4977C9.06094 20.9198 8.00819 19.7759 8.4894 18.7092C8.9784 17.6268 10.5272 17.686 10.9437 18.7839C11.068 19.1135 11.0567 19.4788 10.9122 19.8C10.7677 20.1212 10.5019 20.3721 10.1729 20.4977ZM13.7002 20.7313C13.3706 20.8559 13.005 20.8447 12.6836 20.7002C12.3622 20.5557 12.1112 20.2897 11.9856 19.9605C11.5643 18.8493 12.7035 17.7958 13.7742 18.2778C14.8464 18.7606 14.8051 20.3124 13.6994 20.7321L13.7002 20.7313ZM15.21 18.1143L14.8853 17.8028C14.6455 17.571 14.5073 17.2536 14.501 16.9201C14.4948 16.5866 14.6209 16.2642 14.8518 16.0236L15.1641 15.6989C15.3912 15.4636 15.7024 15.328 16.0294 15.3219C16.3564 15.3157 16.6725 15.4396 16.9083 15.6662L17.2501 15.9955C17.4876 16.2237 17.6223 16.5313 17.6277 16.8606C17.6402 17.5459 17.1465 17.8433 17.0219 18.0107L16.9542 18.0808C16.7271 18.316 16.4159 18.4516 16.089 18.4579C15.7621 18.4641 15.446 18.3406 15.21 18.1143ZM19.3198 19.6965C19.3392 19.7214 19.3353 19.8094 19.259 19.8888L19.0893 20.0656C19.0114 20.145 18.9219 20.1497 18.8993 20.1341L18.2857 19.6918L18.8121 19.0308L19.3198 19.6965ZM18.123 18.1283L18.3254 18.393L17.6534 19.2371L17.2735 18.9646C17.2594 18.8158 17.4829 18.685 17.845 18.2794L17.8473 18.277C17.9299 18.2046 17.968 18.101 18.123 18.1283ZM19.0052 14.9724C18.6853 15.0697 18.3404 15.0407 18.0413 14.8913C17.7422 14.742 17.5117 14.4837 17.3973 14.1696C17.2972 13.9026 17.2867 13.6103 17.3671 13.3367C17.4476 13.0631 17.6148 12.8231 17.8434 12.6528C18.1613 12.5639 18.501 12.5974 18.7954 12.7468C19.0897 12.8961 19.3174 13.1504 19.4335 13.4595C19.5328 13.7243 19.5448 14.014 19.4678 14.2862C19.3907 14.5584 19.2286 14.7989 19.0052 14.9724ZM19.1119 11.5128C18.8129 11.6256 18.4832 11.6267 18.1835 11.5157C17.8838 11.4048 17.6342 11.1894 17.4807 10.9091C17.3272 10.6288 17.28 10.3025 17.348 9.99022C17.4159 9.67795 17.5944 9.40072 17.8504 9.20953C18.1409 9.2142 18.3799 9.17138 18.6338 9.0756C18.714 9.04524 18.784 9.00241 18.858 8.96348C20.2043 9.18773 20.3671 11.0363 19.1119 11.5128ZM18.6789 8.16457C18.4108 8.15902 18.1441 8.20501 17.8933 8.30006C17.8138 8.32965 17.7445 8.37247 17.6713 8.41063C17.4418 8.37398 17.226 8.27754 17.0456 8.13101C16.8651 7.98449 16.7265 7.79303 16.6435 7.57591C16.5675 7.37484 16.5414 7.15834 16.5673 6.94496C16.5933 6.73158 16.6706 6.52766 16.7926 6.35069C16.9146 6.17372 17.0777 6.02896 17.2679 5.92881C17.4581 5.82866 17.6697 5.7761 17.8847 5.77565C19.1578 5.77565 19.7052 7.3937 18.6789 8.16379V8.16457ZM16.8226 3.92867C17.0328 4.48619 16.8397 5.09432 16.392 5.44316C16.0724 5.53822 15.7286 5.50787 15.4305 5.35828C15.1325 5.20869 14.9027 4.95112 14.788 4.63803C14.6884 4.37295 14.6766 4.08288 14.7544 3.8106C14.8322 3.53833 14.9955 3.29828 15.2201 3.12587C15.9209 2.92809 16.5906 3.31508 16.8226 3.92867ZM11.9887 1.24775C13.0967 0.829606 14.1549 1.96645 13.6722 3.03632C13.1894 4.10776 11.6391 4.06883 11.2178 2.96157C11.0935 2.63214 11.1049 2.26689 11.2494 1.94581C11.3939 1.62473 11.6597 1.37322 11.9887 1.24775ZM9.18396 0.889562C10.2694 1.37934 10.204 2.92887 9.10921 3.34467C8.77962 3.46958 8.4139 3.45845 8.09251 3.31374C7.77111 3.16903 7.52036 2.90259 7.39538 2.57302C6.97491 1.46577 8.11175 0.407573 9.18396 0.889562ZM7.03331 3.46225C7.97081 4.56483 9.72591 4.43869 10.4625 3.13755C10.4734 3.17025 10.4765 3.20452 10.489 3.238C10.5954 3.52021 10.7613 3.77616 10.9756 3.98838C11.1899 4.2006 11.4475 4.3641 11.7307 4.46772C12.0139 4.57134 12.3162 4.61265 12.6168 4.58883C12.9175 4.56501 13.2094 4.47661 13.4728 4.32968C13.4697 4.42545 13.4806 4.52123 13.4915 4.617C13.5193 4.89933 13.6042 5.17307 13.7411 5.42159C13.8779 5.6701 14.0638 5.88822 14.2875 6.0627C14.5112 6.23718 14.768 6.36437 15.0424 6.43657C15.3168 6.50876 15.6029 6.52444 15.8835 6.48267C15.7286 6.9622 15.7533 7.48174 15.9532 7.94437C16.153 8.407 16.5144 8.78112 16.9698 8.99696C16.7985 9.21954 16.6737 9.47425 16.6027 9.74599C16.5317 10.0177 16.516 10.3009 16.5565 10.5789C16.597 10.8568 16.693 11.1237 16.8386 11.3639C16.9842 11.604 17.1766 11.8125 17.4043 11.9769C16.9125 12.1729 16.5134 12.5482 16.2875 13.027C16.0616 13.5057 16.0258 14.0524 16.1872 14.5566C14.9756 14.4764 14.4617 15.3586 14.2904 15.4832C14.0421 15.7432 13.8673 16.0644 13.7838 16.4141C13.7004 16.7638 13.7113 17.1294 13.8154 17.4734C13.4032 17.3497 12.9628 17.3566 12.5547 17.4933C12.1467 17.6299 11.7909 17.8895 11.5363 18.2365C10.8962 17.0841 9.33892 16.7633 8.3033 17.6837C8.27959 17.3517 8.17698 17.0302 8.00399 16.7459C7.83101 16.4616 7.59264 16.2227 7.30873 16.049C7.02481 15.8754 6.70354 15.772 6.37163 15.7476C6.03973 15.7231 5.70677 15.7782 5.40046 15.9083C5.48096 15.3952 5.36627 14.8706 5.07899 14.4379C4.79172 14.0051 4.35272 13.6958 3.84859 13.5708C4.43103 12.7042 4.31968 11.5572 3.50287 10.8284C4.38898 10.1361 4.57975 8.90741 3.92257 7.96679C5.09756 7.63197 5.81471 6.28411 5.23616 5.05461C5.66374 5.00797 6.06628 4.82973 6.3882 4.54449C6.71012 4.25925 6.93553 3.8811 7.03331 3.46225ZM4.15383 6.9888C3.83407 7.08741 3.48866 7.05951 3.18888 6.91085C2.88909 6.76219 2.65782 6.50412 2.54278 6.18989C2.44684 5.92487 2.43767 5.63619 2.51662 5.36562C2.59557 5.09504 2.75853 4.85659 2.98195 4.68475C4.37575 4.29308 5.2969 6.08945 4.15383 6.9888ZM4.51513 1.72584C4.84464 1.6014 5.21007 1.61275 5.53122 1.75742C5.85238 1.90208 6.10303 2.16824 6.22818 2.49749C6.3529 2.82701 6.34178 3.19255 6.19725 3.51387C6.05272 3.83519 5.7866 4.08603 5.4573 4.21132C4.76897 4.47295 3.99342 4.10231 3.74425 3.43967C3.61998 3.11024 3.63133 2.74498 3.77582 2.4239C3.9203 2.10282 4.18615 1.85209 4.51513 1.72662V1.72584ZM2.62298 7.92163C3.79019 8.34522 3.85638 9.89008 2.71642 10.3861C2.35751 10.2756 1.97529 10.2648 1.61073 10.3549C1.31207 10.2131 1.0803 9.96068 0.964442 9.65103C0.56499 8.59984 1.56245 7.56968 2.62298 7.92163ZM2.10362 11.0651C2.64089 11.0651 3.14702 11.3921 3.34792 11.9232C3.40994 12.0863 3.43915 12.2601 3.43389 12.4346C3.42862 12.6091 3.38897 12.7808 3.31721 12.94C3.24546 13.0991 3.143 13.2425 3.01572 13.362C2.88844 13.4815 2.73884 13.5747 2.57549 13.6362C2.24604 13.7603 1.88087 13.7488 1.55985 13.6044C1.23883 13.4599 0.988076 13.1942 0.862437 12.8653C0.786614 12.6643 0.760613 12.4478 0.786659 12.2345C0.812704 12.0212 0.89002 11.8174 1.012 11.6405C1.13397 11.4635 1.29698 11.3188 1.48708 11.2186C1.67719 11.1184 1.88873 11.0657 2.10362 11.0651Z" fill="#552912"/>
<path d="M15.9655 16.2416C15.8827 16.2513 15.8027 16.2772 15.73 16.3179C15.6573 16.3585 15.5933 16.4131 15.5417 16.4784C15.4374 16.6104 15.3899 16.7785 15.4095 16.9455C15.4291 17.1126 15.5143 17.265 15.6463 17.3693C15.7783 17.4735 15.9463 17.5211 16.1134 17.5015C16.2805 17.4819 16.4329 17.3967 16.5372 17.2647C16.6414 17.1327 16.689 16.9646 16.6694 16.7976C16.6497 16.6305 16.5646 16.4781 16.4326 16.3738C16.3005 16.2695 16.1325 16.222 15.9655 16.2416ZM2.18008 13.0226C2.26473 13.0153 2.34705 12.991 2.42213 12.9512C2.49722 12.9114 2.56355 12.8569 2.6172 12.791C2.67084 12.7251 2.7107 12.6491 2.73442 12.5675C2.75814 12.4859 2.76522 12.4004 2.75526 12.316C2.7453 12.2316 2.71849 12.1501 2.67643 12.0763C2.63436 12.0024 2.5779 11.9378 2.51038 11.8862C2.44287 11.8346 2.36568 11.7971 2.28339 11.7759C2.20111 11.7547 2.1154 11.7502 2.03135 11.7628C1.86851 11.7873 1.72159 11.8743 1.62165 12.0052C1.52171 12.1361 1.47658 12.3007 1.49579 12.4643C1.515 12.6278 1.59704 12.7775 1.72459 12.8817C1.85213 12.9859 2.01597 13.0365 2.18008 13.0226ZM8.71225 2.73188C8.79704 2.72474 8.87954 2.70062 8.95482 2.66096C9.03011 2.62129 9.09665 2.56689 9.15048 2.50099C9.20432 2.43509 9.24435 2.35903 9.26819 2.27735C9.29204 2.19566 9.29921 2.11001 9.28929 2.0255C9.27937 1.94098 9.25254 1.85933 9.21042 1.78539C9.1683 1.71145 9.11174 1.64674 9.0441 1.5951C8.97647 1.54346 8.89914 1.50596 8.81671 1.48481C8.73428 1.46366 8.64845 1.45931 8.5643 1.47201C8.40146 1.49659 8.25454 1.58352 8.1546 1.71442C8.05466 1.84533 8.00953 2.00996 8.02874 2.17352C8.04794 2.33709 8.12999 2.48679 8.25753 2.59098C8.38508 2.69517 8.54814 2.7457 8.71225 2.73188ZM17.2565 7.1788C17.2662 7.26158 17.2921 7.34163 17.3328 7.41439C17.3734 7.48714 17.428 7.55118 17.4934 7.60284C17.5588 7.65451 17.6337 7.69278 17.7139 7.71548C17.7941 7.73818 17.878 7.74487 17.9608 7.73515C18.0435 7.72544 18.1236 7.69952 18.1964 7.65887C18.2691 7.61821 18.3331 7.56363 18.3848 7.49823C18.4365 7.43283 18.4747 7.35789 18.4974 7.2777C18.5202 7.19751 18.5268 7.11363 18.5171 7.03086C18.4975 6.86369 18.4123 6.71115 18.2802 6.60682C18.1481 6.50248 17.98 6.45489 17.8128 6.47451C17.6457 6.49412 17.4931 6.57935 17.3888 6.71143C17.2844 6.84351 17.2369 7.01163 17.2565 7.1788Z" fill="#552912"/>
</svg>
