<svg width="24" height="24" viewBox="0 0 24 24" fill="none" xmlns="http://www.w3.org/2000/svg">
<g clip-path="url(#clip0_1_9714)">
<path d="M6.1875 7.68749C6.11177 7.68749 6.03781 7.71041 5.97536 7.75325C5.91291 7.79609 5.86489 7.85684 5.83763 7.92749C5.61188 8.51174 4.875 10.4587 4.875 10.9601C4.88703 11.2967 5.03188 11.6148 5.27786 11.8448C5.52383 12.0748 5.8509 12.198 6.1875 12.1875C6.52407 12.198 6.85111 12.0748 7.09708 11.8448C7.34305 11.6149 7.48792 11.2968 7.5 10.9603C7.5 10.4586 6.76313 8.51193 6.53738 7.9273C6.51008 7.85668 6.46205 7.79598 6.3996 7.75318C6.33715 7.71037 6.26321 7.68747 6.1875 7.68749ZM6.75 10.9603C6.73763 11.0978 6.67172 11.2248 6.56648 11.3141C6.46124 11.4034 6.32512 11.4477 6.1875 11.4375C6.04988 11.4477 5.91376 11.4034 5.80852 11.3141C5.70328 11.2248 5.63737 11.0978 5.625 10.9603C5.6265 10.7752 5.88019 9.98774 6.1875 9.13518C6.49481 9.98774 6.7485 10.7752 6.75 10.9603ZM10.6856 8.20874C10.9483 8.35896 11.2 8.52757 11.4388 8.7133C11.574 8.89293 12.1729 9.66187 12.7376 9.9808C13.1162 10.1981 13.5448 10.3131 13.9813 10.3146C14.2904 10.3177 14.5969 10.2588 14.8828 10.1413C15.1687 10.0238 15.428 9.85012 15.6456 9.63055C16.2338 9.00618 16.2806 8.12624 15.7682 7.33443C15.5389 7.01763 15.2005 6.7969 14.8181 6.71474C14.7448 6.69576 14.6675 6.69942 14.5963 6.72525C14.5251 6.75107 14.4634 6.79785 14.4193 6.85942C14.3752 6.92099 14.3508 6.99447 14.3492 7.07019C14.3477 7.14591 14.3691 7.22031 14.4107 7.28362C14.5958 7.56543 14.1043 7.98337 13.8669 7.71993C13.0781 6.84374 14.4388 4.55249 14.4388 4.55249C15.0988 3.34799 15.5989 2.05462 14.7966 0.755616C14.7713 0.711575 14.7376 0.672983 14.6973 0.642081C14.6571 0.61118 14.6111 0.588584 14.562 0.575606C14.5129 0.562628 14.4618 0.559526 14.4115 0.56648C14.3612 0.573435 14.3128 0.590306 14.2691 0.616116C14.2273 0.641679 14.1909 0.675252 14.1621 0.714907C14.1333 0.754563 14.1125 0.799521 14.1011 0.847202C14.0897 0.894883 14.0878 0.944348 14.0956 0.992758C14.1033 1.04117 14.1206 1.08757 14.1463 1.1293C14.211 1.41412 13.9847 1.88774 13.9847 1.88774C13.6879 2.72962 13.1126 3.40893 12.5034 4.12818C12.3549 4.30368 12.2061 4.47955 12.0609 4.65805C11.3751 5.50237 11.1071 6.39299 11.2744 7.25549C11.0366 7.3346 10.8147 7.45515 10.6189 7.61155C10.5763 7.65143 10.5435 7.7007 10.5233 7.75545C10.5031 7.81021 10.4959 7.86892 10.5024 7.92693C10.5088 7.98494 10.5287 8.04064 10.5605 8.0896C10.5923 8.13855 10.6351 8.17941 10.6854 8.20893L10.6856 8.20874ZM11.829 7.86187C11.8774 7.84699 11.9224 7.82269 11.9613 7.79035C12.0003 7.75802 12.0325 7.71829 12.056 7.67346C12.0795 7.62862 12.0939 7.57958 12.0984 7.52915C12.1029 7.47872 12.0974 7.4279 12.0821 7.37962C11.8333 6.65193 12.0221 5.89537 12.6429 5.13112C12.7849 4.95637 12.9306 4.78443 13.0761 4.61287C13.5612 4.07664 13.9914 3.49323 14.3604 2.87137C14.2911 3.39843 13.7612 4.2283 13.7612 4.2283C13.1758 5.2963 12.1961 7.08374 13.3307 8.24418C13.5179 8.43467 13.7713 8.5458 14.0382 8.55452C14.3052 8.56325 14.5652 8.46891 14.7645 8.29105C14.9404 8.15243 15.073 7.96654 15.147 7.75518C15.468 8.25993 15.4513 8.74293 15.0996 9.11643C14.8353 9.36331 14.4979 9.51746 14.1384 9.55558C13.7788 9.59371 13.4165 9.51373 13.1064 9.32774C12.7116 9.10462 12.1886 8.46599 12.0204 8.23855C11.898 8.12609 11.7691 8.02079 11.6346 7.92318C11.7009 7.90012 11.7671 7.8793 11.829 7.86187ZM23.8811 7.61155C23.6853 7.45515 23.4634 7.3346 23.2256 7.25549C23.3929 6.39299 23.1249 5.50237 22.4391 4.65805C22.2934 4.47992 22.1459 4.30328 21.9966 4.12818C21.3872 3.40893 20.8121 2.72943 20.5153 1.88774C20.5153 1.88774 20.289 1.41412 20.3537 1.1293C20.3794 1.08756 20.3966 1.04115 20.4044 0.99273C20.4121 0.944312 20.4102 0.894842 20.3988 0.84716C20.3874 0.799478 20.3666 0.754523 20.3378 0.714874C20.3089 0.675225 20.2725 0.641664 20.2307 0.616116C20.187 0.590336 20.1386 0.573488 20.0884 0.56655C20.0381 0.559611 19.987 0.562721 19.9379 0.575698C19.8889 0.588674 19.8429 0.61126 19.8026 0.642145C19.7624 0.67303 19.7287 0.7116 19.7034 0.755616C18.9011 2.05462 19.4012 3.34799 20.0612 4.55249C20.0612 4.55249 21.4219 6.84374 20.6331 7.71993C20.3957 7.98337 19.9042 7.56543 20.0893 7.28362C20.1308 7.22031 20.1522 7.14593 20.1506 7.07025C20.1491 6.99457 20.1246 6.92113 20.0805 6.8596C20.0365 6.79806 19.9748 6.75131 19.9036 6.72549C19.8325 6.69967 19.7552 6.69599 19.6819 6.71493C19.2996 6.79703 18.9611 7.0177 18.7318 7.33443C18.2194 8.12624 18.2662 9.00618 18.8544 9.63055C19.0719 9.85015 19.3313 10.0239 19.6172 10.1414C19.9031 10.2589 20.2096 10.3179 20.5187 10.3147C20.9552 10.3132 21.3838 10.1981 21.7624 9.9808C22.3271 9.66187 22.9258 8.89293 23.0612 8.7133C23.3001 8.52763 23.5519 8.35908 23.8146 8.20893C23.8649 8.17941 23.9077 8.13855 23.9395 8.0896C23.9713 8.04064 23.9912 7.98494 23.9976 7.92693C24.0041 7.86892 23.9969 7.81021 23.9767 7.75545C23.9565 7.7007 23.9237 7.65143 23.8811 7.61155ZM22.4796 8.23855C22.3114 8.46599 21.7884 9.1048 21.3936 9.32774C21.0835 9.51375 20.7213 9.59376 20.3617 9.55567C20.0021 9.51758 19.6647 9.36347 19.4004 9.11662C19.0487 8.74293 19.032 8.25974 19.353 7.75518C19.427 7.96654 19.5596 8.15243 19.7355 8.29105C19.9348 8.46891 20.1948 8.56325 20.4618 8.55452C20.7287 8.5458 20.9821 8.43467 21.1693 8.24418C22.3037 7.08355 21.324 5.2963 20.7386 4.2283C20.7386 4.2283 20.2089 3.39843 20.1396 2.87137C20.5086 3.49323 20.9388 4.07664 21.4239 4.61287C21.5694 4.78443 21.7151 4.95637 21.8571 5.13112C22.4779 5.89537 22.6667 6.65174 22.4179 7.37962C22.4027 7.42788 22.3971 7.47869 22.4016 7.5291C22.4061 7.57951 22.4206 7.62853 22.4441 7.67334C22.4676 7.71815 22.4998 7.75786 22.5387 7.79018C22.5777 7.82251 22.6226 7.84681 22.671 7.86168C22.7329 7.87912 22.7991 7.90012 22.8654 7.92318C22.7309 8.02079 22.602 8.12609 22.4796 8.23855Z" fill="#552912"/>
<path d="M19.8883 11.0647C19.7648 11.0648 19.6427 11.0907 19.5298 11.1407L17.6248 11.7017V7.31811L18.9771 6.2893C19.0367 6.24395 19.0813 6.18181 19.1053 6.11086C19.1292 6.03992 19.1314 5.96343 19.1115 5.89124C19.1115 5.89124 17.5633 0.276737 17.5627 0.275237C17.5389 0.194744 17.4894 0.124262 17.4218 0.0745592C17.3541 0.0248563 17.2721 -0.001335 17.1881 -1.33642e-05C17.1074 0.00322685 17.0298 0.0322982 16.9667 0.0829254C16.9037 0.133553 16.8586 0.203064 16.8381 0.281237L15.3868 5.91524C15.3681 5.98759 15.3715 6.06388 15.3965 6.1343C15.4215 6.20472 15.467 6.26608 15.5271 6.31049L16.875 7.30686V11.6587C15.015 11.0617 14.9805 11.0595 14.9111 11.0625C14.809 11.0647 14.7084 11.0875 14.6153 11.1296C14.5222 11.1717 14.4387 11.2323 14.3696 11.3075C14.0539 11.6282 13.869 12.2402 13.875 12.9446C13.8833 13.8739 14.2508 14.8123 14.9419 14.8123C15.0131 14.8119 15.0474 14.8112 16.875 14.1956V23.625C16.875 23.7244 16.9145 23.8198 16.9848 23.8902C17.0552 23.9605 17.1505 24 17.25 24C17.3495 24 17.4448 23.9605 17.5152 23.8902C17.5855 23.8198 17.625 23.7244 17.625 23.625V14.1975L19.5682 14.7409C19.7309 14.7989 19.9058 14.814 20.076 14.7847C20.2331 14.7426 20.3758 14.6583 20.4885 14.541C20.8148 14.2102 21.0058 13.6078 20.9998 12.9296C20.9906 11.8804 20.5164 11.0955 19.8883 11.0647ZM16.875 13.4042C16.158 13.6457 15.216 13.9607 14.9321 14.0495C14.8294 13.9624 14.6308 13.5778 14.625 12.938C14.6194 12.3005 14.8103 11.9139 14.9109 11.8252C15.1971 11.9104 16.1492 12.2137 16.875 12.4468V13.4042ZM17.2566 6.65605L16.1762 5.85749L17.2136 1.83036L18.321 5.84605L17.2566 6.65605ZM17.625 13.4186V12.4835L18.8507 12.1224C18.7118 12.6619 18.7165 13.2282 18.8644 13.7653L17.625 13.4186ZM19.9543 14.0147C19.9123 14.0572 19.8909 14.0524 19.8351 14.0368C19.7162 13.9415 19.5054 13.5624 19.5 12.9386C19.4955 12.4054 19.6451 12.0127 19.7957 11.8601C19.8199 11.8393 19.8491 11.8252 19.8804 11.8192C19.9856 11.8539 20.2438 12.2434 20.2498 12.9362C20.2545 13.4694 20.1049 13.862 19.9543 14.0147ZM4.84312 8.06249H3.375C3.27554 8.06249 3.18016 8.102 3.10984 8.17232C3.03951 8.24265 3 8.33803 3 8.43749C3 8.53694 3.03951 8.63233 3.10984 8.70265C3.18016 8.77298 3.27554 8.81249 3.375 8.81249H4.57594C4.6515 8.59161 4.73981 8.3428 4.84312 8.06249ZM9 8.06249H7.53187C7.635 8.3428 7.7235 8.59161 7.79906 8.81249H9C9.09946 8.81249 9.19484 8.77298 9.26517 8.70265C9.33549 8.63233 9.375 8.53694 9.375 8.43749C9.375 8.33803 9.33549 8.24265 9.26517 8.17232C9.19484 8.102 9.09946 8.06249 9 8.06249Z" fill="#552912"/>
<path d="M14.2478 15.5616L10.7828 15.3949C6.56535 14.334 2.64004 14.9914 1.15973 15.2392C1.0666 15.2507 0.972645 15.2257 0.897542 15.1695C0.822439 15.1132 0.772018 15.0301 0.756844 14.9375C0.74167 14.8449 0.762921 14.7501 0.816144 14.6728C0.869367 14.5955 0.950431 14.5418 1.04235 14.523C2.37529 14.2864 6.43148 13.5664 10.6349 14.6334C10.6592 14.6396 10.6842 14.6433 10.7093 14.6445L13.7278 14.7896C13.5578 14.5564 13.4281 14.2964 13.344 14.0203L11.0625 13.9106V9.40124C11.0138 9.34425 10.9658 9.28662 10.9185 9.22837C10.8027 9.14399 10.5439 8.9818 10.3223 8.85674C10.3187 8.85487 10.3155 8.85224 10.3122 8.85018L10.3125 8.86555V13.7861C7.01404 13.0519 3.88241 13.3305 2.06254 13.5954V8.86574C2.06254 6.66524 3.91316 4.87499 6.18754 4.87499C6.97463 4.86988 7.74686 5.08936 8.4136 5.50769C9.08034 5.92601 9.61394 6.52583 9.95179 7.23674C9.99449 7.1742 10.0434 7.11616 10.0979 7.06349C10.2075 6.96165 10.3284 6.87269 10.4582 6.79837C10.4564 6.72937 10.4607 6.65999 10.4633 6.5908C10.0325 5.83826 9.40968 5.21351 8.65851 4.78031C7.90733 4.34711 7.05467 4.12097 6.18754 4.12499C3.49954 4.12499 1.31254 6.25162 1.31254 8.86574V13.7145C1.16085 13.7402 1.02566 13.764 0.911288 13.7844C0.70388 13.8234 0.511739 13.9202 0.357105 14.0638C0.202472 14.2075 0.0916701 14.3919 0.0375248 14.5959C-0.0166205 14.7999 -0.011895 15.015 0.0511543 15.2164C0.114204 15.4178 0.232998 15.5972 0.393788 15.7339C0.508146 15.8306 0.641163 15.9029 0.784593 15.9461C0.928023 15.9894 1.07881 16.0027 1.2276 15.9853C1.42469 16.566 1.7426 17.0983 2.16038 17.5472C2.57817 17.9961 3.08634 18.3513 3.65141 18.5895C3.66454 18.5951 3.67804 18.5989 3.69116 18.6045C3.61181 18.7551 3.56797 18.9218 3.56299 19.0919C3.55802 19.2621 3.59205 19.4311 3.66248 19.5861C3.63698 19.5926 3.6111 19.5981 3.58598 19.6054C2.36992 19.985 1.23448 20.5861 0.236851 21.3784C0.145521 21.4461 0.0760219 21.5391 0.0369362 21.6458C-0.00214956 21.7526 -0.00911036 21.8684 0.0169134 21.9791C0.0563854 22.1081 0.132567 22.2228 0.236154 22.3092C0.339741 22.3956 0.466249 22.45 0.600226 22.4657C2.04773 22.7192 4.50529 22.8636 6.19016 22.875C7.86979 22.8636 10.3274 22.7194 11.7747 22.4657C11.9087 22.45 12.0352 22.3957 12.1388 22.3093C12.2425 22.2229 12.3187 22.1081 12.3582 21.9791C12.3842 21.8684 12.3772 21.7526 12.3381 21.6458C12.2991 21.5391 12.2296 21.4461 12.1382 21.3784C11.1405 20.5861 10.005 19.985 8.78891 19.6054C8.76398 19.5979 8.73791 19.5926 8.7126 19.5861C8.78397 19.4288 8.81796 19.2572 8.8119 19.0847C8.80585 18.9122 8.75993 18.7434 8.67773 18.5916C8.71016 18.5777 8.74335 18.5659 8.77523 18.5501C9.37335 18.2546 10.6643 17.4802 11.1055 16.1614C11.1055 16.1614 14.2581 16.3125 14.2695 16.3125C14.4545 16.3125 14.6323 16.2407 14.7655 16.1122C14.8398 16.0407 14.8989 15.9548 14.9392 15.8598C14.9795 15.7648 15.0002 15.6627 15 15.5595V15.4539C14.9935 15.4539 14.4664 15.4545 14.2489 15.2636L14.2478 15.5616ZM11.409 21.7659C9.67887 21.9964 7.93578 22.1163 6.19035 22.125C4.44305 22.1164 2.69807 21.9964 0.966038 21.7657C1.82138 21.1286 2.77875 20.6414 3.79729 20.325C3.97393 20.2743 4.15689 20.249 4.34066 20.25H8.03479C8.2185 20.249 8.4014 20.2743 8.57798 20.325C9.59653 20.6414 10.5539 21.1286 11.4092 21.7657L11.409 21.7659ZM4.31254 19.125C4.31264 19.0256 4.35218 18.9302 4.42248 18.8599C4.49279 18.7896 4.58811 18.7501 4.68754 18.75H7.68754C7.78699 18.75 7.88238 18.7895 7.9527 18.8598C8.02303 18.9302 8.06254 19.0255 8.06254 19.125C8.06254 19.2244 8.02303 19.3198 7.9527 19.3902C7.88238 19.4605 7.78699 19.5 7.68754 19.5H4.68754C4.58811 19.4999 4.49279 19.4604 4.42248 19.39C4.35218 19.3197 4.31264 19.2244 4.31254 19.125ZM8.44316 17.8776C8.28106 17.9582 8.10242 18.0001 7.92135 18H4.42223C4.26066 18.0006 4.10074 17.9675 3.95273 17.9027C3.50318 17.7145 3.09653 17.437 2.75741 17.087C2.41828 16.7371 2.15376 16.3219 1.97985 15.8666C3.69923 15.6043 6.91523 15.2544 10.3442 16.0611C9.94635 17.0361 8.92523 17.6392 8.44316 17.8776Z" fill="#552912"/>
<path d="M3.375 11.0625C3.27554 11.0625 3.18016 11.102 3.10984 11.1723C3.03951 11.2427 3 11.338 3 11.4375C3 11.537 3.03951 11.6323 3.10984 11.7027C3.18016 11.773 3.27554 11.8125 3.375 11.8125H4.32938C4.21206 11.5789 4.14433 11.3235 4.13044 11.0625H3.375ZM9 11.0625H8.24438C8.23054 11.3235 8.16287 11.5789 8.04562 11.8125H9C9.09946 11.8125 9.19484 11.773 9.26517 11.7027C9.33549 11.6323 9.375 11.537 9.375 11.4375C9.375 11.338 9.33549 11.2427 9.26517 11.1723C9.19484 11.102 9.09946 11.0625 9 11.0625ZM3.375 9.5625C3.27554 9.5625 3.18016 9.60201 3.10984 9.67233C3.03951 9.74266 3 9.83804 3 9.9375C3 10.037 3.03951 10.1323 3.10984 10.2027C3.18016 10.273 3.27554 10.3125 3.375 10.3125H4.23C4.29558 10.0602 4.36918 9.81009 4.45069 9.5625H3.375ZM9 9.5625H7.92431C8.02669 9.87863 8.09681 10.1229 8.145 10.3125H9C9.09946 10.3125 9.19484 10.273 9.26517 10.2027C9.33549 10.1323 9.375 10.037 9.375 9.9375C9.375 9.83804 9.33549 9.74266 9.26517 9.67233C9.19484 9.60201 9.09946 9.5625 9 9.5625Z" fill="#552912"/>
</g>
<defs>
<clipPath id="clip0_1_9714">
<rect width="24" height="24" fill="white"/>
</clipPath>
</defs>
</svg>
