<svg width="24" height="24" viewBox="0 0 24 24" fill="none" xmlns="http://www.w3.org/2000/svg">
<g clip-path="url(#clip0_1_9762)">
<path d="M15.9617 6.97212C15.6277 6.81633 15.2499 6.80226 14.9063 6.93549C14.485 6.45363 13.947 6.08043 13.3507 5.85636C13.3521 5.10986 12.7451 4.50162 11.9992 4.50166C11.2714 4.48661 10.6307 5.12951 10.6477 5.85725C9.82367 6.16592 9.12636 6.75105 8.67733 7.51115C7.97552 7.39306 7.25923 7.91019 7.15005 8.61415C7.0231 9.33467 7.49427 10.0244 8.20518 10.1726C8.3257 10.8277 8.61679 11.4456 9.04565 11.957C8.5788 12.8322 9.25022 13.9419 10.2451 13.9291C10.7074 13.9315 11.1568 13.6834 11.3963 13.2875C12.0474 13.3914 12.7321 13.3241 13.3452 13.0933C13.8081 13.63 14.683 13.6935 15.2191 13.2253C15.7891 12.7465 15.8642 11.8932 15.3871 11.322C15.6975 10.7532 15.8592 10.1152 15.8572 9.46715C16.9774 9.05746 17.0442 7.47199 15.9617 6.97212ZM11.351 5.8542C11.3438 5.50562 11.6505 5.19798 11.9991 5.20516C12.5706 5.2014 12.8644 5.91273 12.4572 6.31332C12.0565 6.72099 11.3473 6.42611 11.351 5.8542ZM7.84281 8.73622C7.89552 8.39182 8.25296 8.14172 8.59353 8.20976C9.15694 8.30539 9.32319 9.0569 8.85263 9.38082C8.38728 9.71265 7.73973 9.29865 7.84281 8.73622ZM10.4148 13.2029C9.86381 13.3554 9.3971 12.7445 9.68602 12.2513C9.85302 11.9469 10.2724 11.8325 10.5711 12.0138C11.0677 12.2963 10.968 13.0595 10.4148 13.2029ZM11.598 12.6054C11.6285 11.5464 10.4351 10.8522 9.52526 11.432C9.22438 11.0506 9.01517 10.6052 8.91378 10.1301C9.92801 9.7935 10.1486 8.44429 9.32694 7.79464C9.68363 7.22677 10.2129 6.78575 10.834 6.53847C11.3387 7.4167 12.6478 7.43236 13.1649 6.53922C13.6094 6.717 14.0119 6.99669 14.3356 7.35287C13.7002 8.13248 14.1424 9.35577 15.1528 9.52962C15.1443 10.0155 15.0257 10.4883 14.806 10.9158C13.8149 10.5548 12.8112 11.4488 13.0261 12.4601C12.5746 12.6171 12.0764 12.6681 11.598 12.6054ZM14.7665 12.6866C14.5044 12.9164 14.072 12.8784 13.8537 12.6067C13.4834 12.171 13.838 11.4881 14.4064 11.5427C14.9762 11.5879 15.2065 12.3221 14.7665 12.6866ZM15.6119 8.80788C15.287 8.93389 14.8936 8.75001 14.7814 8.42C14.5825 7.88412 15.1479 7.36361 15.6641 7.60954C16.1838 7.84697 16.1501 8.61589 15.6119 8.80788Z" fill="#552912"/>
<path d="M20.7965 8.30289C20.659 8.22328 20.5086 8.16851 20.3522 8.14109C20.2621 7.56075 20.1111 6.99151 19.9018 6.44279C21.0325 5.46307 19.9999 3.6501 18.5731 4.13731C18.2025 3.6799 17.7853 3.26235 17.3281 2.89141C17.807 1.46886 16.0261 0.429349 15.0248 1.56218C14.4756 1.35289 13.906 1.20189 13.3252 1.11169C13.0312 -0.37136 10.9524 -0.372955 10.6631 1.12102C10.0868 1.21449 9.52185 1.36809 8.97753 1.5793C8.7294 1.27874 8.35428 1.08684 7.93516 1.08684C7.46995 1.10147 7.47056 1.77598 7.93516 1.79028C8.79412 1.82419 8.7943 3.05447 7.93516 3.08847C7.57781 3.08847 7.2871 2.79729 7.2871 2.43938C7.2871 2.34609 7.25004 2.25663 7.18408 2.19067C7.11812 2.12471 7.02866 2.08765 6.93538 2.08765C6.47556 2.11715 6.55992 2.62345 6.67473 2.92658C6.2279 3.29418 5.8198 3.70646 5.45678 4.15701C3.99783 3.61924 2.92944 5.49679 4.12961 6.48096C3.92769 7.01814 3.78157 7.57466 3.69357 8.14175C2.13867 8.39007 2.14955 10.585 3.7036 10.8234C3.79581 11.3861 3.9451 11.9379 4.14917 12.4703C2.91194 13.4545 4.01565 15.3774 5.4958 14.7905C5.85534 15.2302 6.25807 15.6326 6.69794 15.9919C6.37398 16.7142 6.80383 17.6313 7.59169 17.8263C8.10676 17.9741 8.70304 17.7665 9.01889 17.3365C9.55044 17.5394 10.1013 17.6877 10.6629 17.7789C10.7189 18.2847 11.1093 18.7634 11.6236 18.9052V20.0319C11.0776 20.1857 10.676 20.688 10.676 21.2825V22.7073C10.7472 24.4307 13.2034 24.4309 13.2747 22.7073V21.2825C13.2747 20.688 12.8731 20.1857 12.3271 20.0319V18.9195C12.8576 18.7987 13.2784 18.3209 13.3423 17.7852C13.9077 17.6964 14.4626 17.5498 14.9981 17.3476C15.2457 17.6644 15.6308 17.8687 16.0629 17.8687C16.2572 17.8687 16.4146 17.7112 16.4146 17.517C16.4146 17.3227 16.2572 17.1652 16.0629 17.1652C15.7056 17.1652 15.4148 16.8741 15.4148 16.5161C15.4148 16.1582 15.7056 15.867 16.0629 15.867C16.4203 15.867 16.711 16.1582 16.711 16.5161C16.711 16.7104 16.8684 16.8679 17.0627 16.8679C17.528 16.8381 17.4366 16.3194 17.3183 16.0161C17.7668 15.6531 18.177 15.2453 18.5428 14.7991C19.9859 15.3311 21.0593 13.4873 19.8888 12.491C20.0986 11.947 20.2514 11.3828 20.3445 10.8072C21.5863 10.6023 21.8856 8.93181 20.7965 8.30289ZM19.6787 5.40994C19.6787 5.76785 19.388 6.05903 19.0306 6.05903C18.1715 6.02498 18.1717 4.79475 19.0306 4.76084C19.388 4.76084 19.6787 5.05202 19.6787 5.40994ZM15.7328 1.87353C16.4949 1.47242 17.1073 2.53833 16.3806 2.99791C16.0824 3.17851 15.6633 3.06591 15.4955 2.76038C15.3167 2.4503 15.4231 2.05248 15.7328 1.87353ZM11.4343 1.02376C11.6025 0.718372 12.0202 0.605445 12.3194 0.786231C12.816 1.06878 12.7163 1.83193 12.1632 1.97543C11.6121 2.1278 11.1454 1.51697 11.4343 1.02376ZM4.64012 4.85417C5.40233 4.45302 6.01457 5.51907 5.28791 5.97856C4.52589 6.37966 3.91337 5.31385 4.64012 4.85417ZM3.31666 9.15687C3.4846 8.85139 3.90319 8.73869 4.20174 8.91934C4.69832 9.20184 4.59862 9.96508 4.04548 10.1085C3.49449 10.2609 3.02773 9.65013 3.31666 9.15687ZM4.31963 13.5458C4.31963 13.1879 4.61039 12.8967 4.96774 12.8967C5.82689 12.9307 5.82665 14.1609 4.96774 14.1949C4.61039 14.1948 4.31963 13.9036 4.31963 13.5458ZM8.26559 17.0822C7.96757 17.2628 7.54831 17.1501 7.38052 16.8446C7.0915 16.3512 7.55896 15.7404 8.10938 15.8929C8.66248 16.0365 8.76223 16.7996 8.26559 17.0822ZM12.5714 21.2826V22.7074C12.5714 23.036 12.3041 23.3033 11.9755 23.3033C11.6469 23.3033 11.3796 23.036 11.3796 22.7074V21.2826C11.4122 20.4924 12.5387 20.4919 12.5714 21.2826ZM12.5641 17.9319C12.3962 18.2374 11.9771 18.35 11.679 18.1694C10.9521 17.7094 11.565 16.6439 12.3268 17.045V17.045C12.6365 17.2239 12.7429 17.6219 12.5641 17.9319ZM16.8962 15.4525C15.9564 14.7061 14.5576 15.5017 14.7242 16.6989C14.2469 16.8772 13.753 17.0074 13.2498 17.0876C13.1365 16.8134 12.9358 16.5843 12.6788 16.436V16.4359C12.0001 16.0249 11.0507 16.3441 10.758 17.0815C10.2542 16.9985 9.75996 16.8653 9.28264 16.684C9.42741 15.5111 8.08481 14.7241 7.13169 15.4377C6.73628 15.1135 6.37374 14.7511 6.04932 14.3559C6.76059 13.4176 5.97728 12.0529 4.8007 12.204C4.61887 11.7266 4.48506 11.2324 4.40123 10.7285C4.67272 10.615 4.89871 10.4172 5.04836 10.1578C5.45814 9.45963 5.14201 8.53324 4.39195 8.23095C4.4714 7.7277 4.60082 7.23363 4.77828 6.75605C5.97531 6.92704 6.77649 5.52376 6.02324 4.57612C6.34338 4.18189 6.7013 3.81989 7.09187 3.4953C8.04406 4.26473 9.46933 3.43794 9.26899 2.22159C9.74186 2.04096 10.2315 1.90765 10.7307 1.82363C11.1739 2.9905 12.8243 2.99116 13.2638 1.81495C13.7628 1.89555 14.2527 2.02526 14.7262 2.20218C14.512 3.43654 15.954 4.2802 16.9253 3.47157C17.3158 3.79283 17.674 4.15147 17.9948 4.54235C17.1918 5.49416 18.0259 6.95855 19.2622 6.74222C19.4394 7.21629 19.5692 7.70673 19.6497 8.20637C19.3547 8.31545 19.1091 8.52203 18.9499 8.79802C18.532 9.50747 18.8702 10.455 19.6423 10.7388C19.5585 11.2389 19.4255 11.7294 19.2453 12.2034C18.0381 12.009 17.2141 13.4226 17.9757 14.3806C17.6518 14.7723 17.2902 15.1313 16.8962 15.4525ZM19.3582 14.1015C19.0603 14.2821 18.641 14.1695 18.4732 13.864C18.1843 13.3709 18.6511 12.7597 19.202 12.9123C19.7551 13.0558 19.8549 13.8189 19.3582 14.1015ZM20.6817 9.79879C20.5139 10.1043 20.0947 10.2169 19.7966 10.0363C19.3 9.75372 19.3997 8.99062 19.9529 8.84712C20.5039 8.6948 20.9706 9.30553 20.6817 9.79879Z" fill="#552912"/>
</g>
<defs>
<clipPath id="clip0_1_9762">
<rect width="24" height="24" fill="white"/>
</clipPath>
</defs>
</svg>
