<svg width="24" height="24" viewBox="0 0 24 24" fill="none" xmlns="http://www.w3.org/2000/svg">
<g clip-path="url(#clip0_1_9748)">
<path d="M22.8703 12C22.8703 10.3124 22.4735 8.63591 21.7232 7.13664L22.5446 6.26813L22.2351 5.73196L21.0711 6.00935C19.1849 3.15837 16.0558 1.34912 12.649 1.14726L12.3071 0H11.688L11.346 1.1473C7.93432 1.35001 4.81545 3.14954 2.9241 6.0093L1.75998 5.73191L1.45052 6.26809L2.27192 7.13659C0.748879 10.1329 0.748879 13.8671 2.27192 16.8634L1.45052 17.7319L1.75998 18.268L2.9241 17.9907C4.81545 20.8504 7.93432 22.6499 11.346 22.8526L11.688 24H12.3071L12.6489 22.8532C14.3973 22.749 16.1043 22.2214 17.6012 21.3194L17.2377 20.7159C15.9116 21.5149 14.4092 21.9988 12.8643 22.1304L13.1108 21.3036C15.6512 21.0024 17.9547 19.6743 19.4978 17.6159L20.3389 17.8163C19.6934 18.7413 18.9048 19.5474 17.9893 20.2162L18.4049 20.7851C19.4582 20.0156 20.3543 19.076 21.0717 17.9908L22.2351 18.268L22.5445 17.7319L21.7231 16.8634C22.4735 15.3641 22.8703 13.6876 22.8703 12ZM22.1658 12C22.1658 13.492 21.8342 14.9744 21.2056 16.3161L20.6128 15.6893C21.6181 13.3766 21.6177 10.6249 20.6125 8.31104L21.2056 7.6839C21.8342 9.02564 22.1658 10.508 22.1658 12ZM11.9975 18.411C8.46251 18.411 5.58655 15.535 5.58655 12C5.9387 3.49498 18.0576 3.49747 18.4085 12C18.4085 15.535 15.5326 18.411 11.9975 18.411ZM2.84172 17.2861L5.37628 14.6061C5.63629 15.2633 5.9927 15.878 6.43378 16.4302L2.84172 17.2861ZM2.84172 6.71389L5.90414 7.44357L6.06744 6.75823L5.2497 6.56341C5.84657 5.82374 6.56069 5.18694 7.36363 4.67836L8.14022 6.02348C6.90082 6.82619 5.92546 8.00341 5.37623 9.39391L2.84172 6.71389ZM8.74966 5.67011L7.97349 4.32573C8.80945 3.88673 9.71732 3.5837 10.6635 3.43712L10.1602 5.12557C9.67187 5.2561 9.199 5.43866 8.74966 5.67011ZM5.12543 10.154C4.99417 10.6421 4.91552 11.1429 4.89083 11.6477H3.33985C3.37765 10.6893 3.56998 9.75936 3.91383 8.87291L5.12543 10.154ZM4.89083 12.3523C4.9155 12.8571 4.99414 13.3579 5.12543 13.846L3.91387 15.1271C3.56998 14.2406 3.3777 13.3107 3.33985 12.3523H4.89083ZM6.9669 17.0274C7.32352 17.3842 7.7168 17.7023 8.14022 17.9765L7.36137 19.3255C6.5667 18.8217 5.85252 18.1864 5.24933 17.4367L6.9669 17.0274ZM8.74966 18.3299C9.19899 18.5613 9.67187 18.7439 10.1602 18.8744L10.6634 20.5626C9.71314 20.4163 8.80574 20.1156 7.97133 19.678L8.74966 18.3299ZM13.8349 5.12553L13.3315 3.43698C14.2713 3.58211 15.1806 3.88189 16.0225 4.32413L15.2453 5.67011C14.796 5.43865 14.3232 5.25608 13.8349 5.12553ZM21.1533 6.71389L18.6188 9.39391C18.3588 8.73675 18.0024 8.12196 17.5613 7.56977L21.1533 6.71389ZM18.8696 13.846C19.0009 13.3579 19.0795 12.8571 19.1042 12.3523H20.6552C20.6174 13.3107 20.4251 14.2406 20.0812 15.1271L18.8696 13.846ZM19.1042 11.6477C19.0796 11.1429 19.0009 10.6421 18.8696 10.154L20.081 8.87305C20.4249 9.75997 20.6174 10.6904 20.6553 11.6477H19.1042ZM18.6188 14.6061L21.1533 17.2861L17.5613 16.4302C18.0024 15.8781 18.3588 15.2633 18.6188 14.6061ZM20.338 6.18392L17.0281 6.97254C16.6715 6.61576 16.2782 6.29763 15.8548 6.02344L16.6325 4.67634C17.3088 5.10554 17.9226 5.62605 18.4565 6.22314L18.9814 5.75328C17.4533 4.0459 15.3729 2.96416 13.1107 2.69617L12.8639 1.86834C15.8641 2.12318 18.6102 3.71145 20.338 6.18392ZM11.9975 1.42779L13.0512 4.96265C12.3664 4.85885 11.6286 4.85885 10.9439 4.96265L11.9975 1.42779ZM11.1308 1.86942L10.8843 2.6965C8.34702 2.99746 6.03583 4.33235 4.49725 6.38414L3.65706 6.18397C5.38868 3.70417 8.1267 2.12449 11.1308 1.86942ZM1.82921 12C1.82921 10.508 2.16079 9.02564 2.78944 7.68395L3.38216 8.31072C2.37712 10.6226 2.37712 13.3774 3.38216 15.6893L2.78944 16.3161C2.16084 14.9744 1.82921 13.492 1.82921 12ZM3.65701 17.8161L4.49729 17.6159C6.04048 19.6774 8.33307 21.0023 10.8843 21.3037L11.1308 22.1306C8.1267 21.8755 5.38868 20.2958 3.65701 17.8161ZM11.9975 22.5722L10.9439 19.0374C11.6286 19.1412 12.3664 19.1412 13.0512 19.0374L11.9975 22.5722ZM13.8349 18.8745C14.3232 18.7439 14.796 18.5614 15.2454 18.3299L16.0225 19.6759C15.1806 20.1178 14.2714 20.4173 13.3317 20.5625L13.8349 18.8745ZM16.6324 19.3234L15.8548 17.9765C16.2782 17.7023 16.6715 17.3842 17.0282 17.0274L18.7457 17.4366C18.1493 18.177 17.4354 18.8144 16.6324 19.3234Z" fill="#552912"/>
<path d="M13.4769 12C13.4769 11.1842 12.8132 10.5205 11.9974 10.5205C10.0348 10.6018 10.0353 13.3985 11.9974 13.4794C12.8133 13.4794 13.4769 12.8158 13.4769 12ZM11.2225 12C11.2225 11.5727 11.5701 11.225 11.9974 11.225C13.0255 11.2676 13.0252 12.7325 11.9974 12.7749C11.5701 12.7749 11.2225 12.4273 11.2225 12Z" fill="#552912"/>
<path d="M11.9976 7.13895C7.43203 7.14219 5.39579 12.9472 8.95925 15.7947L9.39989 15.2451C9.08858 14.9958 8.81451 14.7033 8.586 14.3764L9.28327 13.9739C9.82921 14.7226 10.6764 15.2381 11.6454 15.3396V16.1411C11.0374 16.0895 10.4468 15.9057 9.91958 15.6007L9.56681 16.2105C12.7509 18.0877 16.8907 15.7004 16.8586 12C16.8586 9.31962 14.678 7.13895 11.9976 7.13895ZM15.065 10.6358L15.76 10.2345C16.281 11.2929 16.281 12.7071 15.76 13.7655L15.065 13.3642C15.4493 12.5403 15.4493 11.4597 15.065 10.6358ZM15.4068 9.62499L14.712 10.0261C14.166 9.27744 13.3189 8.76193 12.3499 8.66044V7.85853C13.6136 7.9651 14.7181 8.63944 15.4068 9.62499ZM11.6453 7.85853V8.66044C10.6763 8.76193 9.82917 9.27744 9.28323 10.0261L8.5884 9.62499C9.27707 8.63944 10.3815 7.9651 11.6453 7.85853ZM8.23333 13.7666C7.71181 12.6925 7.71524 11.2991 8.23516 10.2345L8.93018 10.6358C8.5459 11.4597 8.5459 12.5404 8.93018 13.3643L8.23333 13.7666ZM9.34395 12C9.34395 10.5368 10.5344 9.34639 11.9976 9.34639C15.518 9.49213 15.5169 14.5084 11.9976 14.6536C10.5344 14.6536 9.34395 13.4632 9.34395 12ZM12.3498 16.1415V15.3396C13.3188 15.2381 14.166 14.7226 14.7119 13.9739L15.4067 14.375C14.7181 15.3606 13.6136 16.0349 12.3498 16.1415ZM11.6218 6.01175H12.3733V6.71625H11.6218V6.01175ZM11.6218 17.2838H12.3733V17.9883H11.6218V17.2838Z" fill="#552912"/>
<path d="M6.62354 9.33134L6.99927 8.68057L7.60937 9.03282L7.23363 9.68359L6.62354 9.33134ZM16.3852 14.9676L16.7609 14.3168L17.371 14.6691L16.9953 15.3198L16.3852 14.9676ZM6.62363 14.6683L7.23373 14.3161L7.60946 14.9668L6.99936 15.3191L6.62363 14.6683ZM16.3851 9.03249L16.9952 8.68024L17.371 9.33101L16.7609 9.68326L16.3851 9.03249Z" fill="#552912"/>
</g>
<defs>
<clipPath id="clip0_1_9748">
<rect width="24" height="24" fill="white"/>
</clipPath>
</defs>
</svg>
