<svg width="72" height="72" viewBox="0 0 72 72" fill="none" xmlns="http://www.w3.org/2000/svg">
<g clip-path="url(#clip0_1_835)">
<path d="M49.7942 72C45.3462 72 40.4626 71.2927 34.894 66.1613C34.1663 65.4907 33.4889 64.7652 32.8393 63.9594C31.3776 64.8019 29.8939 65.5381 28.3876 66.0595C23.9647 67.5908 19.0985 65.765 17.5396 61.9903C17.4358 61.7324 17.438 61.4438 17.5458 61.1875C17.6537 60.9312 17.8583 60.7279 18.1153 60.6217C18.3723 60.5155 18.6608 60.5152 18.9181 60.6206C19.1754 60.7261 19.3806 60.9289 19.4891 61.1849C20.6295 63.9457 24.3117 65.2382 27.6973 64.0661C30.6403 63.0471 33.6251 61.0474 36.5118 59.1135C37.2836 58.5964 38.0612 58.0755 38.8438 57.5694C37.6467 54.9848 37.5524 52.0038 38.5633 49.2053C38.0148 48.9129 37.4925 48.5579 37.0706 48.1839C35.7254 46.9915 35.8226 45.9945 36.0003 45.5062C36.2761 44.7491 37.363 43.9094 38.5367 43.1879C36.4588 41.3147 34.2235 38.3009 32.451 34.8921C31.5537 35.6544 30.6686 36.3075 29.8297 36.8246C30.8545 37.746 31.7729 38.7679 31.9077 39.5626C31.9946 40.0748 31.9107 41.0731 30.3727 42.0036C29.8878 42.2971 29.3066 42.5533 28.7112 42.7425C29.2257 45.8522 28.6552 48.7172 27.0696 50.9412C28.6471 52.8514 29.7877 54.9264 30.9109 56.9696C31.198 57.4921 31.4951 58.0323 31.7937 58.559C31.8624 58.6795 31.9067 58.8123 31.9239 58.95C31.9412 59.0876 31.9312 59.2272 31.8944 59.361C31.8576 59.4947 31.7948 59.6199 31.7096 59.7293C31.6244 59.8387 31.5185 59.9303 31.3978 59.9987C31.2772 60.0671 31.1443 60.1111 31.0066 60.1281C30.869 60.1451 30.7293 60.1347 30.5957 60.0977C30.462 60.0606 30.337 59.9976 30.2277 59.9121C30.1185 59.8267 30.0272 59.7206 29.959 59.5998C29.6533 59.061 29.3529 58.5144 29.0623 57.9858C28.0147 56.0802 26.9924 54.2211 25.6403 52.5293C23.6158 54.3253 20.8031 55.2974 17.5455 55.2974C14.5548 55.2974 11.8626 54.2677 10.3438 52.5431C9.3669 51.4335 8.94192 50.1292 9.11532 48.771C9.29124 47.3921 10.0963 46.2139 11.3824 45.4536C13.3908 44.2665 16.406 44.1779 19.0633 45.2277C21.8701 46.3364 23.9521 47.755 25.5985 49.3466C26.6615 47.639 27.0204 45.4728 26.6326 43.1036C25.9885 43.1264 25.3319 43.0769 24.7593 42.9558C23.0005 42.5844 22.5922 41.6696 22.5053 41.1573C22.3704 40.3631 22.9003 39.0956 23.5637 37.8882C20.4976 37.2139 16.55 35.3889 13.0013 32.8955C9.35537 30.3338 3.04387 24.8851 1.73603 17.1736C0.964408 12.6237 2.89846 7.9566 6.66333 5.28356C6.8915 5.12435 7.17334 5.06175 7.44745 5.10939C7.72156 5.15703 7.96575 5.31104 8.12683 5.53789C8.2879 5.76475 8.35282 6.04605 8.30744 6.32055C8.26206 6.59505 8.11006 6.84049 7.88454 7.00343C4.77541 9.21072 3.17817 13.0643 3.81535 16.8211C4.99521 23.7776 10.8367 28.7969 14.2136 31.1696C18.4173 34.1231 22.7574 35.8065 25.2797 36.0398C25.3269 36.0406 25.374 36.0444 25.4209 36.0514C25.8238 36.081 26.1761 36.0708 26.4701 36.0209C26.7693 35.9703 27.1182 35.8574 27.5077 35.6851C27.5245 35.6771 27.5416 35.6695 27.5587 35.6623C28.6361 35.1763 30.0151 34.2455 31.5021 32.9284C29.6295 28.7357 27.274 21.3372 29.802 14.3912C30.9068 11.3556 33.1276 8.932 36.0555 7.56678C37.3042 6.98445 38.6184 6.62444 39.95 6.48873C37.7874 3.29902 33.9138 1.58857 30.0138 2.25064C26.7469 2.80472 23.9737 4.93818 22.5956 7.95801C22.5241 8.11465 22.4153 8.2514 22.2788 8.35633C22.1423 8.46125 21.9822 8.53116 21.8124 8.55994C21.6426 8.58873 21.4684 8.57551 21.3049 8.52145C21.1415 8.46739 20.9937 8.37413 20.8746 8.24981C18.578 5.85338 15.2564 4.75353 11.9893 5.3076C11.7137 5.35393 11.431 5.28898 11.2032 5.12701C10.9755 4.96505 10.8213 4.71931 10.7746 4.44377C10.7279 4.16823 10.7925 3.88541 10.9541 3.65743C11.1158 3.42945 11.3613 3.27495 11.6368 3.22786C13.3463 2.93742 15.0982 3.01821 16.7737 3.46475C18.4492 3.9113 20.009 4.71314 21.3472 5.81583C22.247 4.33358 23.4552 3.06229 24.8897 2.08826C26.3243 1.11423 27.9516 0.460264 29.6613 0.170765C34.8475 -0.709423 39.9961 1.87503 42.4051 6.49225C43.3948 6.59646 44.368 6.82169 45.3028 7.1629C46.9324 7.75556 48.4154 8.69189 49.6511 9.90832C50.8868 11.1247 51.8464 12.5928 52.4646 14.2128C53.9795 13.3692 55.6581 12.8614 57.3866 12.7239C59.1151 12.5863 60.8529 12.8223 62.4822 13.4158C62.6129 13.4627 62.733 13.535 62.8357 13.6285C62.9383 13.7221 63.0215 13.8349 63.0805 13.9607C63.1394 14.0864 63.1729 14.2225 63.1791 14.3613C63.1853 14.5 63.1641 14.6386 63.1166 14.7691C63.069 14.8996 62.9962 15.0194 62.9023 15.1217C62.8084 15.224 62.6952 15.3067 62.5692 15.3651C62.4432 15.4236 62.3069 15.4565 62.1682 15.4622C62.0294 15.4678 61.8909 15.4459 61.7606 15.3979C58.6471 14.2644 55.1818 14.7482 52.4909 16.692C52.3513 16.7928 52.1892 16.858 52.0186 16.8817C51.8481 16.9055 51.6743 16.8871 51.5125 16.8282C51.3507 16.7693 51.2058 16.6717 51.0904 16.5439C50.975 16.4161 50.8927 16.262 50.8506 16.095C50.0387 12.8763 47.6951 10.2784 44.5813 9.14505C43.6662 8.81075 42.7071 8.61178 41.7346 8.55441C41.6916 8.55491 41.6486 8.55266 41.6059 8.54766C40.0196 8.4758 38.4277 8.78785 36.9469 9.47833C34.5298 10.6055 32.6963 12.6063 31.7843 15.1124C29.6364 21.014 31.4574 27.4073 33.1266 31.373C34.0266 30.4459 34.9403 29.3937 35.8286 28.2283C38.1383 25.1977 41.9766 19.1175 41.733 12.4464C41.728 12.308 41.7502 12.1699 41.7985 12.0401C41.8468 11.9103 41.9202 11.7912 42.0145 11.6898C42.1088 11.5883 42.2222 11.5065 42.3482 11.4488C42.4741 11.3912 42.6102 11.3589 42.7486 11.3539C42.8871 11.3486 43.0253 11.3706 43.1552 11.4188C43.2852 11.467 43.4043 11.5404 43.5058 11.6348C43.6073 11.7292 43.6892 11.8426 43.7467 11.9687C43.8043 12.0948 43.8364 12.231 43.8412 12.3695C44.1086 19.6972 39.987 26.252 37.5063 29.5068C36.4209 30.9309 35.2488 32.2537 34.065 33.4148C36.217 37.7279 38.97 41.0537 40.9432 42.4302C40.9829 42.4535 41.0213 42.4797 41.0577 42.5083C41.3938 42.7333 41.7056 42.8993 41.9863 43.0014C42.2667 43.1035 42.6125 43.1767 43.0143 43.2206C43.0608 43.2222 43.1069 43.2267 43.1524 43.2343C45.6745 43.46 50.2477 42.5854 54.916 40.4365C58.665 38.7107 65.3147 34.8253 67.728 28.1947C69.034 24.6068 68.1518 20.5234 65.4806 17.7918C65.285 17.5918 65.1769 17.3223 65.18 17.0426C65.1831 16.7629 65.2972 16.4959 65.4972 16.3003C65.6972 16.1047 65.9667 15.9966 66.2464 15.9997C66.5261 16.0028 66.7931 16.1169 66.9887 16.3169C70.2237 19.6249 71.2919 24.5705 69.7103 28.9163C67.0351 36.2662 59.8455 40.4894 55.798 42.3525C51.8586 44.1661 47.6464 45.2503 44.5091 45.3615C44.9445 46.6689 45.2374 48.011 44.9618 48.7681C44.7841 49.2564 44.2176 50.0827 42.4208 50.1312C41.8324 50.1479 41.1742 50.0771 40.5418 49.937C39.7579 52.1198 39.7943 54.425 40.6503 56.4409C42.9037 55.0931 45.1948 53.9817 47.5103 53.538C50.6921 52.9286 53.3391 53.3893 54.9641 54.8356C56.1202 55.8643 56.6904 57.3378 56.5701 58.9841C56.4701 60.3497 55.7946 61.5437 54.6167 62.4371C52.7859 63.8258 49.9428 64.3003 47.0116 63.7064C44.006 63.0973 41.5434 61.5856 39.9186 59.385C39.1822 59.8632 38.4381 60.3617 37.6855 60.8659C36.6884 61.5338 35.68 62.2094 34.6604 62.8543C35.1747 63.476 35.7301 64.0624 36.3229 64.6098C41.0788 68.9923 45.1477 69.8903 49.7938 69.8903C58.5324 69.8903 61.9116 65.0134 61.9447 64.9642C62.022 64.8492 62.1211 64.7506 62.2365 64.674C62.3518 64.5973 62.4812 64.5442 62.6171 64.5175C62.753 64.4909 62.8928 64.4913 63.0286 64.5187C63.1644 64.5461 63.2934 64.6 63.4083 64.6773C63.5233 64.7545 63.6219 64.8537 63.6986 64.9691C63.7752 65.0844 63.8284 65.2138 63.855 65.3497C63.8817 65.4856 63.8813 65.6255 63.8539 65.7613C63.8265 65.8971 63.7726 66.0261 63.6954 66.1411C63.5349 66.3804 59.6442 72 49.7942 72ZM41.7136 58.2593C43.0321 59.9688 45.0129 61.1494 47.4307 61.6393C49.7419 62.1077 52.0071 61.7694 53.3422 60.7567C54.033 60.2327 54.4113 59.5847 54.4663 58.8307C54.539 57.8393 54.2261 57.0028 53.5618 56.4116C52.438 55.4115 50.4298 55.1268 47.9073 55.6103C45.8642 56.0015 43.813 56.9985 41.7136 58.2593ZM15.252 46.6057C14.1904 46.6057 13.2032 46.8277 12.4556 47.2696C11.7218 47.7033 11.3019 48.2983 11.2076 49.038C11.1119 49.7881 11.354 50.4984 11.9269 51.1491C13.0343 52.4067 15.1873 53.188 17.5454 53.188C20.2671 53.188 22.5901 52.4056 24.2287 50.9605C22.7333 49.4911 20.8501 48.2015 18.2883 47.1895C17.3015 46.7997 16.2441 46.6057 15.252 46.6057ZM40.2948 47.6763C41.4046 48.0782 42.5536 48.0778 42.9691 47.9453C42.9428 47.4601 42.6344 46.3454 42.2213 45.2329C41.8722 45.1711 41.552 45.0884 41.265 44.9838C40.978 44.8792 40.6796 44.737 40.3724 44.5598C39.3408 45.1464 38.388 45.8021 38.0559 46.1569C38.289 46.5251 39.1681 47.2634 40.2755 47.6691L40.2948 47.6763ZM24.6136 40.7068C24.9985 40.9118 26.1298 41.1194 27.2944 40.9233L27.3103 40.9205C28.4735 40.7212 29.4724 40.1528 29.7683 39.8325C29.5056 39.4237 28.6863 38.6068 27.777 37.844C27.4426 37.9633 27.1236 38.0496 26.823 38.1005C26.522 38.1514 26.1947 38.1756 25.8376 38.1734C25.2308 39.1933 24.7267 40.2343 24.6136 40.7068Z" fill="#552912"/>
</g>
<defs>
<clipPath id="clip0_1_835">
<rect width="72" height="72" fill="white"/>
</clipPath>
</defs>
</svg>
