<svg width="72" height="72" viewBox="0 0 72 72" fill="none" xmlns="http://www.w3.org/2000/svg">
<g clip-path="url(#clip0_1_851)">
<path d="M70.2337 44.8693C69.8389 45.1429 69.4225 45.3853 68.9881 45.5893C68.4697 45.8545 67.5997 46.2985 67.5385 46.6093C67.4629 47.0197 67.5121 47.4433 67.6801 47.8249C67.8589 48.2089 68.0461 48.5389 68.2081 48.8233C68.6473 49.5997 69.3829 50.9005 68.2741 51.8065C68.0149 52.0465 67.5673 52.3933 67.1593 52.7065C67.4593 53.2321 67.5961 53.8345 67.5493 54.4381C67.4857 54.9133 67.2277 55.3405 66.8377 55.6189C66.5713 55.8061 66.2869 55.9693 66.0073 56.1289C65.2969 56.5321 65.0197 56.7205 64.9273 57.0973C64.8601 57.5797 64.9021 58.0717 65.0473 58.5373C65.1215 58.8545 65.1816 59.1748 65.2273 59.4973C65.3473 60.5905 65.2117 61.6969 64.8325 62.7301C64.5696 63.6587 64.0148 64.478 63.2502 65.0669C62.4857 65.6558 61.5518 65.983 60.5869 66.0001C60.2557 66.0001 59.9269 65.9641 59.6029 65.8957C56.1748 65.0831 52.7967 64.0722 49.4857 62.8681C46.7821 64.4545 45.0745 69.2785 44.6293 71.0893C44.5647 71.3494 44.4149 71.5805 44.2037 71.7455C43.9925 71.9106 43.7321 72.0002 43.4641 72.0001L13.3441 71.9161C13.1559 71.9157 12.9704 71.8711 12.8026 71.7858C12.6348 71.7005 12.4895 71.5769 12.3783 71.4251C12.2671 71.2732 12.1931 71.0974 12.1625 70.9117C12.1318 70.726 12.1452 70.5356 12.2017 70.3561C12.4984 69.543 12.9076 68.7756 13.4173 68.0761C13.705 67.6613 13.9644 67.2275 14.1937 66.7777C14.7372 65.6779 15.1903 64.5358 15.5485 63.3625C16.234 61.0435 16.7091 58.6675 16.9681 56.2633C17.39 52.6766 16.8469 49.0423 15.3949 45.7357C15.1309 45.1537 14.8357 44.5885 14.5081 44.0401C9.55621 42.1077 5.43515 38.5058 2.85732 33.8571C0.279495 29.2084 -0.593071 23.8052 0.390488 18.5814C1.37404 13.3576 4.15189 8.6416 8.2438 5.24873C12.3357 1.85585 17.4845 -0.00067452 22.8001 9.70613e-05C24.6426 0.00722154 26.4773 0.238931 28.2637 0.690097C30.793 0.11844 33.3891 -0.101235 35.9785 0.0372971C39.8833 0.308497 43.7629 0.865297 47.5861 1.7029C52.9969 2.7829 56.9293 4.6801 59.6137 7.5169C61.7312 9.7827 63.3684 12.4535 64.4269 15.3685C64.8591 16.6228 65.2141 17.9024 65.4901 19.2001L65.6101 19.7065C65.8657 20.6473 66.2101 21.5629 66.6361 22.4401C66.8761 22.9873 67.1257 23.5345 67.3405 24.1009C67.6167 24.7314 67.7258 25.4224 67.6573 26.1073C67.4161 27.1825 66.7957 28.1353 65.9089 28.7905C65.3221 29.3281 64.9369 29.7073 64.9321 30.0373C64.975 30.2197 65.0437 30.3951 65.1361 30.5581C66.5731 33.5836 68.3334 36.4446 70.3861 39.0913C71.2561 40.1497 72.1681 41.3845 71.9761 42.6205C71.7217 43.5745 71.0929 44.3845 70.2337 44.8693ZM20.2489 2.5585C10.0537 3.8533 2.40849 12.5233 2.40009 22.8001C2.39893 27.0571 3.7299 31.2077 6.20643 34.6701C8.68296 38.1326 12.1809 40.7332 16.2099 42.1076C20.2389 43.482 24.597 43.5611 28.6732 42.3339C32.7495 41.1067 36.3395 38.6347 38.9401 35.2645C41.7164 31.7043 43.2166 27.3148 43.2001 22.8001C43.1881 11.5381 34.0621 2.4121 22.8001 2.4001C21.9481 2.4013 21.0961 2.4541 20.2489 2.5585ZM68.4901 40.5601C66.3408 37.7932 64.498 34.8013 62.9941 31.6369C62.7133 31.1413 62.5549 30.5857 62.5321 30.0157C62.5934 29.4195 62.7815 28.8433 63.0839 28.3259C63.3863 27.8084 63.7959 27.3617 64.2853 27.0157C64.7653 26.5705 65.2273 26.1505 65.2813 25.7593C65.2733 25.4761 65.2097 25.1972 65.0941 24.9385C64.8985 24.4237 64.6729 23.9197 64.4461 23.4145C63.9541 22.3993 63.5605 21.3397 63.2725 20.2501L63.1525 19.7389C62.8991 18.5404 62.5724 17.3586 62.1745 16.2001C61.2285 13.5892 59.7639 11.1968 57.8689 9.1669C55.5733 6.7381 51.9601 5.0197 47.1121 4.0561C43.405 3.24212 39.6434 2.70028 35.8573 2.4349C34.9153 2.3917 33.9733 2.3989 33.0313 2.4529C36.8051 4.34783 39.9785 7.25358 42.1977 10.8462C44.417 14.4389 45.5948 18.5773 45.6001 22.8001C45.5881 35.3881 35.3881 45.5881 22.8001 45.6001C21.0805 45.6001 19.3669 45.4081 17.6905 45.0265C19.2358 48.6603 19.807 52.6342 19.3477 56.5561C19.0717 59.1037 18.5653 61.6225 17.8381 64.0801C17.4432 65.37 16.9452 66.6261 16.3489 67.8361C16.0753 68.3797 15.7645 68.9041 15.4189 69.4045L15.3385 69.5245L42.5569 69.6001C43.3535 66.7535 44.7994 64.1304 46.7809 61.9369L45.7009 61.5589C44.8969 61.2781 44.2909 61.0669 43.9801 60.9673C38.8393 59.3413 36.2689 57.0001 36.3385 54.0073C36.346 53.6941 36.4758 53.3962 36.7 53.1773C36.9242 52.9585 37.2252 52.836 37.5385 52.8361H37.5601C37.8782 52.8436 38.1802 52.9772 38.3999 53.2074C38.6195 53.4376 38.7387 53.7456 38.7313 54.0637C38.7025 55.2985 39.7141 57.0997 44.7025 58.6777C45.2988 58.8765 45.8932 59.0809 46.4857 59.2909C47.3773 59.6029 48.5113 59.9989 49.7617 60.4237H49.7701C53.1471 61.6616 56.5929 62.7033 60.0901 63.5437C60.6286 63.6475 61.1864 63.5389 61.6467 63.2408C62.1071 62.9426 62.4342 62.478 62.5597 61.9441C62.8161 61.2614 62.9125 60.5291 62.8417 59.8033C62.8105 59.5513 62.7529 59.3017 62.6977 59.0509C62.4532 58.2213 62.4173 57.3441 62.5933 56.4973C62.7657 55.9526 63.0534 55.4514 63.4369 55.028C63.8204 54.6045 64.2907 54.2686 64.8157 54.0433L65.0641 53.9005C64.9345 53.6389 64.7797 53.3905 64.6021 53.1589C64.5025 53.0326 64.4292 52.8877 64.3867 52.7325C64.3442 52.5774 64.3333 52.4153 64.3547 52.2559C64.3761 52.0965 64.4293 51.9431 64.5112 51.8046C64.5931 51.6662 64.7019 51.5456 64.8313 51.4501C65.1193 51.2389 65.7985 50.7301 66.2953 50.3293C66.2377 50.2249 66.1753 50.1097 66.1153 50.0053C65.9269 49.6753 65.7121 49.2913 65.5021 48.8473C65.1229 48.0061 65.0101 47.0689 65.1817 46.1617C65.4697 44.6977 66.8725 43.9801 67.8949 43.4569C68.2401 43.2928 68.5713 43.1006 68.8849 42.8821C69.1401 42.7097 69.3794 42.5149 69.6001 42.3001C69.5941 42.1201 69.4045 41.6761 68.4901 40.5601Z" fill="#552912"/>
<path d="M60.0422 22.2493C59.7325 22.3213 59.407 22.2674 59.137 22.0996C58.867 21.9318 58.6747 21.6637 58.6022 21.3541L58.4822 20.8321C58.2722 19.8301 58.0034 18.8401 57.6794 17.8681C56.9557 15.8652 55.8358 14.0287 54.3866 12.4681C52.8312 11.0019 50.9277 9.95658 48.8558 9.43094C48.7021 9.38763 48.5586 9.31409 48.4337 9.21462C48.3088 9.11514 48.205 8.99175 48.1284 8.85165C48.0518 8.71155 48.0039 8.55758 47.9876 8.39874C47.9712 8.23991 47.9868 8.07941 48.0332 7.92665C48.0797 7.77389 48.1562 7.63195 48.2582 7.50913C48.3603 7.3863 48.4858 7.28508 48.6274 7.21139C48.7691 7.13769 48.924 7.093 49.0831 7.07995C49.2423 7.06689 49.4024 7.08572 49.5542 7.13534C52.0269 7.77795 54.2922 9.04719 56.1314 10.8205C57.8023 12.6171 59.0933 14.7326 59.927 17.0401C60.287 18.1045 60.5834 19.1881 60.815 20.2873L60.935 20.8069C61.0077 21.1166 60.9546 21.4425 60.7871 21.7129C60.6197 21.9834 60.3518 22.1763 60.0422 22.2493Z" fill="#552912"/>
<path d="M61.2001 26.4C60.5374 26.4 60.0001 25.8627 60.0001 25.2C60.0001 24.5373 60.5374 24 61.2001 24C61.8629 24 62.4001 24.5373 62.4001 25.2C62.4001 25.8627 61.8629 26.4 61.2001 26.4Z" fill="#552912"/>
<path d="M24.7404 27.0553C24.9597 26.9645 25.2011 26.9408 25.4339 26.9871C25.6668 27.0335 25.8806 27.1478 26.0484 27.3157L33.9444 35.2117C34.0654 35.3322 34.1593 35.477 34.2198 35.6366C34.2804 35.7962 34.3062 35.9669 34.2955 36.1373C34.2848 36.3076 34.2379 36.4738 34.1579 36.6246C34.0779 36.7754 33.9667 36.9074 33.8316 37.0117C31.3721 38.929 28.4563 40.1738 25.3704 40.6237C25.2002 40.6482 25.0266 40.6357 24.8616 40.5872C24.6966 40.5387 24.5439 40.4553 24.414 40.3426C24.284 40.23 24.1798 40.0907 24.1084 39.9342C24.0369 39.7777 24 39.6077 24 39.4357V28.1641C24 27.9268 24.0703 27.6948 24.2021 27.4975C24.3338 27.3001 24.5212 27.1462 24.7404 27.0553ZM26.4 37.9825C28.1209 37.5703 29.7588 36.8674 31.2432 35.9041L26.4 31.0609V37.9825ZM20.4 40.6321C20.3436 40.6321 20.286 40.6273 20.2296 40.6201C17.1437 40.1702 14.2279 38.9254 11.7684 37.0081C11.6333 36.9038 11.5221 36.7718 11.4421 36.621C11.3621 36.4702 11.3152 36.304 11.3045 36.1337C11.2939 35.9633 11.3197 35.7926 11.3802 35.633C11.4407 35.4734 11.5346 35.3286 11.6556 35.2081L19.5516 27.3121C19.7197 27.1442 19.9338 27.0298 20.1669 26.9837C20.3999 26.9375 20.6415 26.9616 20.8609 27.0528C21.0803 27.1441 21.2676 27.2984 21.3992 27.4962C21.5308 27.6941 21.6007 27.9265 21.6 28.1641V39.4321C21.6 39.7504 21.4736 40.0556 21.2485 40.2807C21.0235 40.5057 20.7183 40.6321 20.4 40.6321ZM19.2 31.0609L14.3568 35.9041C15.8412 36.8674 17.4791 37.5703 19.2 37.9825V31.0609ZM10.0164 33.4525C9.79143 33.6776 9.48625 33.8041 9.16802 33.8041H9.07202C8.89872 33.7902 8.73051 33.7388 8.57905 33.6534C8.42759 33.568 8.29649 33.4508 8.19482 33.3097C5.98088 30.2534 4.7924 26.5741 4.80002 22.8001C4.81947 18.4767 6.3859 14.3031 9.21584 11.0344C12.0458 7.76582 15.9523 5.61817 20.2284 4.98014C20.3988 4.95553 20.5724 4.96785 20.7376 5.01627C20.9027 5.06468 21.0556 5.14806 21.1857 5.26075C21.3158 5.37343 21.4201 5.51279 21.4916 5.66935C21.5631 5.82592 21.6001 5.99603 21.6 6.16814V21.3721C21.6 21.6904 21.4735 21.9956 21.2484 22.2205L10.0164 33.4525ZM19.2 7.61774C15.7913 8.44424 12.7575 10.3884 10.5826 13.1401C8.40763 15.8919 7.2168 19.2927 7.20002 22.8001C7.19316 25.5843 7.93952 28.3184 9.36002 30.7129L19.2 20.8801V7.61774ZM37.4052 33.3061C37.3035 33.4472 37.1724 33.5644 37.021 33.6498C36.8695 33.7352 36.7013 33.7866 36.528 33.8005H36.432C36.1138 33.8005 35.8086 33.674 35.5836 33.4489L24.3516 22.2169C24.1274 21.9928 24.001 21.6891 24 21.3721V6.16814C23.9999 5.99568 24.0369 5.82521 24.1087 5.66836C24.1804 5.5115 24.285 5.37195 24.4155 5.2592C24.5461 5.14646 24.6993 5.06317 24.8649 5.01501C25.0306 4.96686 25.2046 4.95496 25.3752 4.98014C29.6507 5.61895 33.5564 7.76694 36.3856 11.0355C39.2148 14.304 40.7807 18.4772 40.8 22.8001C40.8069 26.5729 39.6184 30.2508 37.4052 33.3061ZM26.4 7.61774V20.8801L36.24 30.7201C37.6618 28.3235 38.4082 25.5867 38.4 22.8001C38.3832 19.2927 37.1924 15.8919 35.0175 13.1401C32.8425 10.3884 29.8087 8.44424 26.4 7.61774Z" fill="#552912"/>
</g>
<defs>
<clipPath id="clip0_1_851">
<rect width="72" height="72" fill="white" transform="matrix(-1 0 0 1 72 0)"/>
</clipPath>
</defs>
</svg>
