<svg width="72" height="72" viewBox="0 0 72 72" fill="none" xmlns="http://www.w3.org/2000/svg">
<g clip-path="url(#clip0_1_846)">
<path d="M51.3085 32.1736C54.8269 26.3827 56.2557 19.3359 55.5539 11.2303C55.536 11.0197 55.459 10.8184 55.3316 10.6497C55.2042 10.481 55.0316 10.3517 54.8339 10.2769C47.198 7.3786 41.5632 4.30032 37.1039 0.58782C36.902 0.42015 36.6478 0.328369 36.3853 0.328369C36.1229 0.328369 35.8687 0.42015 35.6668 0.58782C31.2089 4.30032 25.5755 7.38001 17.9382 10.2769C17.7404 10.3517 17.5679 10.481 17.4405 10.6497C17.3131 10.8184 17.236 11.0197 17.2182 11.2303C16.5164 19.3373 17.9452 26.3827 21.4636 32.1736C24.6207 37.3697 29.4694 41.5772 35.8763 44.6822C35.8833 44.685 35.8903 44.6892 35.8974 44.692C36.0521 44.7666 36.2194 44.8045 36.3868 44.8045C36.5541 44.8045 36.7214 44.7666 36.8761 44.692C43.2914 41.587 48.1472 37.3753 51.3085 32.1736ZM19.4007 12.1219C26.5486 9.3586 31.9866 6.40688 36.3853 2.89829C40.7855 6.40548 46.2249 9.3586 53.3714 12.1219C54.0661 21.8489 51.5124 29.7408 45.765 35.7075C45.5682 33.4575 44.8594 31.3158 42.4364 29.4398C42.3079 29.3403 42.1593 29.2699 42.0009 29.2335C41.8424 29.197 41.678 29.1954 41.5189 29.2287C41.3598 29.2619 41.2098 29.3294 41.0793 29.4263C40.9488 29.5232 40.8409 29.6473 40.763 29.79C39.8025 31.5534 38.1657 32.6053 36.3853 32.6053C34.6064 32.6053 32.9696 31.552 32.0091 29.79C31.9315 29.6473 31.8238 29.5231 31.6934 29.4262C31.5629 29.3293 31.413 29.262 31.2539 29.2289C30.9319 29.1614 30.5958 29.2388 30.3357 29.4398C27.9296 31.3031 27.2138 33.4983 27.0099 35.7103C21.2597 29.745 18.706 21.8517 19.4007 12.1219ZM29.1825 37.2839C29.2177 35.0423 29.5453 33.4209 30.8082 32.0414C32.2046 33.8231 34.2127 34.8539 36.3853 34.8539C38.5622 34.8539 40.5718 33.8217 41.9696 32.0358C43.2464 33.3998 43.5572 34.9481 43.5896 37.2839C41.6405 39.2723 39.2203 41.0006 36.3868 42.4294C33.5518 41.0006 31.133 39.2723 29.1825 37.2839ZM36.3853 29.3963C40.4846 29.3963 43.8188 25.6655 43.8188 21.0797C43.8188 16.4939 40.4846 12.7645 36.3853 12.7645C32.2875 12.7645 28.9533 16.4953 28.9533 21.0797C28.9533 25.6641 32.2875 29.3963 36.3853 29.3963ZM36.3853 15.0089C39.2457 15.0089 41.573 17.7314 41.573 21.0783C41.573 24.4252 39.2457 27.1491 36.3853 27.1491C33.525 27.1491 31.1991 24.4252 31.1991 21.0783C31.1991 17.7314 33.5264 15.0089 36.3853 15.0089ZM30.0699 49.6842C29.8519 49.6252 29.6044 49.5591 29.2894 49.4283C25.9158 48.0277 23.2833 44.8538 20.738 41.7825C18.1519 38.6634 15.6938 35.6991 12.6802 35.1689C12.645 29.6297 11.686 24.5588 10.6749 19.2094C10.1841 16.6134 9.67644 13.9303 9.28409 11.1839C9.1055 9.9436 7.58816 8.23923 6.13409 8.09016C5.21019 7.99594 4.42691 8.51626 4.08941 9.45001C2.17269 14.7516 0.16597 38.3625 0.0745637 41.94C0.0351887 43.463 0.305189 44.0255 0.867689 45.0534C0.960501 45.2222 1.06316 45.4092 1.17566 45.6258C4.68285 52.3223 9.77347 57.2133 16.3125 60.1734L16.0538 70.522C16.0468 70.8244 16.1607 71.1169 16.373 71.3348C16.4776 71.4422 16.6027 71.5275 16.7409 71.5857C16.879 71.6439 17.0275 71.6739 17.1774 71.6738H32.0738C32.6925 71.6738 33.1946 71.1731 33.1974 70.553C33.2128 64.1981 33.0933 56.3386 32.0246 51.9384C31.6688 50.4844 31.2497 50.0006 30.0699 49.6842ZM18.3277 69.4266L18.5766 59.4759C18.5824 59.2508 18.5204 59.0291 18.3985 58.8398C18.2766 58.6504 18.1005 58.5021 17.8932 58.4142C11.416 55.6622 6.59816 51.1383 3.1655 44.5838C3.04456 44.3531 2.93488 44.1534 2.83644 43.9734C2.38644 43.1536 2.29363 42.9834 2.31894 41.9977C2.42159 38.0039 4.45081 15.5433 6.12988 10.4231C6.4955 10.6524 7.00316 11.2149 7.06081 11.5031C7.46019 14.2988 7.97347 17.0072 8.46847 19.627C9.50769 25.1227 10.4878 30.3173 10.4316 35.9522C8.33628 40.3158 10.8268 43.5502 13.0318 46.4105C14.3269 48.0909 15.5518 49.6786 15.9441 51.4378C16.009 51.7284 16.1866 51.9814 16.4378 52.1412C16.6891 52.301 16.9935 52.3545 17.2843 52.29C17.8889 52.155 18.2714 51.5545 18.1364 50.9498C17.6358 48.7027 16.2 46.8408 14.8107 45.0394C12.5536 42.113 11.1783 40.1034 12.2555 37.3795C14.4689 37.7438 16.5882 40.2989 19.0097 43.2183C21.6028 46.3458 24.5433 49.8909 28.4302 51.5039C28.8816 51.6909 29.2318 51.7852 29.4891 51.8541C29.5496 51.8709 29.6199 51.8892 29.6747 51.9061C29.7085 51.9891 29.7647 52.1536 29.8407 52.47C30.8799 56.7506 30.9544 65.1895 30.9516 69.428H18.3277V69.4266ZM71.9255 41.94C71.8341 38.3653 69.8316 14.7614 67.9093 9.45001C67.5703 8.51204 66.7871 7.9861 65.8674 8.08173C64.4527 8.22657 62.8932 9.95204 62.716 11.1839C62.3236 13.9289 61.816 16.612 61.3252 19.2066C60.3141 24.5573 59.355 29.6283 59.3199 35.1675C56.3077 35.6977 53.8496 38.662 51.2635 41.7797C48.7168 44.8495 46.0843 48.0248 42.7107 49.4255C42.3957 49.5563 42.1482 49.6223 41.9302 49.6814C40.7518 49.9978 40.3327 50.483 39.9797 51.9356C38.9096 56.3358 38.79 64.1953 38.8055 70.5502C38.8062 70.8477 38.925 71.1327 39.1356 71.3428C39.3462 71.5529 39.6316 71.6709 39.9291 71.6709H54.8255C55.1278 71.6709 55.4175 71.5486 55.6299 71.332C55.7345 71.2246 55.8166 71.0974 55.8714 70.9578C55.9262 70.8182 55.9526 70.6691 55.9491 70.5192L55.6875 60.1734C62.2266 57.2147 67.3172 52.3238 70.8244 45.6258C70.9383 45.4078 71.0424 45.2194 71.1338 45.0506C71.6977 44.0227 71.9663 43.4616 71.9255 41.94ZM69.165 43.9706C69.0666 44.1506 68.9569 44.3517 68.8346 44.5838C65.4019 51.1383 60.5841 55.6622 54.1069 58.4142C53.8996 58.5021 53.7235 58.6504 53.6016 58.8398C53.4797 59.0291 53.4176 59.2508 53.4235 59.4759L53.6724 69.4266H41.0485C41.0471 65.1881 41.1202 56.7492 42.1608 52.4686C42.2382 52.1522 42.2944 51.9877 42.3282 51.9047C42.383 51.8878 42.4519 51.8695 42.5138 51.8541C42.7697 51.7852 43.1213 51.6909 43.5727 51.5039C47.4596 49.8895 50.3986 46.3458 52.9932 43.2183C55.4133 40.2989 57.5339 37.7452 59.746 37.3795C60.8232 40.1034 59.4478 42.113 57.1922 45.0394C55.8028 46.8408 54.3671 48.7027 53.8664 50.9498C53.8299 51.1141 53.8307 51.2844 53.8688 51.4483C53.9069 51.6122 53.9814 51.7654 54.0867 51.8967C54.192 52.0279 54.3254 52.1338 54.4772 52.2065C54.6289 52.2792 54.7951 52.3169 54.9633 52.3167C55.478 52.3167 55.9421 51.9609 56.0588 51.4378C56.4497 49.6786 57.6746 48.0909 58.9711 46.4105C61.1761 43.5516 63.6666 40.3158 61.5713 35.9536C61.5164 30.3188 62.4952 25.1227 63.5344 19.627C64.0294 17.0072 64.5413 14.2988 64.9393 11.513C65.0039 11.2219 65.5088 10.6594 65.8702 10.4231C67.5549 15.5447 69.5799 38.0067 69.6825 41.9991C69.7064 42.982 69.6136 43.1522 69.165 43.9706Z" fill="#552912"/>
</g>
<defs>
<clipPath id="clip0_1_846">
<rect width="72" height="72" fill="white"/>
</clipPath>
</defs>
</svg>
