<svg width="20" height="20" viewBox="0 0 20 20" fill="none" xmlns="http://www.w3.org/2000/svg">
<path d="M9.74927 0L10.5992 6.27611L14.0881 0.990312L12.1308 7.01367L17.5676 3.7651L13.1907 8.34271L19.4985 7.77479L13.5689 10L19.4985 12.2252L13.1907 11.6573L17.5676 16.2349L12.1308 12.9863L14.0881 19.0097L10.5992 13.7239L9.74927 20L8.89931 13.7239L5.41043 19.0097L7.36775 12.9863L1.93095 16.2349L6.30787 11.6573L-1.14441e-05 12.2252L5.92961 10L-1.14441e-05 7.77479L6.30787 8.34271L1.93095 3.7651L7.36775 7.01367L5.41043 0.990312L8.89931 6.27611L9.74927 0Z" fill="url(#paint0_linear_1_800)"/>
<defs>
<linearGradient id="paint0_linear_1_800" x1="9.74927" y1="0" x2="9.74927" y2="20" gradientUnits="userSpaceOnUse">
<stop stop-color="#552912"/>
<stop offset="1" stop-color="#BB5A28"/>
</linearGradient>
</defs>
</svg>
